<svg xmlns="http://www.w3.org/2000/svg" xmlns:xlink="http://www.w3.org/1999/xlink" contentStyleType="text/css" height="1526px" preserveAspectRatio="none" style="width:902px;height:1526px;background:#FFFFFF;" version="1.1" viewBox="0 0 902 1526" width="902px" zoomAndPan="magnify"><title>&#29609;&#23478;&#37325;&#36830;&#27969;&#31243; (joinRoom &#23436;&#25972;&#20915;&#31574;&#26641;)</title><defs/><g><text fill="#000000" font-family="sans-serif" font-size="14" font-weight="bold" lengthAdjust="spacing" textLength="240.4609" x="329.6636" y="34.5332">&#29609;&#23478;&#37325;&#36830;&#27969;&#31243; (joinRoom &#23436;&#25972;&#20915;&#31574;&#26641;)</text><ellipse cx="594.761" cy="58.6094" fill="#222222" rx="10" ry="10" style="stroke:#222222;stroke-width:1;"/><rect fill="#F1F1F1" height="50.1875" rx="12.5" ry="12.5" style="stroke:#181818;stroke-width:0.5;" width="154.707" x="517.4075" y="88.6094"/><text fill="#000000" font-family="sans-serif" font-size="12" lengthAdjust="spacing" textLength="97.3535" x="527.4075" y="111.0664">&#27983;&#35272;&#22120; POST /join</text><text fill="#000000" font-family="sans-serif" font-size="12" lengthAdjust="spacing" textLength="134.707" x="527.4075" y="126.1602">&#25552;&#20132; roomId &#21644; nickname</text><rect fill="#F1F1F1" height="50.1875" rx="12.5" ry="12.5" style="stroke:#181818;stroke-width:0.5;" width="88.5195" x="550.5013" y="207.7148"/><text fill="#000000" font-family="sans-serif" font-size="12" lengthAdjust="spacing" textLength="48" x="560.5013" y="230.1719">&#25243;&#20986;&#24322;&#24120;</text><text fill="#000000" font-family="sans-serif" font-size="12" lengthAdjust="spacing" textLength="68.5195" x="560.5013" y="245.2656">"&#25151;&#38388;&#19981;&#23384;&#22312;"</text><ellipse cx="594.761" cy="289.3086" fill="none" rx="11" ry="11" style="stroke:#222222;stroke-width:1;"/><ellipse cx="594.761" cy="289.3086" fill="#222222" rx="6" ry="6" style="stroke:#222222;stroke-width:1;"/><polygon fill="#F1F1F1" points="558.7022,158.7969,630.8199,158.7969,642.8199,170.7969,630.8199,182.7969,558.7022,182.7969,546.7022,170.7969,558.7022,158.7969" style="stroke:#181818;stroke-width:0.5;"/><text fill="#000000" font-family="sans-serif" font-size="11" lengthAdjust="spacing" textLength="11" x="598.761" y="194.2158">&#21542;</text><text fill="#000000" font-family="sans-serif" font-size="11" lengthAdjust="spacing" textLength="72.1177" x="558.7022" y="175.2979">&#25151;&#38388;&#26159;&#21542;&#23384;&#22312;?</text><text fill="#000000" font-family="sans-serif" font-size="11" lengthAdjust="spacing" textLength="11" x="642.8199" y="168.3799">&#26159;</text><rect fill="#F1F1F1" height="50.1875" rx="12.5" ry="12.5" style="stroke:#181818;stroke-width:0.5;" width="135.3535" x="527.0843" y="342.3086"/><text fill="#000000" font-family="sans-serif" font-size="12" lengthAdjust="spacing" textLength="115.3535" x="537.0843" y="364.7656">&#20174; DB &#26597;&#25214; roomId &#19979;</text><text fill="#000000" font-family="sans-serif" font-size="12" lengthAdjust="spacing" textLength="96" x="537.0843" y="379.8594">&#26159;&#21542;&#23384;&#22312;&#21516;&#21517;&#29609;&#23478;</text><rect fill="#F1F1F1" height="35.0938" rx="12.5" ry="12.5" style="stroke:#181818;stroke-width:0.5;" width="150.0313" x="519.7454" y="412.4961"/><text fill="#000000" font-family="sans-serif" font-size="12" lengthAdjust="spacing" textLength="130.0313" x="529.7454" y="434.9531">&#38145;&#23450;&#25151;&#38388; (synchronized)</text><polygon fill="#F1F1F1" points="569.7022,467.5898,619.8199,467.5898,631.8199,479.5898,619.8199,491.5898,569.7022,491.5898,557.7022,479.5898,569.7022,467.5898" style="stroke:#181818;stroke-width:0.5;"/><text fill="#000000" font-family="sans-serif" font-size="11" lengthAdjust="spacing" textLength="50.1177" x="569.7022" y="484.0908">&#25151;&#38388;&#29366;&#24577;?</text><text fill="#000000" font-family="sans-serif" font-size="11" lengthAdjust="spacing" textLength="22" x="631.8199" y="477.1729">&#20854;&#20182;</text><rect fill="#90EE90" height="35.0938" rx="12.5" ry="12.5" style="stroke:#181818;stroke-width:0.5;" width="118.6543" x="248.6666" y="501.5898"/><text fill="#000000" font-family="sans-serif" font-size="12" lengthAdjust="spacing" textLength="98.6543" x="258.6666" y="524.0469">WAITING (&#31561;&#24453;&#20013;)</text><polygon fill="#F1F1F1" points="271.9349,571.6836,344.0526,571.6836,356.0526,583.6836,344.0526,595.6836,271.9349,595.6836,259.9349,583.6836,271.9349,571.6836" style="stroke:#181818;stroke-width:0.5;"/><text fill="#000000" font-family="sans-serif" font-size="11" lengthAdjust="spacing" textLength="72.1177" x="271.9349" y="588.1846">&#21516;&#21517;&#29609;&#23478;&#23384;&#22312;?</text><text fill="#000000" font-family="sans-serif" font-size="11" lengthAdjust="spacing" textLength="11" x="248.9349" y="581.2666">&#21542;</text><text fill="#000000" font-family="sans-serif" font-size="11" lengthAdjust="spacing" textLength="11" x="356.0526" y="581.2666">&#26159;</text><rect fill="#F1F1F1" height="50.1875" rx="12.5" ry="12.5" style="stroke:#181818;stroke-width:0.5;" width="140" x="80.1205" y="605.6836"/><text fill="#000000" font-family="sans-serif" font-size="12" lengthAdjust="spacing" textLength="72" x="90.1205" y="628.1406">&#27491;&#24120;&#21152;&#20837;&#27969;&#31243;</text><text fill="#000000" font-family="sans-serif" font-size="12" lengthAdjust="spacing" textLength="120" x="90.1205" y="643.2344">&#21019;&#24314;&#26032;&#29609;&#23478;&#12289;&#21152;&#20837;&#25151;&#38388;</text><ellipse cx="150.1205" cy="701.8711" fill="none" rx="11" ry="11" style="stroke:#222222;stroke-width:1;"/><ellipse cx="150.1205" cy="701.8711" fill="#222222" rx="6" ry="6" style="stroke:#222222;stroke-width:1;"/><polygon fill="#F1F1F1" points="429.8082,605.6836,501.9259,605.6836,513.9259,619.5195,501.9259,633.3555,429.8082,633.3555,417.8082,619.5195,429.8082,605.6836" style="stroke:#181818;stroke-width:0.5;"/><text fill="#000000" font-family="sans-serif" font-size="11" lengthAdjust="spacing" textLength="70.9199" x="429.8082" y="617.1025">isPlayerOnline</text><text fill="#000000" font-family="sans-serif" font-size="11" lengthAdjust="spacing" textLength="72.1177" x="429.8082" y="630.9385">&#21516;&#21517;&#29609;&#23478;&#22312;&#32447;?</text><text fill="#000000" font-family="sans-serif" font-size="11" lengthAdjust="spacing" textLength="11" x="406.8082" y="617.1025">&#26159;</text><text fill="#000000" font-family="sans-serif" font-size="11" lengthAdjust="spacing" textLength="11" x="513.9259" y="617.1025">&#21542;</text><rect fill="#F1F1F1" height="65.2813" rx="12.5" ry="12.5" style="stroke:#181818;stroke-width:0.5;" width="208.5195" x="250.1205" y="643.3555"/><text fill="#000000" font-family="sans-serif" font-size="12" lengthAdjust="spacing" textLength="63.334" x="260.1205" y="665.8125">&#10060; &#25298;&#32477;&#21152;&#20837;</text><text fill="#000000" font-family="sans-serif" font-size="12" lengthAdjust="spacing" textLength="51.334" x="260.1205" y="680.9063">&#25243;&#20986;&#24322;&#24120;:</text><text fill="#000000" font-family="sans-serif" font-size="12" lengthAdjust="spacing" textLength="188.5195" x="260.1205" y="696">"&#35813;&#26165;&#31216;&#30340;&#29609;&#23478;&#24403;&#21069;&#22312;&#32447;&#65292;&#26080;&#27861;&#21152;&#20837;"</text><ellipse cx="354.3802" cy="754.6367" fill="none" rx="11" ry="11" style="stroke:#222222;stroke-width:1;"/><ellipse cx="354.3802" cy="754.6367" fill="#222222" rx="6" ry="6" style="stroke:#222222;stroke-width:1;"/><rect fill="#F1F1F1" height="80.375" rx="12.5" ry="12.5" style="stroke:#181818;stroke-width:0.5;" width="197.4277" x="478.64" y="643.3555"/><text fill="#000000" font-family="sans-serif" font-size="12" lengthAdjust="spacing" textLength="42.668" x="488.64" y="665.8125">&#9989; &#37325;&#36830;!</text><text fill="#000000" font-family="sans-serif" font-size="12" lengthAdjust="spacing" textLength="3.334" x="488.64" y="680.9063">&#160;</text><text fill="#000000" font-family="sans-serif" font-size="12" lengthAdjust="spacing" textLength="123.0352" x="488.64" y="696">:&#26356;&#26032; lastActivity = now</text><text fill="#000000" font-family="sans-serif" font-size="12" lengthAdjust="spacing" textLength="177.4277" x="488.64" y="711.0938">playerDao.update(existingPlayer)</text><rect fill="#F1F1F1" height="80.375" rx="12.5" ry="12.5" style="stroke:#181818;stroke-width:0.5;" width="140" x="507.3539" y="758.7305"/><text fill="#000000" font-family="sans-serif" font-size="12" lengthAdjust="spacing" textLength="120" x="517.3539" y="781.1875">&#21516;&#27493;&#20869;&#23384;&#20013;&#30340;&#29609;&#23478;&#23545;&#35937;</text><text fill="#000000" font-family="sans-serif" font-size="12" lengthAdjust="spacing" textLength="3.334" x="517.3539" y="796.2813">&#160;</text><text fill="#000000" font-family="sans-serif" font-size="12" lengthAdjust="spacing" textLength="51.334" x="517.3539" y="811.375">:&#28155;&#21152;&#26085;&#24535;</text><text fill="#000000" font-family="sans-serif" font-size="12" lengthAdjust="spacing" textLength="83.8652" x="517.3539" y="826.4688">"XXX &#37325;&#26032;&#36830;&#25509;"</text><rect fill="#F1F1F1" height="50.1875" rx="12.5" ry="12.5" style="stroke:#181818;stroke-width:0.5;" width="160.0508" x="497.3285" y="859.1055"/><text fill="#000000" font-family="sans-serif" font-size="12" lengthAdjust="spacing" textLength="140.0508" x="507.3285" y="881.5625">&#36820;&#22238; existingPlayer.getId()</text><text fill="#000000" font-family="sans-serif" font-size="12" lengthAdjust="spacing" textLength="84" x="507.3285" y="896.6563">&#36339;&#36716;&#21040;&#23545;&#24212;&#39029;&#38754;</text><ellipse cx="577.3539" cy="940.293" fill="none" rx="11" ry="11" style="stroke:#222222;stroke-width:1;"/><ellipse cx="577.3539" cy="940.293" fill="#222222" rx="6" ry="6" style="stroke:#222222;stroke-width:1;"/><rect fill="#F08080" height="35.0938" rx="12.5" ry="12.5" style="stroke:#181818;stroke-width:0.5;" width="194.0176" x="210.985" y="961.293"/><text fill="#000000" font-family="sans-serif" font-size="12" lengthAdjust="spacing" textLength="174.0176" x="220.985" y="983.75">PLAYING &#25110; FINISHED (&#28216;&#25103;&#20013;)</text><polygon fill="#F1F1F1" points="255.4349,1016.3867,360.5526,1016.3867,372.5526,1028.3867,360.5526,1040.3867,255.4349,1040.3867,243.4349,1028.3867,255.4349,1016.3867" style="stroke:#181818;stroke-width:0.5;"/><text fill="#000000" font-family="sans-serif" font-size="11" lengthAdjust="spacing" textLength="105.1177" x="255.4349" y="1032.8877">&#21516;&#21517;&#29609;&#23478;&#23384;&#22312;&#20110;&#25151;&#38388;?</text><text fill="#000000" font-family="sans-serif" font-size="11" lengthAdjust="spacing" textLength="11" x="232.4349" y="1025.9697">&#21542;</text><text fill="#000000" font-family="sans-serif" font-size="11" lengthAdjust="spacing" textLength="11" x="372.5526" y="1025.9697">&#26159;</text><rect fill="#F1F1F1" height="65.2813" rx="12.5" ry="12.5" style="stroke:#181818;stroke-width:0.5;" width="208.5195" x="11" y="1050.3867"/><text fill="#000000" font-family="sans-serif" font-size="12" lengthAdjust="spacing" textLength="63.334" x="21" y="1072.8438">&#10060; &#25298;&#32477;&#21152;&#20837;</text><text fill="#000000" font-family="sans-serif" font-size="12" lengthAdjust="spacing" textLength="51.334" x="21" y="1087.9375">&#25243;&#20986;&#24322;&#24120;:</text><text fill="#000000" font-family="sans-serif" font-size="12" lengthAdjust="spacing" textLength="188.5195" x="21" y="1103.0313">"&#35813;&#26165;&#31216;&#19981;&#22312;&#25151;&#38388;&#20013;&#65292;&#26080;&#27861;&#37325;&#26032;&#21152;&#20837;"</text><ellipse cx="115.2598" cy="1161.668" fill="none" rx="11" ry="11" style="stroke:#222222;stroke-width:1;"/><ellipse cx="115.2598" cy="1161.668" fill="#222222" rx="6" ry="6" style="stroke:#222222;stroke-width:1;"/><polygon fill="#F1F1F1" points="464.6689,1050.3867,536.7866,1050.3867,548.7866,1064.2227,536.7866,1078.0586,464.6689,1078.0586,452.6689,1064.2227,464.6689,1050.3867" style="stroke:#181818;stroke-width:0.5;"/><text fill="#000000" font-family="sans-serif" font-size="11" lengthAdjust="spacing" textLength="70.9199" x="464.6689" y="1061.8057">isPlayerOnline</text><text fill="#000000" font-family="sans-serif" font-size="11" lengthAdjust="spacing" textLength="72.1177" x="464.6689" y="1075.6416">&#21516;&#21517;&#29609;&#23478;&#22312;&#32447;?</text><text fill="#000000" font-family="sans-serif" font-size="11" lengthAdjust="spacing" textLength="11" x="441.6689" y="1061.8057">&#26159;</text><text fill="#000000" font-family="sans-serif" font-size="11" lengthAdjust="spacing" textLength="11" x="548.7866" y="1061.8057">&#21542;</text><rect fill="#F1F1F1" height="65.2813" rx="12.5" ry="12.5" style="stroke:#181818;stroke-width:0.5;" width="208.5195" x="249.5195" y="1088.0586"/><text fill="#000000" font-family="sans-serif" font-size="12" lengthAdjust="spacing" textLength="63.334" x="259.5195" y="1110.5156">&#10060; &#25298;&#32477;&#21152;&#20837;</text><text fill="#000000" font-family="sans-serif" font-size="12" lengthAdjust="spacing" textLength="51.334" x="259.5195" y="1125.6094">&#25243;&#20986;&#24322;&#24120;:</text><text fill="#000000" font-family="sans-serif" font-size="12" lengthAdjust="spacing" textLength="188.5195" x="259.5195" y="1140.7031">"&#35813;&#26165;&#31216;&#30340;&#29609;&#23478;&#24403;&#21069;&#22312;&#32447;&#65292;&#26080;&#27861;&#21152;&#20837;"</text><ellipse cx="353.7793" cy="1199.3398" fill="none" rx="11" ry="11" style="stroke:#222222;stroke-width:1;"/><ellipse cx="353.7793" cy="1199.3398" fill="#222222" rx="6" ry="6" style="stroke:#222222;stroke-width:1;"/><rect fill="#F1F1F1" height="80.375" rx="12.5" ry="12.5" style="stroke:#181818;stroke-width:0.5;" width="197.4277" x="548.9624" y="1088.0586"/><text fill="#000000" font-family="sans-serif" font-size="12" lengthAdjust="spacing" textLength="42.668" x="558.9624" y="1110.5156">&#9989; &#37325;&#36830;!</text><text fill="#000000" font-family="sans-serif" font-size="12" lengthAdjust="spacing" textLength="3.334" x="558.9624" y="1125.6094">&#160;</text><text fill="#000000" font-family="sans-serif" font-size="12" lengthAdjust="spacing" textLength="123.0352" x="558.9624" y="1140.7031">:&#26356;&#26032; lastActivity = now</text><text fill="#000000" font-family="sans-serif" font-size="12" lengthAdjust="spacing" textLength="177.4277" x="558.9624" y="1155.7969">playerDao.update(existingPlayer)</text><rect fill="#F1F1F1" height="80.375" rx="12.5" ry="12.5" style="stroke:#181818;stroke-width:0.5;" width="140" x="577.6763" y="1203.4336"/><text fill="#000000" font-family="sans-serif" font-size="12" lengthAdjust="spacing" textLength="120" x="587.6763" y="1225.8906">&#21516;&#27493;&#20869;&#23384;&#20013;&#30340;&#29609;&#23478;&#23545;&#35937;</text><text fill="#000000" font-family="sans-serif" font-size="12" lengthAdjust="spacing" textLength="3.334" x="587.6763" y="1240.9844">&#160;</text><text fill="#000000" font-family="sans-serif" font-size="12" lengthAdjust="spacing" textLength="51.334" x="587.6763" y="1256.0781">:&#28155;&#21152;&#26085;&#24535;</text><text fill="#000000" font-family="sans-serif" font-size="12" lengthAdjust="spacing" textLength="83.8652" x="587.6763" y="1271.1719">"XXX &#37325;&#26032;&#36830;&#25509;"</text><rect fill="#F1F1F1" height="35.0938" rx="12.5" ry="12.5" style="stroke:#181818;stroke-width:0.5;" width="160.0508" x="567.6509" y="1303.8086"/><text fill="#000000" font-family="sans-serif" font-size="12" lengthAdjust="spacing" textLength="140.0508" x="577.6509" y="1326.2656">&#36820;&#22238; existingPlayer.getId()</text><polygon fill="#F1F1F1" points="588.084,1358.9023,707.2686,1358.9023,719.2686,1370.9023,707.2686,1382.9023,588.084,1382.9023,576.084,1370.9023,588.084,1358.9023" style="stroke:#181818;stroke-width:0.5;"/><text fill="#000000" font-family="sans-serif" font-size="11" lengthAdjust="spacing" textLength="119.1846" x="588.084" y="1375.4033">&#25151;&#38388;&#29366;&#24577;?) is (PLAYING</text><text fill="#000000" font-family="sans-serif" font-size="11" lengthAdjust="spacing" textLength="51.3369" x="719.2686" y="1368.4854">FINISHED</text><rect fill="#F1F1F1" height="50.1875" rx="12.5" ry="12.5" style="stroke:#181818;stroke-width:0.5;" width="156.0898" x="488.0391" y="1392.9023"/><text fill="#000000" font-family="sans-serif" font-size="12" lengthAdjust="spacing" textLength="48" x="498.0391" y="1415.3594">&#37325;&#23450;&#21521;&#21040;</text><text fill="#000000" font-family="sans-serif" font-size="12" lengthAdjust="spacing" textLength="136.0898" x="498.0391" y="1430.4531">/game/{roomId}/{playerId}</text><rect fill="#F1F1F1" height="35.0938" rx="12.5" ry="12.5" style="stroke:#181818;stroke-width:0.5;" width="104" x="677.2686" y="1392.9023"/><text fill="#000000" font-family="sans-serif" font-size="12" lengthAdjust="spacing" textLength="84" x="687.2686" y="1415.3594">&#37325;&#23450;&#21521;&#21040;&#32467;&#26524;&#39029;</text><polygon fill="#F1F1F1" points="647.6763,1449.0898,659.6763,1461.0898,647.6763,1473.0898,635.6763,1461.0898,647.6763,1449.0898" style="stroke:#181818;stroke-width:0.5;"/><ellipse cx="647.6763" cy="1504.0898" fill="none" rx="11" ry="11" style="stroke:#222222;stroke-width:1;"/><ellipse cx="647.6763" cy="1504.0898" fill="#222222" rx="6" ry="6" style="stroke:#222222;stroke-width:1;"/><rect fill="#F1F1F1" height="50.1875" rx="12.5" ry="12.5" style="stroke:#181818;stroke-width:0.5;" width="100.5195" x="791.2686" y="501.5898"/><text fill="#000000" font-family="sans-serif" font-size="12" lengthAdjust="spacing" textLength="48" x="801.2686" y="524.0469">&#25243;&#20986;&#24322;&#24120;</text><text fill="#000000" font-family="sans-serif" font-size="12" lengthAdjust="spacing" textLength="80.5195" x="801.2686" y="539.1406">"&#25151;&#38388;&#29366;&#24577;&#24322;&#24120;"</text><ellipse cx="841.5283" cy="597.7773" fill="none" rx="11" ry="11" style="stroke:#222222;stroke-width:1;"/><ellipse cx="841.5283" cy="597.7773" fill="#222222" rx="6" ry="6" style="stroke:#222222;stroke-width:1;"/><line style="stroke:#181818;stroke-width:1;" x1="594.761" x2="594.761" y1="68.6094" y2="88.6094"/><polygon fill="#181818" points="590.761,78.6094,594.761,88.6094,598.761,78.6094,594.761,82.6094" style="stroke:#181818;stroke-width:1;"/><line style="stroke:#181818;stroke-width:1;" x1="594.761" x2="594.761" y1="257.9023" y2="278.3086"/><polygon fill="#181818" points="590.761,268.3086,594.761,278.3086,598.761,268.3086,594.761,272.3086" style="stroke:#181818;stroke-width:1;"/><line style="stroke:#181818;stroke-width:1;" x1="594.761" x2="594.761" y1="182.7969" y2="207.7148"/><polygon fill="#181818" points="590.761,197.7148,594.761,207.7148,598.761,197.7148,594.761,201.7148" style="stroke:#181818;stroke-width:1;"/><line style="stroke:#181818;stroke-width:1;" x1="642.8199" x2="654.8199" y1="170.7969" y2="170.7969"/><polygon fill="#181818" points="650.8199,248.3086,654.8199,258.3086,658.8199,248.3086,654.8199,252.3086" style="stroke:#181818;stroke-width:1;"/><line style="stroke:#181818;stroke-width:1;" x1="654.8199" x2="654.8199" y1="170.7969" y2="322.3086"/><line style="stroke:#181818;stroke-width:1;" x1="654.8199" x2="594.761" y1="322.3086" y2="322.3086"/><line style="stroke:#181818;stroke-width:1;" x1="594.761" x2="594.761" y1="322.3086" y2="342.3086"/><polygon fill="#181818" points="590.761,332.3086,594.761,342.3086,598.761,332.3086,594.761,336.3086" style="stroke:#181818;stroke-width:1;"/><line style="stroke:#181818;stroke-width:1;" x1="594.761" x2="594.761" y1="138.7969" y2="158.7969"/><polygon fill="#181818" points="590.761,148.7969,594.761,158.7969,598.761,148.7969,594.761,152.7969" style="stroke:#181818;stroke-width:1;"/><line style="stroke:#181818;stroke-width:1;" x1="594.761" x2="594.761" y1="392.4961" y2="412.4961"/><polygon fill="#181818" points="590.761,402.4961,594.761,412.4961,598.761,402.4961,594.761,406.4961" style="stroke:#181818;stroke-width:1;"/><line style="stroke:#181818;stroke-width:1;" x1="150.1205" x2="150.1205" y1="655.8711" y2="690.8711"/><polygon fill="#181818" points="146.1205,680.8711,150.1205,690.8711,154.1205,680.8711,150.1205,684.8711" style="stroke:#181818;stroke-width:1;"/><line style="stroke:#181818;stroke-width:1;" x1="354.3802" x2="354.3802" y1="708.6367" y2="743.6367"/><polygon fill="#181818" points="350.3802,733.6367,354.3802,743.6367,358.3802,733.6367,354.3802,737.6367" style="stroke:#181818;stroke-width:1;"/><line style="stroke:#181818;stroke-width:1;" x1="577.3539" x2="577.3539" y1="723.7305" y2="758.7305"/><polygon fill="#181818" points="573.3539,748.7305,577.3539,758.7305,581.3539,748.7305,577.3539,752.7305" style="stroke:#181818;stroke-width:1;"/><line style="stroke:#181818;stroke-width:1;" x1="577.3539" x2="577.3539" y1="839.1055" y2="859.1055"/><polygon fill="#181818" points="573.3539,849.1055,577.3539,859.1055,581.3539,849.1055,577.3539,853.1055" style="stroke:#181818;stroke-width:1;"/><line style="stroke:#181818;stroke-width:1;" x1="577.3539" x2="577.3539" y1="909.293" y2="929.293"/><polygon fill="#181818" points="573.3539,919.293,577.3539,929.293,581.3539,919.293,577.3539,923.293" style="stroke:#181818;stroke-width:1;"/><line style="stroke:#181818;stroke-width:1;" x1="417.8082" x2="354.3802" y1="619.5195" y2="619.5195"/><line style="stroke:#181818;stroke-width:1;" x1="354.3802" x2="354.3802" y1="619.5195" y2="643.3555"/><polygon fill="#181818" points="350.3802,633.3555,354.3802,643.3555,358.3802,633.3555,354.3802,637.3555" style="stroke:#181818;stroke-width:1;"/><line style="stroke:#181818;stroke-width:1;" x1="513.9259" x2="577.3539" y1="619.5195" y2="619.5195"/><line style="stroke:#181818;stroke-width:1;" x1="577.3539" x2="577.3539" y1="619.5195" y2="643.3555"/><polygon fill="#181818" points="573.3539,633.3555,577.3539,643.3555,581.3539,633.3555,577.3539,637.3555" style="stroke:#181818;stroke-width:1;"/><line style="stroke:#181818;stroke-width:1;" x1="259.9349" x2="150.1205" y1="583.6836" y2="583.6836"/><line style="stroke:#181818;stroke-width:1;" x1="150.1205" x2="150.1205" y1="583.6836" y2="605.6836"/><polygon fill="#181818" points="146.1205,595.6836,150.1205,605.6836,154.1205,595.6836,150.1205,599.6836" style="stroke:#181818;stroke-width:1;"/><line style="stroke:#181818;stroke-width:1;" x1="356.0526" x2="465.8671" y1="583.6836" y2="583.6836"/><line style="stroke:#181818;stroke-width:1;" x1="465.8671" x2="465.8671" y1="583.6836" y2="605.6836"/><polygon fill="#181818" points="461.8671,595.6836,465.8671,605.6836,469.8671,595.6836,465.8671,599.6836" style="stroke:#181818;stroke-width:1;"/><line style="stroke:#181818;stroke-width:1;" x1="307.9938" x2="307.9938" y1="536.6836" y2="571.6836"/><polygon fill="#181818" points="303.9938,561.6836,307.9938,571.6836,311.9938,561.6836,307.9938,565.6836" style="stroke:#181818;stroke-width:1;"/><line style="stroke:#181818;stroke-width:1;" x1="115.2598" x2="115.2598" y1="1115.668" y2="1150.668"/><polygon fill="#181818" points="111.2598,1140.668,115.2598,1150.668,119.2598,1140.668,115.2598,1144.668" style="stroke:#181818;stroke-width:1;"/><line style="stroke:#181818;stroke-width:1;" x1="353.7793" x2="353.7793" y1="1153.3398" y2="1188.3398"/><polygon fill="#181818" points="349.7793,1178.3398,353.7793,1188.3398,357.7793,1178.3398,353.7793,1182.3398" style="stroke:#181818;stroke-width:1;"/><line style="stroke:#181818;stroke-width:1;" x1="647.6763" x2="647.6763" y1="1168.4336" y2="1203.4336"/><polygon fill="#181818" points="643.6763,1193.4336,647.6763,1203.4336,651.6763,1193.4336,647.6763,1197.4336" style="stroke:#181818;stroke-width:1;"/><line style="stroke:#181818;stroke-width:1;" x1="647.6763" x2="647.6763" y1="1283.8086" y2="1303.8086"/><polygon fill="#181818" points="643.6763,1293.8086,647.6763,1303.8086,651.6763,1293.8086,647.6763,1297.8086" style="stroke:#181818;stroke-width:1;"/><line style="stroke:#181818;stroke-width:1;" x1="576.084" x2="566.084" y1="1370.9023" y2="1370.9023"/><line style="stroke:#181818;stroke-width:1;" x1="566.084" x2="566.084" y1="1370.9023" y2="1392.9023"/><polygon fill="#181818" points="562.084,1382.9023,566.084,1392.9023,570.084,1382.9023,566.084,1386.9023" style="stroke:#181818;stroke-width:1;"/><line style="stroke:#181818;stroke-width:1;" x1="719.2686" x2="729.2686" y1="1370.9023" y2="1370.9023"/><line style="stroke:#181818;stroke-width:1;" x1="729.2686" x2="729.2686" y1="1370.9023" y2="1392.9023"/><polygon fill="#181818" points="725.2686,1382.9023,729.2686,1392.9023,733.2686,1382.9023,729.2686,1386.9023" style="stroke:#181818;stroke-width:1;"/><line style="stroke:#181818;stroke-width:1;" x1="566.084" x2="566.084" y1="1443.0898" y2="1461.0898"/><line style="stroke:#181818;stroke-width:1;" x1="566.084" x2="635.6763" y1="1461.0898" y2="1461.0898"/><polygon fill="#181818" points="625.6763,1457.0898,635.6763,1461.0898,625.6763,1465.0898,629.6763,1461.0898" style="stroke:#181818;stroke-width:1;"/><line style="stroke:#181818;stroke-width:1;" x1="729.2686" x2="729.2686" y1="1427.9961" y2="1461.0898"/><line style="stroke:#181818;stroke-width:1;" x1="729.2686" x2="659.6763" y1="1461.0898" y2="1461.0898"/><polygon fill="#181818" points="669.6763,1457.0898,659.6763,1461.0898,669.6763,1465.0898,665.6763,1461.0898" style="stroke:#181818;stroke-width:1;"/><line style="stroke:#181818;stroke-width:1;" x1="647.6763" x2="647.6763" y1="1338.9023" y2="1358.9023"/><polygon fill="#181818" points="643.6763,1348.9023,647.6763,1358.9023,651.6763,1348.9023,647.6763,1352.9023" style="stroke:#181818;stroke-width:1;"/><line style="stroke:#181818;stroke-width:1;" x1="647.6763" x2="647.6763" y1="1473.0898" y2="1493.0898"/><polygon fill="#181818" points="643.6763,1483.0898,647.6763,1493.0898,651.6763,1483.0898,647.6763,1487.0898" style="stroke:#181818;stroke-width:1;"/><line style="stroke:#181818;stroke-width:1;" x1="452.6689" x2="353.7793" y1="1064.2227" y2="1064.2227"/><line style="stroke:#181818;stroke-width:1;" x1="353.7793" x2="353.7793" y1="1064.2227" y2="1088.0586"/><polygon fill="#181818" points="349.7793,1078.0586,353.7793,1088.0586,357.7793,1078.0586,353.7793,1082.0586" style="stroke:#181818;stroke-width:1;"/><line style="stroke:#181818;stroke-width:1;" x1="548.7866" x2="647.6763" y1="1064.2227" y2="1064.2227"/><line style="stroke:#181818;stroke-width:1;" x1="647.6763" x2="647.6763" y1="1064.2227" y2="1088.0586"/><polygon fill="#181818" points="643.6763,1078.0586,647.6763,1088.0586,651.6763,1078.0586,647.6763,1082.0586" style="stroke:#181818;stroke-width:1;"/><line style="stroke:#181818;stroke-width:1;" x1="243.4349" x2="115.2598" y1="1028.3867" y2="1028.3867"/><line style="stroke:#181818;stroke-width:1;" x1="115.2598" x2="115.2598" y1="1028.3867" y2="1050.3867"/><polygon fill="#181818" points="111.2598,1040.3867,115.2598,1050.3867,119.2598,1040.3867,115.2598,1044.3867" style="stroke:#181818;stroke-width:1;"/><line style="stroke:#181818;stroke-width:1;" x1="372.5526" x2="500.7278" y1="1028.3867" y2="1028.3867"/><line style="stroke:#181818;stroke-width:1;" x1="500.7278" x2="500.7278" y1="1028.3867" y2="1050.3867"/><polygon fill="#181818" points="496.7278,1040.3867,500.7278,1050.3867,504.7278,1040.3867,500.7278,1044.3867" style="stroke:#181818;stroke-width:1;"/><line style="stroke:#181818;stroke-width:1;" x1="307.9938" x2="307.9938" y1="996.3867" y2="1016.3867"/><polygon fill="#181818" points="303.9938,1006.3867,307.9938,1016.3867,311.9938,1006.3867,307.9938,1010.3867" style="stroke:#181818;stroke-width:1;"/><line style="stroke:#181818;stroke-width:1;" x1="841.5283" x2="841.5283" y1="551.7773" y2="586.7773"/><polygon fill="#181818" points="837.5283,576.7773,841.5283,586.7773,845.5283,576.7773,841.5283,580.7773" style="stroke:#181818;stroke-width:1;"/><line style="stroke:#181818;stroke-width:1;" x1="557.7022" x2="307.9938" y1="479.5898" y2="479.5898"/><line style="stroke:#181818;stroke-width:1;" x1="307.9938" x2="307.9938" y1="479.5898" y2="501.5898"/><polygon fill="#181818" points="303.9938,491.5898,307.9938,501.5898,311.9938,491.5898,307.9938,495.5898" style="stroke:#181818;stroke-width:1;"/><line style="stroke:#181818;stroke-width:1;" x1="631.8199" x2="841.5283" y1="479.5898" y2="479.5898"/><line style="stroke:#181818;stroke-width:1;" x1="841.5283" x2="841.5283" y1="479.5898" y2="501.5898"/><polygon fill="#181818" points="837.5283,491.5898,841.5283,501.5898,845.5283,491.5898,841.5283,495.5898" style="stroke:#181818;stroke-width:1;"/><line style="stroke:#181818;stroke-width:1;" x1="594.761" x2="594.761" y1="447.5898" y2="467.5898"/><polygon fill="#181818" points="590.761,457.5898,594.761,467.5898,598.761,457.5898,594.761,461.5898" style="stroke:#181818;stroke-width:1;"/><!--SRC=[xLRRJXD16BxVfnZhXRitzBuD8IYAJGWGCH4JRXgwbDKoIxhh0Oa9DHOAjAMSsaeBWbgfYQKOADGMwBlepkpsobTmTgUdGLfv0FPYCplp7xx_c_-RMLLIVIBGez_GmKbr8M9KTd0Xe6UN0VzCbk0ZMPu2w22CDu_H_96UY-FTLO7Z5DNjLpa7BgmO-o7q8Gk6XqOU0xlfmU6Lc5Rw0lp4q-K1Q2qCe3J-7BgdH2V7IHE0nw5ADN6CataK-ufoIPJEzWX0KW1FlWMWJegG0-HnuAKKMYYXitUeMBHcRDHJAqQecyrfJIkgFCs9FaKaePDvWHEXHvhWE8TMZeA-km1_pE35YpeUhRWy1bjperWOnIAqVWBGKTq8e8CjcWdmoWmSd_JBK7eZUWG6lxvqWkS2FIs0xu1kym5FUbsFNOFzW5hGISlWze3adLJx_Q887NKZNiyjeekWLim9j1hhPQPf1TQ19afLxZCX2Itjec26RjyOHA4KAfTm_926-3qNgArRy9qDPui-Sz12ONtDn24fmpxtZEWVWZu9YYHkAwvqLYzLQhXCJnQNXUtNTXZWvJMzl4tpCwkjU-nWLcn6FeEJ1Nt_KDzwNyjsleuM8pJddxCmJkpYeqqQrEPad1irDUioMRi4B1q4jEDlCGki5KuT4mw1pwselUEgz59IPq0tWF8hncpQegZFBNUzcFQuLP4NNqkAAa4lvKvmTiX02CMv39eFabqcVT0iD__J-B7N2TffcLIF4nbKIR3SZOwEcgKHuAQUevVfOSCObGsKsW4iuYwlgBeyF4kPSNfad7z7eKC23PKsgdk5wlQdJinRIcH7Z5I61tgVcYgmWmUkGTV8m_jzxLHpJ_QxVOwwFGx5cnuyBXPnQELQ4j9AKTh_xRNKjb-lxjLcdvhdKZfRFwDoZGwb6_5FdzxexaPtxNNNmV6AEyXiWvesMBAjH0GHkT9GR9KeTmpQlUGgji_I-_2jVPPII8PiIhfxTP7z9wfUNiSxQN8UN8hHKFtrZuTQrmHFj79SwFmZGCkdyyo_W1NjBm00]--></g></svg>