<svg xmlns="http://www.w3.org/2000/svg" xmlns:xlink="http://www.w3.org/1999/xlink" contentStyleType="text/css" height="1428px" preserveAspectRatio="none" style="width:1008px;height:1428px;background:#FFFFFF;" version="1.1" viewBox="0 0 1008 1428" width="1008px" zoomAndPan="magnify"><title>&#26029;&#32447;&#26816;&#27979;&#19982;&#25151;&#38388;&#28165;&#29702;&#26102;&#24207;&#22270; (@Scheduled fixedRate=5000)</title><defs/><g><text fill="#000000" font-family="sans-serif" font-size="14" font-weight="bold" lengthAdjust="spacing" textLength="377.1387" x="311.8594" y="29.5332">&#26029;&#32447;&#26816;&#27979;&#19982;&#25151;&#38388;&#28165;&#29702;&#26102;&#24207;&#22270; (@Scheduled fixedRate=5000)</text><rect fill="none" height="884.4844" style="stroke:#000000;stroke-width:1.5;" width="833.1675" x="10" y="258.625"/><rect fill="none" height="244.4844" style="stroke:#000000;stroke-width:1.5;" width="575.814" x="127.8848" y="370.6797"/><rect fill="none" height="90.7266" style="stroke:#000000;stroke-width:1.5;" width="249.1938" x="137.8848" y="517.4375"/><rect fill="none" height="78.0547" style="stroke:#000000;stroke-width:1.5;" width="307.478" x="75" y="629.1641"/><rect fill="none" height="414.8906" style="stroke:#000000;stroke-width:1.5;" width="813.1675" x="20" y="721.2188"/><rect fill="none" height="382.5391" style="stroke:#000000;stroke-width:1.5;" width="793.1675" x="30" y="746.5703"/><rect fill="none" height="215.7813" style="stroke:#000000;stroke-width:1.5;" width="773.1675" x="40" y="906.3281"/><rect fill="none" height="100.8906" style="stroke:#000000;stroke-width:1.5;" width="747.1675" x="56" y="962.0313"/><rect fill="none" height="175.1094" style="stroke:#000000;stroke-width:1.5;" width="971.8574" x="20" y="1157.1094"/><line style="stroke:#181818;stroke-width:0.5;stroke-dasharray:5.0,5.0;" x1="66" x2="66" y1="107.2188" y2="1349.2188"/><line style="stroke:#181818;stroke-width:0.5;stroke-dasharray:5.0,5.0;" x1="229.8848" x2="229.8848" y1="107.2188" y2="1349.2188"/><line style="stroke:#181818;stroke-width:0.5;stroke-dasharray:5.0,5.0;" x1="424.7036" x2="424.7036" y1="107.2188" y2="1349.2188"/><line style="stroke:#181818;stroke-width:0.5;stroke-dasharray:5.0,5.0;" x1="669.4644" x2="669.4644" y1="107.2188" y2="1349.2188"/><line style="stroke:#181818;stroke-width:0.5;stroke-dasharray:5.0,5.0;" x1="747.6987" x2="747.6987" y1="107.2188" y2="1349.2188"/><line style="stroke:#181818;stroke-width:0.5;stroke-dasharray:5.0,5.0;" x1="942.0508" x2="942.0508" y1="107.2188" y2="1349.2188"/><rect fill="#E2E2F0" height="49.2188" rx="2.5" ry="2.5" style="stroke:#181818;stroke-width:0.5;" width="94.377" x="19" y="57"/><text fill="#000000" font-family="sans-serif" font-size="14" lengthAdjust="spacing" textLength="40.4688" x="45.9541" y="78.5332">Spring</text><text fill="#000000" font-family="sans-serif" font-size="14" lengthAdjust="spacing" textLength="80.377" x="26" y="96.1426">@Scheduled</text><rect fill="#E2E2F0" height="49.2188" rx="2.5" ry="2.5" style="stroke:#181818;stroke-width:0.5;" width="94.377" x="19" y="1348.2188"/><text fill="#000000" font-family="sans-serif" font-size="14" lengthAdjust="spacing" textLength="40.4688" x="45.9541" y="1369.752">Spring</text><text fill="#000000" font-family="sans-serif" font-size="14" lengthAdjust="spacing" textLength="80.377" x="26" y="1387.3613">@Scheduled</text><rect fill="#E2E2F0" height="49.2188" rx="2.5" ry="2.5" style="stroke:#181818;stroke-width:0.5;" width="164.958" x="147.8848" y="57"/><text fill="#000000" font-family="sans-serif" font-size="14" lengthAdjust="spacing" textLength="84.8066" x="187.9604" y="78.5332">GameService</text><text fill="#000000" font-family="sans-serif" font-size="14" lengthAdjust="spacing" textLength="150.958" x="154.8848" y="96.1426">cleanupInactiveRooms()</text><rect fill="#E2E2F0" height="49.2188" rx="2.5" ry="2.5" style="stroke:#181818;stroke-width:0.5;" width="164.958" x="147.8848" y="1348.2188"/><text fill="#000000" font-family="sans-serif" font-size="14" lengthAdjust="spacing" textLength="84.8066" x="187.9604" y="1369.752">GameService</text><text fill="#000000" font-family="sans-serif" font-size="14" lengthAdjust="spacing" textLength="150.958" x="154.8848" y="1387.3613">cleanupInactiveRooms()</text><rect fill="#E2E2F0" height="31.6094" rx="2.5" ry="2.5" style="stroke:#181818;stroke-width:0.5;" width="79.3652" x="385.7036" y="74.6094"/><text fill="#000000" font-family="sans-serif" font-size="14" lengthAdjust="spacing" textLength="65.3652" x="392.7036" y="96.1426">PlayerDao</text><rect fill="#E2E2F0" height="31.6094" rx="2.5" ry="2.5" style="stroke:#181818;stroke-width:0.5;" width="79.3652" x="385.7036" y="1348.2188"/><text fill="#000000" font-family="sans-serif" font-size="14" lengthAdjust="spacing" textLength="65.3652" x="392.7036" y="1369.752">PlayerDao</text><text fill="#000000" font-family="sans-serif" font-size="14" lengthAdjust="spacing" textLength="41.2344" x="646.4644" y="104.1426">H2 DB</text><path d="M652.0815,53.6094 C652.0815,43.6094 670.0815,43.6094 670.0815,43.6094 C670.0815,43.6094 688.0815,43.6094 688.0815,53.6094 L688.0815,79.6094 C688.0815,89.6094 670.0815,89.6094 670.0815,89.6094 C670.0815,89.6094 652.0815,89.6094 652.0815,79.6094 L652.0815,53.6094 " fill="#E2E2F0" style="stroke:#181818;stroke-width:1.5;"/><path d="M652.0815,53.6094 C652.0815,63.6094 670.0815,63.6094 670.0815,63.6094 C670.0815,63.6094 688.0815,63.6094 688.0815,53.6094 " fill="none" style="stroke:#181818;stroke-width:1.5;"/><text fill="#000000" font-family="sans-serif" font-size="14" lengthAdjust="spacing" textLength="41.2344" x="646.4644" y="1362.752">H2 DB</text><path d="M652.0815,1375.8281 C652.0815,1365.8281 670.0815,1365.8281 670.0815,1365.8281 C670.0815,1365.8281 688.0815,1365.8281 688.0815,1375.8281 L688.0815,1401.8281 C688.0815,1411.8281 670.0815,1411.8281 670.0815,1411.8281 C670.0815,1411.8281 652.0815,1411.8281 652.0815,1401.8281 L652.0815,1375.8281 " fill="#E2E2F0" style="stroke:#181818;stroke-width:1.5;"/><path d="M652.0815,1375.8281 C652.0815,1385.8281 670.0815,1385.8281 670.0815,1385.8281 C670.0815,1385.8281 688.0815,1385.8281 688.0815,1375.8281 " fill="none" style="stroke:#181818;stroke-width:1.5;"/><rect fill="#E2E2F0" height="49.2188" rx="2.5" ry="2.5" style="stroke:#181818;stroke-width:0.5;" width="89.4688" x="703.6987" y="57"/><text fill="#000000" font-family="sans-serif" font-size="14" lengthAdjust="spacing" textLength="75.4688" x="710.6987" y="78.5332">GameRoom</text><text fill="#000000" font-family="sans-serif" font-size="14" lengthAdjust="spacing" textLength="68.4482" x="714.209" y="96.1426">(&#20869;&#23384; Map)</text><rect fill="#E2E2F0" height="49.2188" rx="2.5" ry="2.5" style="stroke:#181818;stroke-width:0.5;" width="89.4688" x="703.6987" y="1348.2188"/><text fill="#000000" font-family="sans-serif" font-size="14" lengthAdjust="spacing" textLength="75.4688" x="710.6987" y="1369.752">GameRoom</text><text fill="#000000" font-family="sans-serif" font-size="14" lengthAdjust="spacing" textLength="68.4482" x="714.209" y="1387.3613">(&#20869;&#23384; Map)</text><rect fill="#E2E2F0" height="31.6094" rx="2.5" ry="2.5" style="stroke:#181818;stroke-width:0.5;" width="77.8066" x="904.0508" y="74.6094"/><text fill="#000000" font-family="sans-serif" font-size="14" lengthAdjust="spacing" textLength="63.8066" x="911.0508" y="96.1426">GameDao</text><rect fill="#E2E2F0" height="31.6094" rx="2.5" ry="2.5" style="stroke:#181818;stroke-width:0.5;" width="77.8066" x="904.0508" y="1348.2188"/><text fill="#000000" font-family="sans-serif" font-size="14" lengthAdjust="spacing" textLength="63.8066" x="911.0508" y="1369.752">GameDao</text><rect fill="#EEEEEE" height="3" style="stroke:#EEEEEE;stroke-width:1;" width="1001.8574" x="0" y="138.3945"/><line style="stroke:#000000;stroke-width:1;" x1="0" x2="1001.8574" y1="138.3945" y2="138.3945"/><line style="stroke:#000000;stroke-width:1;" x1="0" x2="1001.8574" y1="141.3945" y2="141.3945"/><rect fill="#EEEEEE" height="24.3516" style="stroke:#000000;stroke-width:2;" width="124.7729" x="438.5422" y="127.2188"/><text fill="#000000" font-family="sans-serif" font-size="13" font-weight="bold" lengthAdjust="spacing" textLength="107.1611" x="444.5422" y="144.7139">&#23450;&#26102;&#35302;&#21457; (&#27599; 5 &#31186;)</text><polygon fill="#181818" points="218.3638,179.9219,228.3638,183.9219,218.3638,187.9219,222.3638,183.9219" style="stroke:#181818;stroke-width:1;"/><line style="stroke:#181818;stroke-width:1;" x1="66.1885" x2="224.3638" y1="183.9219" y2="183.9219"/><text fill="#000000" font-family="sans-serif" font-size="13" lengthAdjust="spacing" textLength="140.1753" x="73.1885" y="179.0654">cleanupInactiveRooms()</text><line style="stroke:#181818;stroke-width:1;" x1="230.3638" x2="272.3638" y1="230.625" y2="230.625"/><line style="stroke:#181818;stroke-width:1;" x1="272.3638" x2="272.3638" y1="230.625" y2="243.625"/><line style="stroke:#181818;stroke-width:1;" x1="231.3638" x2="272.3638" y1="243.625" y2="243.625"/><polygon fill="#181818" points="241.3638,239.625,231.3638,243.625,241.3638,247.625,237.3638,243.625" style="stroke:#181818;stroke-width:1;"/><text fill="#000000" font-family="sans-serif" font-size="13" lengthAdjust="spacing" textLength="180.2925" x="237.3638" y="209.417">inactiveThreshold = now - 120s</text><text fill="#000000" font-family="sans-serif" font-size="13" lengthAdjust="spacing" textLength="181.0225" x="237.3638" y="225.7686">disconnectThreshold = 5000ms</text><path d="M10,258.625 L82.4346,258.625 L82.4346,266.9766 L72.4346,276.9766 L10,276.9766 L10,258.625 " fill="#EEEEEE" style="stroke:#000000;stroke-width:1.5;"/><rect fill="none" height="884.4844" style="stroke:#000000;stroke-width:1.5;" width="833.1675" x="10" y="258.625"/><text fill="#000000" font-family="sans-serif" font-size="13" font-weight="bold" lengthAdjust="spacing" textLength="27.4346" x="25" y="273.1201">loop</text><text fill="#000000" font-family="sans-serif" font-size="11" font-weight="bold" lengthAdjust="spacing" textLength="151.5186" x="97.4346" y="272.0439">[&#36941;&#21382; rooms Map &#20013;&#27599;&#20010;&#25151;&#38388;]</text><line style="stroke:#181818;stroke-width:1;" x1="230.3638" x2="272.3638" y1="299.3281" y2="299.3281"/><line style="stroke:#181818;stroke-width:1;" x1="272.3638" x2="272.3638" y1="299.3281" y2="312.3281"/><line style="stroke:#181818;stroke-width:1;" x1="231.3638" x2="272.3638" y1="312.3281" y2="312.3281"/><polygon fill="#181818" points="241.3638,308.3281,231.3638,312.3281,241.3638,316.3281,237.3638,312.3281" style="stroke:#181818;stroke-width:1;"/><text fill="#000000" font-family="sans-serif" font-size="13" lengthAdjust="spacing" textLength="151.3535" x="237.3638" y="294.4717">room = rooms.get(roomId)</text><line style="stroke:#181818;stroke-width:1;" x1="230.3638" x2="272.3638" y1="342.6797" y2="342.6797"/><line style="stroke:#181818;stroke-width:1;" x1="272.3638" x2="272.3638" y1="342.6797" y2="355.6797"/><line style="stroke:#181818;stroke-width:1;" x1="231.3638" x2="272.3638" y1="355.6797" y2="355.6797"/><polygon fill="#181818" points="241.3638,351.6797,231.3638,355.6797,241.3638,359.6797,237.3638,355.6797" style="stroke:#181818;stroke-width:1;"/><text fill="#000000" font-family="sans-serif" font-size="13" lengthAdjust="spacing" textLength="95.0244" x="237.3638" y="337.8232">allInactive = true</text><path d="M127.8848,370.6797 L200.3193,370.6797 L200.3193,379.0313 L190.3193,389.0313 L127.8848,389.0313 L127.8848,370.6797 " fill="#EEEEEE" style="stroke:#000000;stroke-width:1.5;"/><rect fill="none" height="244.4844" style="stroke:#000000;stroke-width:1.5;" width="575.814" x="127.8848" y="370.6797"/><text fill="#000000" font-family="sans-serif" font-size="13" font-weight="bold" lengthAdjust="spacing" textLength="27.4346" x="142.8848" y="385.1748">loop</text><text fill="#000000" font-family="sans-serif" font-size="11" font-weight="bold" lengthAdjust="spacing" textLength="109.4199" x="215.3193" y="384.0986">[&#26816;&#26597;&#25151;&#38388;&#20869;&#27599;&#20010;&#29609;&#23478;]</text><polygon fill="#181818" points="413.3862,407.3828,423.3862,411.3828,413.3862,415.3828,417.3862,411.3828" style="stroke:#181818;stroke-width:1;"/><line style="stroke:#181818;stroke-width:1;" x1="230.3638" x2="419.3862" y1="411.3828" y2="411.3828"/><text fill="#000000" font-family="sans-serif" font-size="13" lengthAdjust="spacing" textLength="101.8799" x="237.3638" y="406.5264">findById(playerId)</text><polygon fill="#181818" points="658.0815,437.7344,668.0815,441.7344,658.0815,445.7344,662.0815,441.7344" style="stroke:#181818;stroke-width:1;"/><line style="stroke:#181818;stroke-width:1;" x1="425.3862" x2="664.0815" y1="441.7344" y2="441.7344"/><text fill="#000000" font-family="sans-serif" font-size="13" lengthAdjust="spacing" textLength="220.6953" x="432.3862" y="436.8779">SELECT * FROM player WHERE id=?</text><polygon fill="#181818" points="436.3862,468.0859,426.3862,472.0859,436.3862,476.0859,432.3862,472.0859" style="stroke:#181818;stroke-width:1;"/><line style="stroke:#181818;stroke-width:1;stroke-dasharray:2.0,2.0;" x1="430.3862" x2="669.0815" y1="472.0859" y2="472.0859"/><text fill="#000000" font-family="sans-serif" font-size="13" lengthAdjust="spacing" textLength="127.1309" x="442.3862" y="467.2295">Player (&#21547; lastActivity)</text><polygon fill="#181818" points="241.3638,498.4375,231.3638,502.4375,241.3638,506.4375,237.3638,502.4375" style="stroke:#181818;stroke-width:1;"/><line style="stroke:#181818;stroke-width:1;stroke-dasharray:2.0,2.0;" x1="235.3638" x2="424.3862" y1="502.4375" y2="502.4375"/><text fill="#000000" font-family="sans-serif" font-size="13" lengthAdjust="spacing" textLength="51.3081" x="247.3638" y="497.5811">dbPlayer</text><path d="M137.8848,517.4375 L198.0557,517.4375 L198.0557,525.7891 L188.0557,535.7891 L137.8848,535.7891 L137.8848,517.4375 " fill="#EEEEEE" style="stroke:#000000;stroke-width:1.5;"/><rect fill="none" height="90.7266" style="stroke:#000000;stroke-width:1.5;" width="249.1938" x="137.8848" y="517.4375"/><text fill="#000000" font-family="sans-serif" font-size="13" font-weight="bold" lengthAdjust="spacing" textLength="15.1709" x="152.8848" y="531.9326">alt</text><text fill="#000000" font-family="sans-serif" font-size="11" font-weight="bold" lengthAdjust="spacing" textLength="117.0469" x="213.0557" y="530.8564">[lastActivity != null &amp;&amp;</text><text fill="#000000" font-family="sans-serif" font-size="11" font-weight="bold" lengthAdjust="spacing" textLength="169.0229" x="213.0557" y="544.6924">lastActivity &gt; inactiveThreshold]</text><line style="stroke:#181818;stroke-width:1;" x1="230.3638" x2="272.3638" y1="587.1641" y2="587.1641"/><line style="stroke:#181818;stroke-width:1;" x1="272.3638" x2="272.3638" y1="587.1641" y2="600.1641"/><line style="stroke:#181818;stroke-width:1;" x1="231.3638" x2="272.3638" y1="600.1641" y2="600.1641"/><polygon fill="#181818" points="241.3638,596.1641,231.3638,600.1641,241.3638,604.1641,237.3638,600.1641" style="stroke:#181818;stroke-width:1;"/><text fill="#000000" font-family="sans-serif" font-size="13" lengthAdjust="spacing" textLength="100.0835" x="237.3638" y="565.9561">allInactive = false</text><text fill="#000000" font-family="sans-serif" font-size="13" lengthAdjust="spacing" textLength="106.8882" x="237.3638" y="582.3076">(&#33267;&#23569;1&#20154;&#36817;&#26399;&#27963;&#36291;)</text><path d="M75,629.1641 L135.1709,629.1641 L135.1709,637.5156 L125.1709,647.5156 L75,647.5156 L75,629.1641 " fill="#EEEEEE" style="stroke:#000000;stroke-width:1.5;"/><rect fill="none" height="78.0547" style="stroke:#000000;stroke-width:1.5;" width="307.478" x="75" y="629.1641"/><text fill="#000000" font-family="sans-serif" font-size="13" font-weight="bold" lengthAdjust="spacing" textLength="15.1709" x="90" y="643.6592">alt</text><text fill="#000000" font-family="sans-serif" font-size="11" font-weight="bold" lengthAdjust="spacing" textLength="100.2622" x="150.1709" y="642.583">[allInactive == true]</text><line style="stroke:#181818;stroke-width:1;" x1="230.3638" x2="272.3638" y1="686.2188" y2="686.2188"/><line style="stroke:#181818;stroke-width:1;" x1="272.3638" x2="272.3638" y1="686.2188" y2="699.2188"/><line style="stroke:#181818;stroke-width:1;" x1="231.3638" x2="272.3638" y1="699.2188" y2="699.2188"/><polygon fill="#181818" points="241.3638,695.2188,231.3638,699.2188,241.3638,703.2188,237.3638,699.2188" style="stroke:#181818;stroke-width:1;"/><text fill="#000000" font-family="sans-serif" font-size="13" lengthAdjust="spacing" textLength="133.6689" x="237.3638" y="665.0107">toRemove.add(roomId)</text><text fill="#000000" font-family="sans-serif" font-size="13" lengthAdjust="spacing" textLength="114.1118" x="237.3638" y="681.3623">(&#20840;&#21592; 2 &#20998;&#38047;&#26080;&#27963;&#21160;)</text><path d="M85,664.1914 L85,690.1914 L224,690.1914 L224,674.1914 L214,664.1914 L85,664.1914 " fill="#FFB6C1" style="stroke:#181818;stroke-width:0.5;"/><path d="M214,664.1914 L214,674.1914 L224,674.1914 L214,664.1914 " fill="#FFB6C1" style="stroke:#181818;stroke-width:0.5;"/><text fill="#000000" font-family="sans-serif" font-size="13" lengthAdjust="spacing" textLength="118.8091" x="91" y="682.6865">&#128308; &#25151;&#38388;&#26631;&#35760;&#20026;&#24453;&#28165;&#29702;</text><path d="M20,721.2188 L80.1709,721.2188 L80.1709,729.5703 L70.1709,739.5703 L20,739.5703 L20,721.2188 " fill="#EEEEEE" style="stroke:#000000;stroke-width:1.5;"/><rect fill="none" height="414.8906" style="stroke:#000000;stroke-width:1.5;" width="813.1675" x="20" y="721.2188"/><text fill="#000000" font-family="sans-serif" font-size="13" font-weight="bold" lengthAdjust="spacing" textLength="15.1709" x="35" y="735.7139">alt</text><text fill="#000000" font-family="sans-serif" font-size="11" font-weight="bold" lengthAdjust="spacing" textLength="148.5645" x="95.1709" y="734.6377">[room.status == "PLAYING"]</text><path d="M30,746.5703 L102.4346,746.5703 L102.4346,754.9219 L92.4346,764.9219 L30,764.9219 L30,746.5703 " fill="#EEEEEE" style="stroke:#000000;stroke-width:1.5;"/><rect fill="none" height="382.5391" style="stroke:#000000;stroke-width:1.5;" width="793.1675" x="30" y="746.5703"/><text fill="#000000" font-family="sans-serif" font-size="13" font-weight="bold" lengthAdjust="spacing" textLength="27.4346" x="45" y="761.0654">loop</text><text fill="#000000" font-family="sans-serif" font-size="11" font-weight="bold" lengthAdjust="spacing" textLength="75.3887" x="117.4346" y="759.9893">[&#26816;&#26597;&#27599;&#20010;&#29609;&#23478;]</text><polygon fill="#181818" points="413.3862,783.2734,423.3862,787.2734,413.3862,791.2734,417.3862,787.2734" style="stroke:#181818;stroke-width:1;"/><line style="stroke:#181818;stroke-width:1;" x1="230.3638" x2="419.3862" y1="787.2734" y2="787.2734"/><text fill="#000000" font-family="sans-serif" font-size="13" lengthAdjust="spacing" textLength="104.0444" x="237.3638" y="782.417">findById(p.getId())</text><polygon fill="#181818" points="658.0815,813.625,668.0815,817.625,658.0815,821.625,662.0815,817.625" style="stroke:#181818;stroke-width:1;"/><line style="stroke:#181818;stroke-width:1;" x1="425.3862" x2="664.0815" y1="817.625" y2="817.625"/><text fill="#000000" font-family="sans-serif" font-size="13" lengthAdjust="spacing" textLength="196.4854" x="432.3862" y="812.7686">SELECT lastActivity FROM player</text><polygon fill="#181818" points="436.3862,843.9766,426.3862,847.9766,436.3862,851.9766,432.3862,847.9766" style="stroke:#181818;stroke-width:1;"/><line style="stroke:#181818;stroke-width:1;stroke-dasharray:2.0,2.0;" x1="430.3862" x2="669.0815" y1="847.9766" y2="847.9766"/><text fill="#000000" font-family="sans-serif" font-size="13" lengthAdjust="spacing" textLength="61.4009" x="442.3862" y="843.1201">lastActivity</text><line style="stroke:#181818;stroke-width:1;" x1="230.3638" x2="272.3638" y1="878.3281" y2="878.3281"/><line style="stroke:#181818;stroke-width:1;" x1="272.3638" x2="272.3638" y1="878.3281" y2="891.3281"/><line style="stroke:#181818;stroke-width:1;" x1="231.3638" x2="272.3638" y1="891.3281" y2="891.3281"/><polygon fill="#181818" points="241.3638,887.3281,231.3638,891.3281,241.3638,895.3281,237.3638,891.3281" style="stroke:#181818;stroke-width:1;"/><text fill="#000000" font-family="sans-serif" font-size="13" lengthAdjust="spacing" textLength="131.8535" x="237.3638" y="873.4717">idle = now - lastActivity</text><path d="M40,906.3281 L100.1709,906.3281 L100.1709,914.6797 L90.1709,924.6797 L40,924.6797 L40,906.3281 " fill="#EEEEEE" style="stroke:#000000;stroke-width:1.5;"/><rect fill="none" height="215.7813" style="stroke:#000000;stroke-width:1.5;" width="773.1675" x="40" y="906.3281"/><text fill="#000000" font-family="sans-serif" font-size="13" font-weight="bold" lengthAdjust="spacing" textLength="15.1709" x="55" y="920.8232">alt</text><text fill="#000000" font-family="sans-serif" font-size="11" font-weight="bold" lengthAdjust="spacing" textLength="152.3994" x="115.1709" y="919.7471">[idle &gt; 5000ms (5&#31186;&#26029;&#32447;&#38408;&#20540;)]</text><polygon fill="#181818" points="736.4331,943.0313,746.4331,947.0313,736.4331,951.0313,740.4331,947.0313" style="stroke:#181818;stroke-width:1;"/><line style="stroke:#181818;stroke-width:1;" x1="230.3638" x2="742.4331" y1="947.0313" y2="947.0313"/><text fill="#000000" font-family="sans-serif" font-size="13" lengthAdjust="spacing" textLength="239.9351" x="237.3638" y="942.1748">disconnectedLogged.contains(p.getId()) ?</text><path d="M56,962.0313 L116.1709,962.0313 L116.1709,970.3828 L106.1709,980.3828 L56,980.3828 L56,962.0313 " fill="#EEEEEE" style="stroke:#000000;stroke-width:1.5;"/><rect fill="none" height="100.8906" style="stroke:#000000;stroke-width:1.5;" width="747.1675" x="56" y="962.0313"/><text fill="#000000" font-family="sans-serif" font-size="13" font-weight="bold" lengthAdjust="spacing" textLength="15.1709" x="71" y="976.5264">alt</text><text fill="#000000" font-family="sans-serif" font-size="11" font-weight="bold" lengthAdjust="spacing" textLength="52.7012" x="131.1709" y="975.4502">[&#26410;&#35760;&#24405;&#36807;]</text><polygon fill="#181818" points="736.4331,998.7344,746.4331,1002.7344,736.4331,1006.7344,740.4331,1002.7344" style="stroke:#181818;stroke-width:1;"/><line style="stroke:#181818;stroke-width:1;" x1="230.3638" x2="742.4331" y1="1002.7344" y2="1002.7344"/><text fill="#000000" font-family="sans-serif" font-size="13" lengthAdjust="spacing" textLength="142.8921" x="237.3638" y="997.8779">addLog("XXX &#24322;&#24120;&#26029;&#24320;")</text><polygon fill="#181818" points="736.4331,1032.0859,746.4331,1036.0859,736.4331,1040.0859,740.4331,1036.0859" style="stroke:#181818;stroke-width:1;"/><line style="stroke:#181818;stroke-width:1;" x1="230.3638" x2="742.4331" y1="1036.0859" y2="1036.0859"/><text fill="#000000" font-family="sans-serif" font-size="13" lengthAdjust="spacing" textLength="202.3633" x="237.3638" y="1031.2295">disconnectedLogged.add(p.getId())</text><path d="M66,1015.7344 L66,1041.7344 L225,1041.7344 L225,1025.7344 L215,1015.7344 L66,1015.7344 " fill="#FFD700" style="stroke:#181818;stroke-width:0.5;"/><path d="M215,1015.7344 L215,1025.7344 L225,1025.7344 L215,1015.7344 " fill="#FFD700" style="stroke:#181818;stroke-width:0.5;"/><text fill="#000000" font-family="sans-serif" font-size="13" lengthAdjust="spacing" textLength="138.3091" x="72" y="1034.2295">&#9888;&#65039; &#20889;&#20837;&#26029;&#32447;&#26085;&#24535; (&#20165;1&#27425;)</text><line style="stroke:#000000;stroke-width:1;stroke-dasharray:2.0,2.0;" x1="56" x2="803.1675" y1="1048.0859" y2="1048.0859"/><text fill="#000000" font-family="sans-serif" font-size="11" font-weight="bold" lengthAdjust="spacing" textLength="41.3574" x="61" y="1059.5049">[&#24050;&#35760;&#24405;]</text><line style="stroke:#000000;stroke-width:1;stroke-dasharray:2.0,2.0;" x1="40" x2="813.1675" y1="1070.9219" y2="1070.9219"/><text fill="#000000" font-family="sans-serif" font-size="11" font-weight="bold" lengthAdjust="spacing" textLength="130.0181" x="45" y="1082.3408">[idle &lt;= 5000ms (&#24050;&#24674;&#22797;)]</text><polygon fill="#181818" points="736.4331,1107.1094,746.4331,1111.1094,736.4331,1115.1094,740.4331,1111.1094" style="stroke:#181818;stroke-width:1;"/><line style="stroke:#181818;stroke-width:1;" x1="230.3638" x2="742.4331" y1="1111.1094" y2="1111.1094"/><text fill="#000000" font-family="sans-serif" font-size="13" lengthAdjust="spacing" textLength="224.0215" x="237.3638" y="1106.2529">disconnectedLogged.remove(p.getId())</text><path d="M50,1090.7578 L50,1116.7578 L224,1116.7578 L224,1100.7578 L214,1090.7578 L50,1090.7578 " fill="#90EE90" style="stroke:#181818;stroke-width:0.5;"/><path d="M214,1090.7578 L214,1100.7578 L224,1100.7578 L214,1090.7578 " fill="#90EE90" style="stroke:#181818;stroke-width:0.5;"/><text fill="#000000" font-family="sans-serif" font-size="13" lengthAdjust="spacing" textLength="153.8354" x="56" y="1109.2529">&#9989; &#29609;&#23478;&#24674;&#22797;, &#28165;&#38500;&#26029;&#32447;&#26631;&#35760;</text><path d="M20,1157.1094 L92.4346,1157.1094 L92.4346,1165.4609 L82.4346,1175.4609 L20,1175.4609 L20,1157.1094 " fill="#EEEEEE" style="stroke:#000000;stroke-width:1.5;"/><rect fill="none" height="175.1094" style="stroke:#000000;stroke-width:1.5;" width="971.8574" x="20" y="1157.1094"/><text fill="#000000" font-family="sans-serif" font-size="13" font-weight="bold" lengthAdjust="spacing" textLength="27.4346" x="35" y="1171.6045">loop</text><text fill="#000000" font-family="sans-serif" font-size="11" font-weight="bold" lengthAdjust="spacing" textLength="111.9927" x="107.4346" y="1170.5283">[&#36941;&#21382; toRemove &#21015;&#34920;]</text><line style="stroke:#181818;stroke-width:1;" x1="230.3638" x2="272.3638" y1="1197.8125" y2="1197.8125"/><line style="stroke:#181818;stroke-width:1;" x1="272.3638" x2="272.3638" y1="1197.8125" y2="1210.8125"/><line style="stroke:#181818;stroke-width:1;" x1="231.3638" x2="272.3638" y1="1210.8125" y2="1210.8125"/><polygon fill="#181818" points="241.3638,1206.8125,231.3638,1210.8125,241.3638,1214.8125,237.3638,1210.8125" style="stroke:#181818;stroke-width:1;"/><text fill="#000000" font-family="sans-serif" font-size="13" lengthAdjust="spacing" textLength="130.7808" x="237.3638" y="1192.9561">cleanupRoomData(rid)</text><polygon fill="#181818" points="930.9541,1237.1641,940.9541,1241.1641,930.9541,1245.1641,934.9541,1241.1641" style="stroke:#181818;stroke-width:1;"/><line style="stroke:#181818;stroke-width:1;" x1="230.3638" x2="936.9541" y1="1241.1641" y2="1241.1641"/><text fill="#000000" font-family="sans-serif" font-size="13" lengthAdjust="spacing" textLength="104" x="237.3638" y="1236.3076">&#21024;&#38500;&#25151;&#38388;&#30456;&#20851;&#25968;&#25454;</text><polygon fill="#181818" points="681.0815,1283.8672,671.0815,1287.8672,681.0815,1291.8672,677.0815,1287.8672" style="stroke:#181818;stroke-width:1;"/><line style="stroke:#181818;stroke-width:1;" x1="675.0815" x2="941.9541" y1="1287.8672" y2="1287.8672"/><text fill="#000000" font-family="sans-serif" font-size="13" lengthAdjust="spacing" textLength="248.8726" x="687.0815" y="1266.6592">DELETE FROM player WHERE room_id=?</text><text fill="#000000" font-family="sans-serif" font-size="13" lengthAdjust="spacing" textLength="245.9844" x="687.0815" y="1283.0107">DELETE FROM game_room WHERE id=?</text><polygon fill="#181818" points="736.4331,1317.2188,746.4331,1321.2188,736.4331,1325.2188,740.4331,1321.2188" style="stroke:#181818;stroke-width:1;"/><line style="stroke:#181818;stroke-width:1;" x1="230.3638" x2="742.4331" y1="1321.2188" y2="1321.2188"/><text fill="#000000" font-family="sans-serif" font-size="13" lengthAdjust="spacing" textLength="106.1836" x="237.3638" y="1316.3623">rooms.remove(rid)</text><path d="M30,1300.8672 L30,1326.8672 L224,1326.8672 L224,1310.8672 L214,1300.8672 L30,1300.8672 " fill="#FFB6C1" style="stroke:#181818;stroke-width:0.5;"/><path d="M214,1300.8672 L214,1310.8672 L224,1310.8672 L214,1300.8672 " fill="#FFB6C1" style="stroke:#181818;stroke-width:0.5;"/><text fill="#000000" font-family="sans-serif" font-size="13" lengthAdjust="spacing" textLength="173.7544" x="36" y="1319.3623">&#128465;&#65039; &#25151;&#38388;&#20869;&#23384;&#21644;DB&#25968;&#25454;&#20840;&#37096;&#28165;&#38500;</text><!--SRC=[dLPhJzjc5FxkNt6MIPqp5HIGsDHgeMkQq2BHhGf8OrAaoerVWYLZHx73nZTebKkxXJHeB9GYGRUoicumLXXaQTRyboglatnYFw7lnKviaeng-PBRSyvpBiyvnwPYgWYi7_URrRhryxBrrtUDoggLhxVBnrObqtoSjSedk5h4Jz-0-FbqV1x9QHN9CATyY-IePABWM20Gy0j2KagPIbn9Ife9lkbaIj4ICQrhu0F90ETRoek-AIsWQPHQLE8efiLL96dfvAGcnKrb4KLrVS4G_ToSOxp6TrHf2QN2aiuWv5sG9LEw9na8VBT68HpYluTwAQdhc2RYR0RlRy1jASbPwC-zO8V0_Ym8mI3WWqrIdDQBNt2n1ABrHn76eFbYpG_1eD195OR6dS3XAlJFJd007gnYWsRcKyYOrrKPWg3fty0GZ8m6Z9WcAqPSrpGKDzq8seu5Gn1KNKz2UwM0LxEGeZGqGsXKzacSZSfBtc41oAilEJKXtfZbS0AP8lqqAPD6KvEFO8YyWEjbvAosYJDxkBJHg1IiuzUjqmVmDhi6jdmO4SCFPfDKrIa98JLJQSImB0TAihtBtP1UyV2Rgx_YWnC6EkUKD8Sud5CqERGqAOj99WyQk8Eb08eB4TXqP2foOmO-XedebxU1O-6hMv5e11GvUArh4o89EBwvua34Zty3LJBCwpHknLmwH-59KBx7hJeGIJKznl01QMvQLU7IfPZc-MEyLmWTB-zPq3b9DSXeYQtS4JuiZJIgrLQzP6rjysPruqOQTqtV1ITAZojNSmPocteKBUYBQ5YIPKSsTCwOH60KS3xRNjksoZk47Z_Qwz9hkeb0HNCcV3Wn4VhanWXnzk_s3yTWhwETNElWi56fuZSPhYrli1vHZb9H5jOxKk4BxgoMRxpEm9sfwrzFVd4JcezEhEMLizh3hZnfnZJcOSEKpBH1C_RPS5ydKBSk-ydn0adIUIBlVh_7e8ykFJfmITHhvzQcs-9YbIYoYZfBnMFgiQKrOT1nUxk0E4Rs72zfUoEFbslULCuHqYr7Pw2phv0yfISII1uctqr9qGnNJU1QZolARssz9Ct7_wotwhaUG7y-8Zz28_fcPsS1r-xZIeL4Z6lBFlzxEkWJC9NqWFxrLN7uqq20U7gxkNDMAGBEFi6PNVlMbdTnlGmYqUE8zVkpNb-8p2pWqrSyxGkehaBhz8YKvZAqDrwrSmNyl83pf_ZFOgzRpRi-60thxcV1Jdi9hRNo4t7oF_kQOWlWlohbgjALG2HoXLLfAmFsj3Boo_I4j9yyjml6nbyOb8jxTx6LuAo3Xt-tSqM-B_YOko-Ziwl8KYgtdkqDlb3suQOfXydpXPXIx9FYGjlF1WIDypiqRhQscayhE7DahHzQXGDcuS2SOG-JOP-9z3b1T0_TfNSefhan2M9_bztdSvUgjpNyVDlTw8JSVy-MIrIYdJjBdedmslVX40-SBE_sWptU3bRUTm00]--></g></svg>