<svg xmlns="http://www.w3.org/2000/svg" xmlns:xlink="http://www.w3.org/1999/xlink" contentStyleType="text/css" height="2062px" preserveAspectRatio="none" style="width:1195px;height:2062px;background:#FFFFFF;" version="1.1" viewBox="0 0 1195 2062" width="1195px" zoomAndPan="magnify"><title>&#24515;&#36339;&#21608;&#26399;&#26102;&#24207;&#22270; &#8212; &#27491;&#24120;&#22312;&#32447; (&#20197; action.html 2s &#36718;&#35810;&#20026;&#20363;)</title><defs/><g><text fill="#000000" font-family="sans-serif" font-size="14" font-weight="bold" lengthAdjust="spacing" textLength="368.3408" x="409.7288" y="29.5332">&#24515;&#36339;&#21608;&#26399;&#26102;&#24207;&#22270; &#8212; &#27491;&#24120;&#22312;&#32447; (&#20197; action.html 2s &#36718;&#35810;&#20026;&#20363;)</text><rect fill="none" height="213.4609" style="stroke:#000000;stroke-width:1.5;" width="678.708" x="500.0903" y="576.4922"/><rect fill="none" height="134.1094" style="stroke:#000000;stroke-width:1.5;" width="588.5864" x="287.8706" y="1513.6875"/><line style="stroke:#181818;stroke-width:0.5;stroke-dasharray:5.0,5.0;" x1="29" x2="29" y1="121.2188" y2="1980.3125"/><line style="stroke:#181818;stroke-width:0.5;stroke-dasharray:5.0,5.0;" x1="156.3467" x2="156.3467" y1="121.2188" y2="1980.3125"/><line style="stroke:#181818;stroke-width:0.5;stroke-dasharray:5.0,5.0;" x1="337.8706" x2="337.8706" y1="121.2188" y2="1980.3125"/><line style="stroke:#181818;stroke-width:0.5;stroke-dasharray:5.0,5.0;" x1="566.0903" x2="566.0903" y1="121.2188" y2="1980.3125"/><line style="stroke:#181818;stroke-width:0.5;stroke-dasharray:5.0,5.0;" x1="734.9761" x2="734.9761" y1="121.2188" y2="1980.3125"/><line style="stroke:#181818;stroke-width:0.5;stroke-dasharray:5.0,5.0;" x1="899.8032" x2="899.8032" y1="121.2188" y2="1980.3125"/><line style="stroke:#181818;stroke-width:0.5;stroke-dasharray:5.0,5.0;" x1="1144.564" x2="1144.564" y1="121.2188" y2="1980.3125"/><text fill="#000000" font-family="sans-serif" font-size="14" lengthAdjust="spacing" textLength="42.3896" x="5" y="118.1426">&#129489; &#29609;&#23478;</text><ellipse cx="29.1948" cy="52.1094" fill="#E2E2F0" rx="8" ry="8" style="stroke:#181818;stroke-width:0.5;"/><path d="M29.1948,60.1094 L29.1948,87.1094 M16.1948,68.1094 L42.1948,68.1094 M29.1948,87.1094 L16.1948,102.1094 M29.1948,87.1094 L42.1948,102.1094 " fill="none" style="stroke:#181818;stroke-width:0.5;"/><text fill="#000000" font-family="sans-serif" font-size="14" lengthAdjust="spacing" textLength="42.3896" x="5" y="1993.8457">&#129489; &#29609;&#23478;</text><ellipse cx="29.1948" cy="2005.4219" fill="#E2E2F0" rx="8" ry="8" style="stroke:#181818;stroke-width:0.5;"/><path d="M29.1948,2013.4219 L29.1948,2040.4219 M16.1948,2021.4219 L42.1948,2021.4219 M29.1948,2040.4219 L16.1948,2055.4219 M29.1948,2040.4219 L42.1948,2055.4219 " fill="none" style="stroke:#181818;stroke-width:0.5;"/><rect fill="#E2E2F0" height="49.2188" rx="2.5" ry="2.5" style="stroke:#181818;stroke-width:0.5;" width="81.6963" x="116.3467" y="71"/><text fill="#000000" font-family="sans-serif" font-size="14" lengthAdjust="spacing" textLength="42" x="136.1948" y="92.5332">&#27983;&#35272;&#22120;</text><text fill="#000000" font-family="sans-serif" font-size="14" lengthAdjust="spacing" textLength="67.6963" x="123.3467" y="110.1426">action.html</text><rect fill="#E2E2F0" height="49.2188" rx="2.5" ry="2.5" style="stroke:#181818;stroke-width:0.5;" width="81.6963" x="116.3467" y="1979.3125"/><text fill="#000000" font-family="sans-serif" font-size="14" lengthAdjust="spacing" textLength="42" x="136.1948" y="2000.8457">&#27983;&#35272;&#22120;</text><text fill="#000000" font-family="sans-serif" font-size="14" lengthAdjust="spacing" textLength="67.6963" x="123.3467" y="2018.4551">action.html</text><rect fill="#E2E2F0" height="49.2188" rx="2.5" ry="2.5" style="stroke:#181818;stroke-width:0.5;" width="81.6826" x="297.8706" y="71"/><text fill="#000000" font-family="sans-serif" font-size="14" lengthAdjust="spacing" textLength="67.6826" x="304.8706" y="92.5332">common.js</text><text fill="#000000" font-family="sans-serif" font-size="14" lengthAdjust="spacing" textLength="58.3447" x="309.5396" y="110.1426">smartPoll</text><rect fill="#E2E2F0" height="49.2188" rx="2.5" ry="2.5" style="stroke:#181818;stroke-width:0.5;" width="81.6826" x="297.8706" y="1979.3125"/><text fill="#000000" font-family="sans-serif" font-size="14" lengthAdjust="spacing" textLength="67.6826" x="304.8706" y="2000.8457">common.js</text><text fill="#000000" font-family="sans-serif" font-size="14" lengthAdjust="spacing" textLength="58.3447" x="309.5396" y="2018.4551">smartPoll</text><rect fill="#E2E2F0" height="49.2188" rx="2.5" ry="2.5" style="stroke:#181818;stroke-width:0.5;" width="112.8135" x="510.0903" y="71"/><text fill="#000000" font-family="sans-serif" font-size="14" lengthAdjust="spacing" textLength="98.8135" x="517.0903" y="92.5332">GameController</text><text fill="#000000" font-family="sans-serif" font-size="14" lengthAdjust="spacing" textLength="58.3584" x="537.3179" y="110.1426">/api/room</text><rect fill="#E2E2F0" height="49.2188" rx="2.5" ry="2.5" style="stroke:#181818;stroke-width:0.5;" width="112.8135" x="510.0903" y="1979.3125"/><text fill="#000000" font-family="sans-serif" font-size="14" lengthAdjust="spacing" textLength="98.8135" x="517.0903" y="2000.8457">GameController</text><text fill="#000000" font-family="sans-serif" font-size="14" lengthAdjust="spacing" textLength="58.3584" x="537.3179" y="2018.4551">/api/room</text><rect fill="#E2E2F0" height="49.2188" rx="2.5" ry="2.5" style="stroke:#181818;stroke-width:0.5;" width="104.2617" x="682.9761" y="71"/><text fill="#000000" font-family="sans-serif" font-size="14" lengthAdjust="spacing" textLength="84.8066" x="692.7036" y="92.5332">GameService</text><text fill="#000000" font-family="sans-serif" font-size="14" lengthAdjust="spacing" textLength="90.2617" x="689.9761" y="110.1426">isPlayerOnline</text><rect fill="#E2E2F0" height="49.2188" rx="2.5" ry="2.5" style="stroke:#181818;stroke-width:0.5;" width="104.2617" x="682.9761" y="1979.3125"/><text fill="#000000" font-family="sans-serif" font-size="14" lengthAdjust="spacing" textLength="84.8066" x="692.7036" y="2000.8457">GameService</text><text fill="#000000" font-family="sans-serif" font-size="14" lengthAdjust="spacing" textLength="90.2617" x="689.9761" y="2018.4551">isPlayerOnline</text><rect fill="#E2E2F0" height="31.6094" rx="2.5" ry="2.5" style="stroke:#181818;stroke-width:0.5;" width="79.3652" x="860.8032" y="88.6094"/><text fill="#000000" font-family="sans-serif" font-size="14" lengthAdjust="spacing" textLength="65.3652" x="867.8032" y="110.1426">PlayerDao</text><rect fill="#E2E2F0" height="31.6094" rx="2.5" ry="2.5" style="stroke:#181818;stroke-width:0.5;" width="79.3652" x="860.8032" y="1979.3125"/><text fill="#000000" font-family="sans-serif" font-size="14" lengthAdjust="spacing" textLength="65.3652" x="867.8032" y="2000.8457">PlayerDao</text><text fill="#000000" font-family="sans-serif" font-size="14" lengthAdjust="spacing" textLength="41.2344" x="1121.564" y="118.1426">H2 DB</text><path d="M1127.1812,67.6094 C1127.1812,57.6094 1145.1812,57.6094 1145.1812,57.6094 C1145.1812,57.6094 1163.1812,57.6094 1163.1812,67.6094 L1163.1812,93.6094 C1163.1812,103.6094 1145.1812,103.6094 1145.1812,103.6094 C1145.1812,103.6094 1127.1812,103.6094 1127.1812,93.6094 L1127.1812,67.6094 " fill="#E2E2F0" style="stroke:#181818;stroke-width:1.5;"/><path d="M1127.1812,67.6094 C1127.1812,77.6094 1145.1812,77.6094 1145.1812,77.6094 C1145.1812,77.6094 1163.1812,77.6094 1163.1812,67.6094 " fill="none" style="stroke:#181818;stroke-width:1.5;"/><text fill="#000000" font-family="sans-serif" font-size="14" lengthAdjust="spacing" textLength="41.2344" x="1121.564" y="1993.8457">H2 DB</text><path d="M1127.1812,2006.9219 C1127.1812,1996.9219 1145.1812,1996.9219 1145.1812,1996.9219 C1145.1812,1996.9219 1163.1812,1996.9219 1163.1812,2006.9219 L1163.1812,2032.9219 C1163.1812,2042.9219 1145.1812,2042.9219 1145.1812,2042.9219 C1145.1812,2042.9219 1127.1812,2042.9219 1127.1812,2032.9219 L1127.1812,2006.9219 " fill="#E2E2F0" style="stroke:#181818;stroke-width:1.5;"/><path d="M1127.1812,2006.9219 C1127.1812,2016.9219 1145.1812,2016.9219 1145.1812,2016.9219 C1145.1812,2016.9219 1163.1812,2016.9219 1163.1812,2006.9219 " fill="none" style="stroke:#181818;stroke-width:1.5;"/><rect fill="#EEEEEE" height="3" style="stroke:#EEEEEE;stroke-width:1;" width="1188.7983" x="0" y="152.3945"/><line style="stroke:#000000;stroke-width:1;" x1="0" x2="1188.7983" y1="152.3945" y2="152.3945"/><line style="stroke:#000000;stroke-width:1;" x1="0" x2="1188.7983" y1="155.3945" y2="155.3945"/><rect fill="#EEEEEE" height="24.3516" style="stroke:#000000;stroke-width:2;" width="71.2368" x="558.7808" y="141.2188"/><text fill="#000000" font-family="sans-serif" font-size="13" font-weight="bold" lengthAdjust="spacing" textLength="53.625" x="564.7808" y="158.7139">&#21021;&#22987;&#21152;&#36733;</text><polygon fill="#181818" points="145.1948,193.9219,155.1948,197.9219,145.1948,201.9219,149.1948,197.9219" style="stroke:#181818;stroke-width:1;"/><line style="stroke:#181818;stroke-width:1;" x1="29.1948" x2="151.1948" y1="197.9219" y2="197.9219"/><text fill="#000000" font-family="sans-serif" font-size="13" lengthAdjust="spacing" textLength="93.9136" x="36.1948" y="193.0654">&#25171;&#24320; action &#39029;&#38754;</text><polygon fill="#181818" points="326.7119,240.625,336.7119,244.625,326.7119,248.625,330.7119,244.625" style="stroke:#181818;stroke-width:1;"/><line style="stroke:#181818;stroke-width:1;" x1="157.1948" x2="332.7119" y1="244.625" y2="244.625"/><text fill="#000000" font-family="sans-serif" font-size="13" lengthAdjust="spacing" textLength="157.5171" x="164.1948" y="223.417">smartPoll(fetchState, 2000)</text><text fill="#000000" font-family="sans-serif" font-size="13" lengthAdjust="spacing" textLength="79.4536" x="164.1948" y="239.7686">&#21551;&#21160; 2 &#31186;&#36718;&#35810;</text><line style="stroke:#181818;stroke-width:1;" x1="338.7119" x2="380.7119" y1="274.9766" y2="274.9766"/><line style="stroke:#181818;stroke-width:1;" x1="380.7119" x2="380.7119" y1="274.9766" y2="287.9766"/><line style="stroke:#181818;stroke-width:1;" x1="339.7119" x2="380.7119" y1="287.9766" y2="287.9766"/><polygon fill="#181818" points="349.7119,283.9766,339.7119,287.9766,349.7119,291.9766,345.7119,287.9766" style="stroke:#181818;stroke-width:1;"/><text fill="#000000" font-family="sans-serif" font-size="13" lengthAdjust="spacing" textLength="122.8081" x="345.7119" y="270.1201">fetchState() &#31435;&#21363;&#25191;&#34892;</text><polygon fill="#181818" points="554.4971,330.6797,564.4971,334.6797,554.4971,338.6797,558.4971,334.6797" style="stroke:#181818;stroke-width:1;"/><line style="stroke:#181818;stroke-width:1;" x1="338.7119" x2="560.4971" y1="334.6797" y2="334.6797"/><text fill="#000000" font-family="sans-serif" font-size="13" lengthAdjust="spacing" textLength="137.2808" x="345.7119" y="313.4717">GET /api/room/{roomId}</text><text fill="#000000" font-family="sans-serif" font-size="13" lengthAdjust="spacing" textLength="116.0034" x="345.7119" y="329.8232">?playerId={playerId}</text><line style="stroke:#181818;stroke-width:1;" x1="566.4971" x2="608.4971" y1="381.3828" y2="381.3828"/><line style="stroke:#181818;stroke-width:1;" x1="608.4971" x2="608.4971" y1="381.3828" y2="394.3828"/><line style="stroke:#181818;stroke-width:1;" x1="567.4971" x2="608.4971" y1="394.3828" y2="394.3828"/><polygon fill="#181818" points="577.4971,390.3828,567.4971,394.3828,577.4971,398.3828,573.4971,394.3828" style="stroke:#181818;stroke-width:1;"/><text fill="#000000" font-family="sans-serif" font-size="13" lengthAdjust="spacing" textLength="104" x="573.4971" y="360.1748">&#22312;&#25151;&#38388;&#29609;&#23478;&#21015;&#34920;&#20013;</text><text fill="#000000" font-family="sans-serif" font-size="13" lengthAdjust="spacing" textLength="78" x="573.4971" y="376.5264">&#26597;&#25214;&#24403;&#21069;&#29609;&#23478;</text><line style="stroke:#181818;stroke-width:1;" x1="566.4971" x2="608.4971" y1="441.0859" y2="441.0859"/><line style="stroke:#181818;stroke-width:1;" x1="608.4971" x2="608.4971" y1="441.0859" y2="454.0859"/><line style="stroke:#181818;stroke-width:1;" x1="567.4971" x2="608.4971" y1="454.0859" y2="454.0859"/><polygon fill="#181818" points="577.4971,450.0859,567.4971,454.0859,577.4971,458.0859,573.4971,454.0859" style="stroke:#181818;stroke-width:1;"/><text fill="#000000" font-family="sans-serif" font-size="13" lengthAdjust="spacing" textLength="154.6099" x="573.4971" y="419.8779">player.setLastActivity(now)</text><text fill="#000000" font-family="sans-serif" font-size="13" lengthAdjust="spacing" textLength="131.4473" x="573.4971" y="436.2295">[&#24515;&#36339;&#26680;&#24515;: &#26356;&#26032;&#26102;&#38388;&#25139;]</text><polygon fill="#181818" points="888.4858,480.4375,898.4858,484.4375,888.4858,488.4375,892.4858,484.4375" style="stroke:#181818;stroke-width:1;"/><line style="stroke:#181818;stroke-width:1;" x1="566.4971" x2="894.4858" y1="484.4375" y2="484.4375"/><text fill="#000000" font-family="sans-serif" font-size="13" lengthAdjust="spacing" textLength="146.6943" x="573.4971" y="479.5811">playerDao.update(player)</text><polygon fill="#181818" points="1133.1812,527.1406,1143.1812,531.1406,1133.1812,535.1406,1137.1812,531.1406" style="stroke:#181818;stroke-width:1;"/><line style="stroke:#181818;stroke-width:1;" x1="900.4858" x2="1139.1812" y1="531.1406" y2="531.1406"/><text fill="#000000" font-family="sans-serif" font-size="13" lengthAdjust="spacing" textLength="91.749" x="907.4858" y="509.9326">UPDATE player</text><text fill="#000000" font-family="sans-serif" font-size="13" lengthAdjust="spacing" textLength="112.3408" x="907.4858" y="526.2842">SET lastActivity = ?</text><polygon fill="#181818" points="911.4858,557.4922,901.4858,561.4922,911.4858,565.4922,907.4858,561.4922" style="stroke:#181818;stroke-width:1;"/><line style="stroke:#181818;stroke-width:1;stroke-dasharray:2.0,2.0;" x1="905.4858" x2="1144.1812" y1="561.4922" y2="561.4922"/><text fill="#000000" font-family="sans-serif" font-size="13" lengthAdjust="spacing" textLength="18.7827" x="917.4858" y="556.6357">OK</text><path d="M500.0903,576.4922 L572.5249,576.4922 L572.5249,584.8438 L562.5249,594.8438 L500.0903,594.8438 L500.0903,576.4922 " fill="#EEEEEE" style="stroke:#000000;stroke-width:1.5;"/><rect fill="none" height="213.4609" style="stroke:#000000;stroke-width:1.5;" width="678.708" x="500.0903" y="576.4922"/><text fill="#000000" font-family="sans-serif" font-size="13" font-weight="bold" lengthAdjust="spacing" textLength="27.4346" x="515.0903" y="590.9873">loop</text><text fill="#000000" font-family="sans-serif" font-size="11" font-weight="bold" lengthAdjust="spacing" textLength="120.7637" x="587.5249" y="589.9111">[&#23545;&#25151;&#38388;&#20869;&#27599;&#20010;&#20854;&#20182;&#29609;&#23478;]</text><polygon fill="#181818" points="888.4858,613.1953,898.4858,617.1953,888.4858,621.1953,892.4858,617.1953" style="stroke:#181818;stroke-width:1;"/><line style="stroke:#181818;stroke-width:1;" x1="566.4971" x2="894.4858" y1="617.1953" y2="617.1953"/><text fill="#000000" font-family="sans-serif" font-size="13" lengthAdjust="spacing" textLength="132.9517" x="573.4971" y="612.3389">findById(otherPlayerId)</text><polygon fill="#181818" points="1133.1812,643.5469,1143.1812,647.5469,1133.1812,651.5469,1137.1812,647.5469" style="stroke:#181818;stroke-width:1;"/><line style="stroke:#181818;stroke-width:1;" x1="900.4858" x2="1139.1812" y1="647.5469" y2="647.5469"/><text fill="#000000" font-family="sans-serif" font-size="13" lengthAdjust="spacing" textLength="220.6953" x="907.4858" y="642.6904">SELECT * FROM player WHERE id=?</text><polygon fill="#181818" points="911.4858,673.8984,901.4858,677.8984,911.4858,681.8984,907.4858,677.8984" style="stroke:#181818;stroke-width:1;"/><line style="stroke:#181818;stroke-width:1;stroke-dasharray:2.0,2.0;" x1="905.4858" x2="1144.1812" y1="677.8984" y2="677.8984"/><text fill="#000000" font-family="sans-serif" font-size="13" lengthAdjust="spacing" textLength="127.1309" x="917.4858" y="673.042">Player (&#21547; lastActivity)</text><polygon fill="#181818" points="723.1069,704.25,733.1069,708.25,723.1069,712.25,727.1069,708.25" style="stroke:#181818;stroke-width:1;"/><line style="stroke:#181818;stroke-width:1;" x1="566.4971" x2="729.1069" y1="708.25" y2="708.25"/><text fill="#000000" font-family="sans-serif" font-size="13" lengthAdjust="spacing" textLength="143.7808" x="573.4971" y="703.3936">isPlayerOnline(dbPlayer)</text><line style="stroke:#181818;stroke-width:1;" x1="735.1069" x2="777.1069" y1="738.6016" y2="738.6016"/><line style="stroke:#181818;stroke-width:1;" x1="777.1069" x2="777.1069" y1="738.6016" y2="751.6016"/><line style="stroke:#181818;stroke-width:1;" x1="736.1069" x2="777.1069" y1="751.6016" y2="751.6016"/><polygon fill="#181818" points="746.1069,747.6016,736.1069,751.6016,746.1069,755.6016,742.1069,751.6016" style="stroke:#181818;stroke-width:1;"/><text fill="#000000" font-family="sans-serif" font-size="13" lengthAdjust="spacing" textLength="151.3789" x="742.1069" y="733.7451">now - lastActivity &lt; 5000 ?</text><polygon fill="#181818" points="577.4971,777.9531,567.4971,781.9531,577.4971,785.9531,573.4971,781.9531" style="stroke:#181818;stroke-width:1;"/><line style="stroke:#181818;stroke-width:1;stroke-dasharray:2.0,2.0;" x1="571.4971" x2="734.1069" y1="781.9531" y2="781.9531"/><text fill="#000000" font-family="sans-serif" font-size="13" lengthAdjust="spacing" textLength="53.4727" x="583.4971" y="777.0967">true/false</text><polygon fill="#181818" points="349.7119,815.3047,339.7119,819.3047,349.7119,823.3047,345.7119,819.3047" style="stroke:#181818;stroke-width:1;"/><line style="stroke:#181818;stroke-width:1;stroke-dasharray:2.0,2.0;" x1="343.7119" x2="565.4971" y1="819.3047" y2="819.3047"/><text fill="#000000" font-family="sans-serif" font-size="13" lengthAdjust="spacing" textLength="203.7852" x="355.7119" y="814.4482">JSON { players: [{..., online: bool}] }</text><polygon fill="#181818" points="168.1948,862.0078,158.1948,866.0078,168.1948,870.0078,164.1948,866.0078" style="stroke:#181818;stroke-width:1;"/><line style="stroke:#181818;stroke-width:1;" x1="162.1948" x2="337.7119" y1="866.0078" y2="866.0078"/><text fill="#000000" font-family="sans-serif" font-size="13" lengthAdjust="spacing" textLength="133.6753" x="174.1948" y="844.7998">updatePlayers(players)</text><text fill="#000000" font-family="sans-serif" font-size="13" lengthAdjust="spacing" textLength="78" x="174.1948" y="861.1514">&#28210;&#26579;&#29609;&#23478;&#21345;&#29255;</text><line style="stroke:#181818;stroke-width:1;" x1="157.1948" x2="199.1948" y1="912.7109" y2="912.7109"/><line style="stroke:#181818;stroke-width:1;" x1="199.1948" x2="199.1948" y1="912.7109" y2="925.7109"/><line style="stroke:#181818;stroke-width:1;" x1="158.1948" x2="199.1948" y1="925.7109" y2="925.7109"/><polygon fill="#181818" points="168.1948,921.7109,158.1948,925.7109,168.1948,929.7109,164.1948,925.7109" style="stroke:#181818;stroke-width:1;"/><text fill="#000000" font-family="sans-serif" font-size="13" lengthAdjust="spacing" textLength="101.5435" x="164.1948" y="891.5029">&#33509; online===false</text><text fill="#000000" font-family="sans-serif" font-size="13" lengthAdjust="spacing" textLength="108.6909" x="164.1948" y="907.8545">&#26174;&#31034; &#128308; (&#26029;&#32447;) &#26631;&#35760;</text><line style="stroke:#181818;stroke-width:1;" x1="157.1948" x2="199.1948" y1="956.0625" y2="956.0625"/><line style="stroke:#181818;stroke-width:1;" x1="199.1948" x2="199.1948" y1="956.0625" y2="969.0625"/><line style="stroke:#181818;stroke-width:1;" x1="158.1948" x2="199.1948" y1="969.0625" y2="969.0625"/><polygon fill="#181818" points="168.1948,965.0625,158.1948,969.0625,168.1948,973.0625,164.1948,969.0625" style="stroke:#181818;stroke-width:1;"/><text fill="#000000" font-family="sans-serif" font-size="13" lengthAdjust="spacing" textLength="146.0088" x="164.1948" y="951.2061">updateLogs / updateChat</text><polygon fill="#181818" points="40.1948,995.4141,30.1948,999.4141,40.1948,1003.4141,36.1948,999.4141" style="stroke:#181818;stroke-width:1;"/><line style="stroke:#181818;stroke-width:1;stroke-dasharray:2.0,2.0;" x1="34.1948" x2="156.1948" y1="999.4141" y2="999.4141"/><text fill="#000000" font-family="sans-serif" font-size="13" lengthAdjust="spacing" textLength="104" x="46.1948" y="994.5576">&#26174;&#31034;&#26368;&#26032;&#28216;&#25103;&#29366;&#24577;</text><rect fill="#EEEEEE" height="3" style="stroke:#EEEEEE;stroke-width:1;" width="1188.7983" x="0" y="1028.5898"/><line style="stroke:#000000;stroke-width:1;" x1="0" x2="1188.7983" y1="1028.5898" y2="1028.5898"/><line style="stroke:#000000;stroke-width:1;" x1="0" x2="1188.7983" y1="1031.5898" y2="1031.5898"/><rect fill="#EEEEEE" height="24.3516" style="stroke:#000000;stroke-width:2;" width="124.7793" x="532.0095" y="1017.4141"/><text fill="#000000" font-family="sans-serif" font-size="13" font-weight="bold" lengthAdjust="spacing" textLength="107.1675" x="538.0095" y="1034.9092">&#31532;1&#27425;&#36718;&#35810; (2&#31186;&#21518;)</text><line style="stroke:#181818;stroke-width:1;" x1="338.7119" x2="380.7119" y1="1074.1172" y2="1074.1172"/><line style="stroke:#181818;stroke-width:1;" x1="380.7119" x2="380.7119" y1="1074.1172" y2="1087.1172"/><line style="stroke:#181818;stroke-width:1;" x1="339.7119" x2="380.7119" y1="1087.1172" y2="1087.1172"/><polygon fill="#181818" points="349.7119,1083.1172,339.7119,1087.1172,349.7119,1091.1172,345.7119,1087.1172" style="stroke:#181818;stroke-width:1;"/><text fill="#000000" font-family="sans-serif" font-size="13" lengthAdjust="spacing" textLength="116.3018" x="345.7119" y="1069.2607">setTimeout(2s) &#21040;&#26399;</text><polygon fill="#181818" points="554.4971,1129.8203,564.4971,1133.8203,554.4971,1137.8203,558.4971,1133.8203" style="stroke:#181818;stroke-width:1;"/><line style="stroke:#181818;stroke-width:1;" x1="338.7119" x2="560.4971" y1="1133.8203" y2="1133.8203"/><text fill="#000000" font-family="sans-serif" font-size="13" lengthAdjust="spacing" textLength="98.9727" x="345.7119" y="1112.6123">GET /api/room/...</text><text fill="#000000" font-family="sans-serif" font-size="13" lengthAdjust="spacing" textLength="59.2236" x="345.7119" y="1128.9639">[&#24515;&#36339;&#35831;&#27714;]</text><line style="stroke:#181818;stroke-width:1;" x1="566.4971" x2="608.4971" y1="1164.1719" y2="1164.1719"/><line style="stroke:#181818;stroke-width:1;" x1="608.4971" x2="608.4971" y1="1164.1719" y2="1177.1719"/><line style="stroke:#181818;stroke-width:1;" x1="567.4971" x2="608.4971" y1="1177.1719" y2="1177.1719"/><polygon fill="#181818" points="577.4971,1173.1719,567.4971,1177.1719,577.4971,1181.1719,573.4971,1177.1719" style="stroke:#181818;stroke-width:1;"/><text fill="#000000" font-family="sans-serif" font-size="13" lengthAdjust="spacing" textLength="100.0645" x="573.4971" y="1159.3154">lastActivity = now</text><polygon fill="#181818" points="888.4858,1214.6992,898.4858,1218.6992,888.4858,1222.6992,892.4858,1218.6992" style="stroke:#181818;stroke-width:1;"/><line style="stroke:#181818;stroke-width:1;" x1="566.4971" x2="894.4858" y1="1218.6992" y2="1218.6992"/><text fill="#000000" font-family="sans-serif" font-size="13" lengthAdjust="spacing" textLength="83.0908" x="573.4971" y="1213.8428">update (&#20889;DB)</text><path d="M905,1190.1719 L905,1232.1719 L1082,1232.1719 L1082,1200.1719 L1072,1190.1719 L905,1190.1719 " fill="#FEFFDD" style="stroke:#181818;stroke-width:0.5;"/><path d="M1072,1190.1719 L1072,1200.1719 L1082,1200.1719 L1072,1190.1719 " fill="#FEFFDD" style="stroke:#181818;stroke-width:0.5;"/><text fill="#000000" font-family="sans-serif" font-size="13" lengthAdjust="spacing" textLength="156.0127" x="911" y="1208.667">&#27599;&#27425;&#36718;&#35810;&#37117;&#26356;&#26032; lastActivity</text><text fill="#000000" font-family="sans-serif" font-size="13" lengthAdjust="spacing" textLength="78" x="911" y="1225.0186">&#20445;&#25345;&#22312;&#32447;&#29366;&#24577;</text><rect fill="#EEEEEE" height="3" style="stroke:#EEEEEE;stroke-width:1;" width="1188.7983" x="0" y="1259.0508"/><line style="stroke:#000000;stroke-width:1;" x1="0" x2="1188.7983" y1="1259.0508" y2="1259.0508"/><line style="stroke:#000000;stroke-width:1;" x1="0" x2="1188.7983" y1="1262.0508" y2="1262.0508"/><rect fill="#EEEEEE" height="24.3516" style="stroke:#000000;stroke-width:2;" width="221.2573" x="483.7705" y="1247.875"/><text fill="#000000" font-family="sans-serif" font-size="13" font-weight="bold" lengthAdjust="spacing" textLength="203.6455" x="489.7705" y="1265.3701">&#39029;&#38754;&#20999;&#25442;&#21040;&#21518;&#21488; (visibilitychange)</text><polygon fill="#181818" points="145.1948,1300.5781,155.1948,1304.5781,145.1948,1308.5781,149.1948,1304.5781" style="stroke:#181818;stroke-width:1;"/><line style="stroke:#181818;stroke-width:1;" x1="29.1948" x2="151.1948" y1="1304.5781" y2="1304.5781"/><text fill="#000000" font-family="sans-serif" font-size="13" lengthAdjust="spacing" textLength="91" x="36.1948" y="1299.7217">&#20999;&#21040;&#20854;&#20182;&#26631;&#31614;&#39029;</text><line style="stroke:#181818;stroke-width:1;" x1="338.7119" x2="380.7119" y1="1334.9297" y2="1334.9297"/><line style="stroke:#181818;stroke-width:1;" x1="380.7119" x2="380.7119" y1="1334.9297" y2="1347.9297"/><line style="stroke:#181818;stroke-width:1;" x1="339.7119" x2="380.7119" y1="1347.9297" y2="1347.9297"/><polygon fill="#181818" points="349.7119,1343.9297,339.7119,1347.9297,349.7119,1351.9297,345.7119,1347.9297" style="stroke:#181818;stroke-width:1;"/><text fill="#000000" font-family="sans-serif" font-size="13" lengthAdjust="spacing" textLength="152.1406" x="345.7119" y="1330.0732">document.hidden === true</text><polygon fill="#181818" points="554.4971,1390.6328,564.4971,1394.6328,554.4971,1398.6328,558.4971,1394.6328" style="stroke:#181818;stroke-width:1;"/><line style="stroke:#181818;stroke-width:1;" x1="338.7119" x2="560.4971" y1="1394.6328" y2="1394.6328"/><text fill="#000000" font-family="sans-serif" font-size="13" lengthAdjust="spacing" textLength="105.4536" x="345.7119" y="1373.4248">&#31435;&#21363;&#21457;&#36865; 1 &#27425;&#24515;&#36339;</text><text fill="#000000" font-family="sans-serif" font-size="13" lengthAdjust="spacing" textLength="98.9727" x="345.7119" y="1389.7764">GET /api/room/...</text><line style="stroke:#181818;stroke-width:1;" x1="566.4971" x2="608.4971" y1="1441.3359" y2="1441.3359"/><line style="stroke:#181818;stroke-width:1;" x1="608.4971" x2="608.4971" y1="1441.3359" y2="1454.3359"/><line style="stroke:#181818;stroke-width:1;" x1="567.4971" x2="608.4971" y1="1454.3359" y2="1454.3359"/><polygon fill="#181818" points="577.4971,1450.3359,567.4971,1454.3359,577.4971,1458.3359,573.4971,1454.3359" style="stroke:#181818;stroke-width:1;"/><text fill="#000000" font-family="sans-serif" font-size="13" lengthAdjust="spacing" textLength="100.0645" x="573.4971" y="1420.1279">lastActivity = now</text><text fill="#000000" font-family="sans-serif" font-size="13" lengthAdjust="spacing" textLength="137.2236" x="573.4971" y="1436.4795">[&#22312;&#23450;&#26102;&#22120;&#34987;&#38480;&#27969;&#21069;&#21047;&#26032;]</text><path d="M722.2236,1411.1328 L722.2236,1453.1328 L912.2236,1453.1328 L912.2236,1421.1328 L902.2236,1411.1328 L722.2236,1411.1328 " fill="#FEFFDD" style="stroke:#181818;stroke-width:0.5;"/><path d="M902.2236,1411.1328 L902.2236,1421.1328 L912.2236,1421.1328 L902.2236,1411.1328 " fill="#FEFFDD" style="stroke:#181818;stroke-width:0.5;"/><text fill="#000000" font-family="sans-serif" font-size="13" lengthAdjust="spacing" textLength="156" x="728.2236" y="1429.6279">&#27983;&#35272;&#22120;&#21487;&#33021;&#38480;&#27969;&#21518;&#21488;&#23450;&#26102;&#22120;</text><text fill="#000000" font-family="sans-serif" font-size="13" lengthAdjust="spacing" textLength="169" x="728.2236" y="1445.9795">&#25152;&#20197;&#22312;&#38544;&#34255;&#30636;&#38388;&#20027;&#21160;&#21457;&#36865;&#24515;&#36339;</text><rect fill="#EEEEEE" height="3" style="stroke:#EEEEEE;stroke-width:1;" width="1188.7983" x="0" y="1483.5117"/><line style="stroke:#000000;stroke-width:1;" x1="0" x2="1188.7983" y1="1483.5117" y2="1483.5117"/><line style="stroke:#000000;stroke-width:1;" x1="0" x2="1188.7983" y1="1486.5117" y2="1486.5117"/><rect fill="#EEEEEE" height="24.3516" style="stroke:#000000;stroke-width:2;" width="137.1318" x="525.8333" y="1472.3359"/><text fill="#000000" font-family="sans-serif" font-size="13" font-weight="bold" lengthAdjust="spacing" textLength="119.52" x="531.8333" y="1489.8311">&#21518;&#21488;&#26399;&#38388; (&#39029;&#38754;&#38544;&#34255;)</text><path d="M287.8706,1513.6875 L360.3052,1513.6875 L360.3052,1522.0391 L350.3052,1532.0391 L287.8706,1532.0391 L287.8706,1513.6875 " fill="#EEEEEE" style="stroke:#000000;stroke-width:1.5;"/><rect fill="none" height="134.1094" style="stroke:#000000;stroke-width:1.5;" width="588.5864" x="287.8706" y="1513.6875"/><text fill="#000000" font-family="sans-serif" font-size="13" font-weight="bold" lengthAdjust="spacing" textLength="27.4346" x="302.8706" y="1528.1826">loop</text><text fill="#000000" font-family="sans-serif" font-size="11" font-weight="bold" lengthAdjust="spacing" textLength="143.376" x="375.3052" y="1527.1064">[&#27599; 2 &#31186; (&#22914;&#26524;&#27983;&#35272;&#22120;&#26410;&#38480;&#27969;)]</text><polygon fill="#181818" points="554.4971,1566.7422,564.4971,1570.7422,554.4971,1574.7422,558.4971,1570.7422" style="stroke:#181818;stroke-width:1;"/><line style="stroke:#181818;stroke-width:1;" x1="338.7119" x2="560.4971" y1="1570.7422" y2="1570.7422"/><text fill="#000000" font-family="sans-serif" font-size="13" lengthAdjust="spacing" textLength="98.9727" x="345.7119" y="1549.5342">GET /api/room/...</text><text fill="#000000" font-family="sans-serif" font-size="13" lengthAdjust="spacing" textLength="125.6709" x="345.7119" y="1565.8857">[&#20165;&#24515;&#36339;, &#36339;&#36807; UI &#21047;&#26032;]</text><line style="stroke:#181818;stroke-width:1;" x1="566.4971" x2="608.4971" y1="1613.9453" y2="1613.9453"/><line style="stroke:#181818;stroke-width:1;" x1="608.4971" x2="608.4971" y1="1613.9453" y2="1626.9453"/><line style="stroke:#181818;stroke-width:1;" x1="567.4971" x2="608.4971" y1="1626.9453" y2="1626.9453"/><polygon fill="#181818" points="577.4971,1622.9453,567.4971,1626.9453,577.4971,1630.9453,573.4971,1626.9453" style="stroke:#181818;stroke-width:1;"/><text fill="#000000" font-family="sans-serif" font-size="13" lengthAdjust="spacing" textLength="117.0127" x="573.4971" y="1609.0889">lastActivity &#25345;&#32493;&#26356;&#26032;</text><path d="M702.0127,1583.7422 L702.0127,1642.7422 L860.0127,1642.7422 L860.0127,1593.7422 L850.0127,1583.7422 L702.0127,1583.7422 " fill="#FEFFDD" style="stroke:#181818;stroke-width:0.5;"/><path d="M850.0127,1583.7422 L850.0127,1593.7422 L860.0127,1593.7422 L850.0127,1583.7422 " fill="#FEFFDD" style="stroke:#181818;stroke-width:0.5;"/><text fill="#000000" font-family="sans-serif" font-size="13" lengthAdjust="spacing" textLength="116.3525" x="708.0127" y="1602.2373">document.hidden &#26102;</text><text fill="#000000" font-family="sans-serif" font-size="13" lengthAdjust="spacing" textLength="104" x="708.0127" y="1618.5889">&#21482;&#21457;&#35831;&#27714;&#20445;&#25345;&#22312;&#32447;</text><text fill="#000000" font-family="sans-serif" font-size="13" lengthAdjust="spacing" textLength="137.9473" x="708.0127" y="1634.9404">&#19981;&#25191;&#34892; fn() &#36991;&#24320; UI &#25805;&#20316;</text><rect fill="#EEEEEE" height="3" style="stroke:#EEEEEE;stroke-width:1;" width="1188.7983" x="0" y="1675.9727"/><line style="stroke:#000000;stroke-width:1;" x1="0" x2="1188.7983" y1="1675.9727" y2="1675.9727"/><line style="stroke:#000000;stroke-width:1;" x1="0" x2="1188.7983" y1="1678.9727" y2="1678.9727"/><rect fill="#EEEEEE" height="24.3516" style="stroke:#000000;stroke-width:2;" width="98.0493" x="545.3745" y="1664.7969"/><text fill="#000000" font-family="sans-serif" font-size="13" font-weight="bold" lengthAdjust="spacing" textLength="80.4375" x="551.3745" y="1682.292">&#39029;&#38754;&#24674;&#22797;&#21487;&#35265;</text><polygon fill="#181818" points="145.1948,1717.5,155.1948,1721.5,145.1948,1725.5,149.1948,1721.5" style="stroke:#181818;stroke-width:1;"/><line style="stroke:#181818;stroke-width:1;" x1="29.1948" x2="151.1948" y1="1721.5" y2="1721.5"/><text fill="#000000" font-family="sans-serif" font-size="13" lengthAdjust="spacing" textLength="91" x="36.1948" y="1716.6436">&#20999;&#22238;&#28216;&#25103;&#26631;&#31614;&#39029;</text><line style="stroke:#181818;stroke-width:1;" x1="338.7119" x2="380.7119" y1="1768.2031" y2="1768.2031"/><line style="stroke:#181818;stroke-width:1;" x1="380.7119" x2="380.7119" y1="1768.2031" y2="1781.2031"/><line style="stroke:#181818;stroke-width:1;" x1="339.7119" x2="380.7119" y1="1781.2031" y2="1781.2031"/><polygon fill="#181818" points="349.7119,1777.2031,339.7119,1781.2031,349.7119,1785.2031,345.7119,1781.2031" style="stroke:#181818;stroke-width:1;"/><text fill="#000000" font-family="sans-serif" font-size="13" lengthAdjust="spacing" textLength="87.4326" x="345.7119" y="1746.9951">visibilitychange</text><text fill="#000000" font-family="sans-serif" font-size="13" lengthAdjust="spacing" textLength="93.6025" x="345.7119" y="1763.3467">hidden &#8594; visible</text><line style="stroke:#181818;stroke-width:1;" x1="338.7119" x2="380.7119" y1="1811.5547" y2="1811.5547"/><line style="stroke:#181818;stroke-width:1;" x1="380.7119" x2="380.7119" y1="1811.5547" y2="1824.5547"/><line style="stroke:#181818;stroke-width:1;" x1="339.7119" x2="380.7119" y1="1824.5547" y2="1824.5547"/><polygon fill="#181818" points="349.7119,1820.5547,339.7119,1824.5547,349.7119,1828.5547,345.7119,1824.5547" style="stroke:#181818;stroke-width:1;"/><text fill="#000000" font-family="sans-serif" font-size="13" lengthAdjust="spacing" textLength="75.1118" x="345.7119" y="1806.6982">&#31435;&#21363;&#25191;&#34892; fn()</text><polygon fill="#181818" points="554.4971,1867.2578,564.4971,1871.2578,554.4971,1875.2578,558.4971,1871.2578" style="stroke:#181818;stroke-width:1;"/><line style="stroke:#181818;stroke-width:1;" x1="338.7119" x2="560.4971" y1="1871.2578" y2="1871.2578"/><text fill="#000000" font-family="sans-serif" font-size="13" lengthAdjust="spacing" textLength="98.9727" x="345.7119" y="1850.0498">GET /api/room/...</text><text fill="#000000" font-family="sans-serif" font-size="13" lengthAdjust="spacing" textLength="113.0391" x="345.7119" y="1866.4014">[&#23436;&#25972;&#21047;&#26032;: UI+&#24515;&#36339;]</text><polygon fill="#181818" points="349.7119,1897.6094,339.7119,1901.6094,349.7119,1905.6094,345.7119,1901.6094" style="stroke:#181818;stroke-width:1;"/><line style="stroke:#181818;stroke-width:1;stroke-dasharray:2.0,2.0;" x1="343.7119" x2="565.4971" y1="1901.6094" y2="1901.6094"/><text fill="#000000" font-family="sans-serif" font-size="13" lengthAdjust="spacing" textLength="52" x="355.7119" y="1896.7529">&#26368;&#26032;&#29366;&#24577;</text><polygon fill="#181818" points="168.1948,1927.9609,158.1948,1931.9609,168.1948,1935.9609,164.1948,1931.9609" style="stroke:#181818;stroke-width:1;"/><line style="stroke:#181818;stroke-width:1;" x1="162.1948" x2="337.7119" y1="1931.9609" y2="1931.9609"/><text fill="#000000" font-family="sans-serif" font-size="13" lengthAdjust="spacing" textLength="98.2236" x="174.1948" y="1927.1045">&#26356;&#26032;&#25152;&#26377; UI &#32452;&#20214;</text><polygon fill="#181818" points="40.1948,1958.3125,30.1948,1962.3125,40.1948,1966.3125,36.1948,1962.3125" style="stroke:#181818;stroke-width:1;"/><line style="stroke:#181818;stroke-width:1;stroke-dasharray:2.0,2.0;" x1="34.1948" x2="156.1948" y1="1962.3125" y2="1962.3125"/><text fill="#000000" font-family="sans-serif" font-size="13" lengthAdjust="spacing" textLength="78" x="46.1948" y="1957.4561">&#30011;&#38754;&#31435;&#21363;&#21487;&#29992;</text><!--SRC=[bLPRKzjM47xNhzZXoMx146RwmjHb0hW9BIrC8DE7c0TX2woEBJ6M8CCmpDYXW0quXa2X17DjA2utqt9pSGp_9UDp9B_b9tIb8r_1JF23BVdihdQ__VPRgQBg5u3SJkfNPsGnIHDRTFMINCV9-Wry2Yq3FVwJfDCaaTIkRy6Mo-m1xr55MNBur80VcXNGioTwQZUNlixTpDav3a_b8DHztjfV1Etjt-JaiWvu1Nhy_9WGv8Rve2fwn65UKg6ENiJr_GXPIxgbifYcULjGVgrKstlaG02DVbNSaXB0WnxPpwnx2tULzi_uWD0kIseGJuIWMshaXyN6e2m7JAVIoLslNY4uAde4joGgBF5koIzA0diOEwjqObOTl6oQu2_dvLL-W5S4g7lU31rjxFysZdCwWKGsoFuScTtMirbmEZdc30tV5Sg65g3H9V8nP64D-PsB_COkLpX6osB9Q5i4mpOeg1vVhyghGZqqDpKrsTqIMKYHsIGqWxR_ZhMAA_bM1Igvs-oW7SwHs1cDxkixyvKk9UJGvvch3uh0DeuRtvtU2RVKEcnMrUbrZXUk9ZYkpBKw45ACHcxpg-UCDIIogkyaS-bZjqItzcZqXcINI3J63X-AmvxcK0IrYrVKfmZWgAYEsIJvDQBnYX6TRgVn0b5UFwShfqXuV2oDdFLNnSK-5WFYjMDas6jWm_wmSyQnOTM6HYzxEfxskInRjzIBgFZB7WzEQENGiA4OjVj7ZlFByZ2Gr7-iRZ8zHLFnNFg0J5tcCYjMfO2V-x8Q52LlsrYdroQhFY7OOq5iD-tB4-jrTRdQ- -0h-Fv5zqzMVl3BSzSB5uXUPokpBq_COgEDB1nMb62_9nLh5j2hSb1ite4U2oJ3gM1MuO4DWOPAaBw5Rv2qq5hfLDrWDJWYD0xoVaNW1CbRoQagGl_Gs_qpZ5jLAotmQjpXSDI3R2RP0WEox9_eXubAUfU6aFMRLQ9ORLUGHJJzBzrQidWQsz6YC-MZMVBNv_QiPpcTJZDZzFtZHljm3P-tbi_1HbUEKLRjGBTdz9FJ-uEm9Bha8GKQhPjs7w-MZD7QwXaIsenE4o63rkaqZSIrsKiQ2fkwenqTFQ57Eqm5mDQCYa0MtjeD2Qef2JX6VM90a4TKMxDYH-awnGtnnNA0Q1TdJazTqN_Uz3yqkbKJWmovTo0P2CZGwRMEDZidoNWJ58TygW50AbuiCJ-PPGDU4TWjvMutw7oOhRGoU9Z8aiWCZU7tAK93ugTW6nKLSK3qewV7nqj3WhsMPAEduMOEBpPKExx1YBMHzSgUaO0WgGwVwFKA4aPrcjH-05mcoII-c0-5uGbWeGnQjtG7ziV1R3GfaIGdxutTlvRKTm_pQmlq8eo2Io9NY61_5Sg5pKtYANqoQncRW1M38DMZ8NnVmC3vzmlwQbpRF4ALowKpk8zO3InxjXDDP-GMce2DjOAvcNYRIeczPNiCM__N6xgPAAP14mSi1qjl7aNFN6QA9L8F1arlP-1b9nJAlgjvjQ54KccPOqOvqx42i-f-8qgudUC720KRZN9Q8adJCRPxOL32RPmFtnhl0vWPNOhbiWacVKNMql0k-H0pkh4VVeYVwvjC5Rw0dzMyTqjMuf-ctx53lr3Rk_pjmQpWiPfnCaz_FsTTmEtQ-JLhKVz3Qizapvhe6f9kRVneY2QY1ffQvhTSvl9-CTMMCmXjOUXIsdAI-ny0]--></g></svg>