<svg xmlns="http://www.w3.org/2000/svg" xmlns:xlink="http://www.w3.org/1999/xlink" contentStyleType="text/css" height="972px" preserveAspectRatio="none" style="width:2305px;height:972px;background:#FFFFFF;" version="1.1" viewBox="0 0 2305 972" width="2305px" zoomAndPan="magnify"><title>&#39532;&#20992;&#28216;&#25103; &#8212; &#24515;&#36339;&#26426;&#21046;&#26550;&#26500;&#24635;&#35272;</title><defs/><g><text fill="#000000" font-family="sans-serif" font-size="14" font-weight="bold" lengthAdjust="spacing" textLength="195.4668" x="1048.1466" y="24.5332">&#39532;&#20992;&#28216;&#25103; &#8212; &#24515;&#36339;&#26426;&#21046;&#26550;&#26500;&#24635;&#35272;</text><!--cluster BrowserLayer--><g id="cluster_BrowserLayer"><path d="M1430.26,262.1094 L1621.6135,262.1094 A3.75,3.75 0 0 1 1624.1135,264.6094 L1631.1135,285.7188 L2296.26,285.7188 A2.5,2.5 0 0 1 2298.76,288.2188 L2298.76,376.6094 A2.5,2.5 0 0 1 2296.26,379.1094 L1430.26,379.1094 A2.5,2.5 0 0 1 1427.76,376.6094 L1427.76,264.6094 A2.5,2.5 0 0 1 1430.26,262.1094 " fill="#FFFFE0" style="stroke:#000000;stroke-width:1.5;"/><line style="stroke:#000000;stroke-width:1.5;" x1="1427.76" x2="1631.1135" y1="285.7188" y2="285.7188"/><text fill="#000000" font-family="sans-serif" font-size="14" font-weight="bold" lengthAdjust="spacing" textLength="190.3535" x="1431.76" y="278.6426">&#128421; &#27983;&#35272;&#22120;&#23618; (&#21508;&#39029;&#38754;&#36718;&#35810;&#38388;&#38548;)</text></g><!--cluster JSLayer--><g id="cluster_JSLayer"><path d="M1627.26,470.1094 L1794.1409,470.1094 A3.75,3.75 0 0 1 1796.6409,472.6094 L1803.6409,493.7188 L1987.26,493.7188 A2.5,2.5 0 0 1 1989.76,496.2188 L1989.76,812.6094 A2.5,2.5 0 0 1 1987.26,815.1094 L1627.26,815.1094 A2.5,2.5 0 0 1 1624.76,812.6094 L1624.76,472.6094 A2.5,2.5 0 0 1 1627.26,470.1094 " fill="#ADD8E6" style="stroke:#000000;stroke-width:1.5;"/><line style="stroke:#000000;stroke-width:1.5;" x1="1624.76" x2="1803.6409" y1="493.7188" y2="493.7188"/><text fill="#000000" font-family="sans-serif" font-size="14" font-weight="bold" lengthAdjust="spacing" textLength="165.8809" x="1628.76" y="486.6426">&#128220; &#21069;&#31471;JS&#23618; (common.js)</text></g><!--cluster ControllerLayer--><g id="cluster_ControllerLayer"><path d="M1198.26,44.6094 L1373.7678,44.6094 A3.75,3.75 0 0 1 1376.2678,47.1094 L1383.2678,68.2188 L1387.26,68.2188 A2.5,2.5 0 0 1 1389.76,70.7188 L1389.76,394.1094 A2.5,2.5 0 0 1 1387.26,396.6094 L1198.26,396.6094 A2.5,2.5 0 0 1 1195.76,394.1094 L1195.76,47.1094 A2.5,2.5 0 0 1 1198.26,44.6094 " fill="#90EE90" style="stroke:#000000;stroke-width:1.5;"/><line style="stroke:#000000;stroke-width:1.5;" x1="1195.76" x2="1383.2678" y1="68.2188" y2="68.2188"/><text fill="#000000" font-family="sans-serif" font-size="14" font-weight="bold" lengthAdjust="spacing" textLength="174.5078" x="1199.76" y="61.1426">&#127760; Controller &#23618; (&#24515;&#36339;&#20837;&#21475;)</text></g><!--cluster ServiceLayer--><g id="cluster_ServiceLayer"><path d="M770.26,244.6094 L926.4973,244.6094 A3.75,3.75 0 0 1 928.9973,247.1094 L935.9973,268.2188 L1162.26,268.2188 A2.5,2.5 0 0 1 1164.76,270.7188 L1164.76,593.6094 A2.5,2.5 0 0 1 1162.26,596.1094 L770.26,596.1094 A2.5,2.5 0 0 1 767.76,593.6094 L767.76,247.1094 A2.5,2.5 0 0 1 770.26,244.6094 " fill="#F08080" style="stroke:#000000;stroke-width:1.5;"/><line style="stroke:#000000;stroke-width:1.5;" x1="767.76" x2="935.9973" y1="268.2188" y2="268.2188"/><text fill="#000000" font-family="sans-serif" font-size="14" font-weight="bold" lengthAdjust="spacing" textLength="155.2373" x="771.76" y="261.1426">&#9881;&#65039; Service &#23618; (&#26816;&#27979;&#26680;&#24515;)</text></g><!--cluster DataLayer--><g id="cluster_DataLayer"><path d="M13.26,680.6094 L132.426,680.6094 A3.75,3.75 0 0 1 134.926,683.1094 L141.926,704.2188 L776.26,704.2188 A2.5,2.5 0 0 1 778.76,706.7188 L778.76,963.1094 A2.5,2.5 0 0 1 776.26,965.6094 L13.26,965.6094 A2.5,2.5 0 0 1 10.76,963.1094 L10.76,683.1094 A2.5,2.5 0 0 1 13.26,680.6094 " fill="#E6E6FA" style="stroke:#000000;stroke-width:1.5;"/><line style="stroke:#000000;stroke-width:1.5;" x1="10.76" x2="141.926" y1="704.2188" y2="704.2188"/><text fill="#000000" font-family="sans-serif" font-size="14" font-weight="bold" lengthAdjust="spacing" textLength="118.166" x="14.76" y="697.1426">&#128190; &#25968;&#25454;&#23618; (&#25345;&#20037;&#21270;)</text></g><!--entity actionPage--><g id="elem_actionPage"><rect fill="#F1F1F1" height="65.2188" rx="2.5" ry="2.5" style="stroke:#181818;stroke-width:0.5;" width="107.6963" x="2031.76" y="298.1094"/><rect fill="#F1F1F1" height="10" style="stroke:#181818;stroke-width:0.5;" width="15" x="2119.4563" y="303.1094"/><rect fill="#F1F1F1" height="2" style="stroke:#181818;stroke-width:0.5;" width="4" x="2117.4563" y="305.1094"/><rect fill="#F1F1F1" height="2" style="stroke:#181818;stroke-width:0.5;" width="4" x="2117.4563" y="309.1094"/><text fill="#000000" font-family="sans-serif" font-size="14" lengthAdjust="spacing" textLength="67.6963" x="2046.76" y="332.6426">action.html</text><text fill="#000000" font-family="sans-serif" font-size="14" lengthAdjust="spacing" textLength="24.1104" x="2046.76" y="350.252">(2s)</text></g><!--entity guessPage--><g id="elem_guessPage"><rect fill="#F1F1F1" height="65.2188" rx="2.5" ry="2.5" style="stroke:#181818;stroke-width:0.5;" width="107.6963" x="2174.76" y="298.1094"/><rect fill="#F1F1F1" height="10" style="stroke:#181818;stroke-width:0.5;" width="15" x="2262.4563" y="303.1094"/><rect fill="#F1F1F1" height="2" style="stroke:#181818;stroke-width:0.5;" width="4" x="2260.4563" y="305.1094"/><rect fill="#F1F1F1" height="2" style="stroke:#181818;stroke-width:0.5;" width="4" x="2260.4563" y="309.1094"/><text fill="#000000" font-family="sans-serif" font-size="14" lengthAdjust="spacing" textLength="67.6963" x="2189.76" y="332.6426">guess.html</text><text fill="#000000" font-family="sans-serif" font-size="14" lengthAdjust="spacing" textLength="24.1104" x="2189.76" y="350.252">(2s)</text></g><!--entity waitingPage--><g id="elem_waitingPage"><rect fill="#F1F1F1" height="65.2188" rx="2.5" ry="2.5" style="stroke:#181818;stroke-width:0.5;" width="113.917" x="1443.76" y="298.1094"/><rect fill="#F1F1F1" height="10" style="stroke:#181818;stroke-width:0.5;" width="15" x="1537.677" y="303.1094"/><rect fill="#F1F1F1" height="2" style="stroke:#181818;stroke-width:0.5;" width="4" x="1535.677" y="305.1094"/><rect fill="#F1F1F1" height="2" style="stroke:#181818;stroke-width:0.5;" width="4" x="1535.677" y="309.1094"/><text fill="#000000" font-family="sans-serif" font-size="14" lengthAdjust="spacing" textLength="73.917" x="1458.76" y="332.6426">waiting.html</text><text fill="#000000" font-family="sans-serif" font-size="14" lengthAdjust="spacing" textLength="24.1104" x="1458.76" y="350.252">(3s)</text></g><!--entity lobbyPage--><g id="elem_lobbyPage"><rect fill="#F1F1F1" height="65.2188" rx="2.5" ry="2.5" style="stroke:#181818;stroke-width:0.5;" width="103.8066" x="1751.76" y="298.1094"/><rect fill="#F1F1F1" height="10" style="stroke:#181818;stroke-width:0.5;" width="15" x="1835.5666" y="303.1094"/><rect fill="#F1F1F1" height="2" style="stroke:#181818;stroke-width:0.5;" width="4" x="1833.5666" y="305.1094"/><rect fill="#F1F1F1" height="2" style="stroke:#181818;stroke-width:0.5;" width="4" x="1833.5666" y="309.1094"/><text fill="#000000" font-family="sans-serif" font-size="14" lengthAdjust="spacing" textLength="63.8066" x="1766.76" y="332.6426">lobby.html</text><text fill="#000000" font-family="sans-serif" font-size="14" lengthAdjust="spacing" textLength="24.1104" x="1766.76" y="350.252">(3s)</text></g><!--entity spectatePage--><g id="elem_spectatePage"><rect fill="#F1F1F1" height="65.2188" rx="2.5" ry="2.5" style="stroke:#181818;stroke-width:0.5;" width="123.2617" x="1593.26" y="298.1094"/><rect fill="#F1F1F1" height="10" style="stroke:#181818;stroke-width:0.5;" width="15" x="1696.5217" y="303.1094"/><rect fill="#F1F1F1" height="2" style="stroke:#181818;stroke-width:0.5;" width="4" x="1694.5217" y="305.1094"/><rect fill="#F1F1F1" height="2" style="stroke:#181818;stroke-width:0.5;" width="4" x="1694.5217" y="309.1094"/><text fill="#000000" font-family="sans-serif" font-size="14" lengthAdjust="spacing" textLength="83.2617" x="1608.26" y="332.6426">spectate.html</text><text fill="#000000" font-family="sans-serif" font-size="14" lengthAdjust="spacing" textLength="24.1104" x="1608.26" y="350.252">(4s)</text></g><!--entity resultPage--><g id="elem_resultPage"><rect fill="#F1F1F1" height="65.2188" rx="2.5" ry="2.5" style="stroke:#181818;stroke-width:0.5;" width="104.5723" x="1891.26" y="298.1094"/><rect fill="#F1F1F1" height="10" style="stroke:#181818;stroke-width:0.5;" width="15" x="1975.8323" y="303.1094"/><rect fill="#F1F1F1" height="2" style="stroke:#181818;stroke-width:0.5;" width="4" x="1973.8323" y="305.1094"/><rect fill="#F1F1F1" height="2" style="stroke:#181818;stroke-width:0.5;" width="4" x="1973.8323" y="309.1094"/><text fill="#000000" font-family="sans-serif" font-size="14" lengthAdjust="spacing" textLength="64.5723" x="1906.26" y="332.6426">result.html</text><text fill="#000000" font-family="sans-serif" font-size="14" lengthAdjust="spacing" textLength="24.1104" x="1906.26" y="350.252">(5s)</text></g><!--entity smartPoll--><g id="elem_smartPoll"><rect fill="#F1F1F1" height="65.2188" rx="2.5" ry="2.5" style="stroke:#181818;stroke-width:0.5;" width="141.8965" x="1831.76" y="506.1094"/><rect fill="#F1F1F1" height="10" style="stroke:#181818;stroke-width:0.5;" width="15" x="1953.6565" y="511.1094"/><rect fill="#F1F1F1" height="2" style="stroke:#181818;stroke-width:0.5;" width="4" x="1951.6565" y="513.1094"/><rect fill="#F1F1F1" height="2" style="stroke:#181818;stroke-width:0.5;" width="4" x="1951.6565" y="517.1094"/><text fill="#000000" font-family="sans-serif" font-size="14" lengthAdjust="spacing" textLength="101.8965" x="1846.76" y="540.6426">smartPoll(fn,ms)</text><text fill="#000000" font-family="sans-serif" font-size="14" lengthAdjust="spacing" textLength="56" x="1846.76" y="558.252">&#26234;&#33021;&#36718;&#35810;</text></g><!--entity visibility--><g id="elem_visibility"><rect fill="#F1F1F1" height="65.2188" rx="2.5" ry="2.5" style="stroke:#181818;stroke-width:0.5;" width="134.1582" x="1827.76" y="734.1094"/><rect fill="#F1F1F1" height="10" style="stroke:#181818;stroke-width:0.5;" width="15" x="1941.9182" y="739.1094"/><rect fill="#F1F1F1" height="2" style="stroke:#181818;stroke-width:0.5;" width="4" x="1939.9182" y="741.1094"/><rect fill="#F1F1F1" height="2" style="stroke:#181818;stroke-width:0.5;" width="4" x="1939.9182" y="745.1094"/><text fill="#000000" font-family="sans-serif" font-size="14" lengthAdjust="spacing" textLength="94.1582" x="1842.76" y="768.6426">visibilitychange</text><text fill="#000000" font-family="sans-serif" font-size="14" lengthAdjust="spacing" textLength="42" x="1842.76" y="786.252">&#30417;&#21548;&#22120;</text></g><!--entity createPoller--><g id="elem_createPoller"><rect fill="#F1F1F1" height="65.2188" rx="2.5" ry="2.5" style="stroke:#181818;stroke-width:0.5;" width="152.0479" x="1640.76" y="734.1094"/><rect fill="#F1F1F1" height="10" style="stroke:#181818;stroke-width:0.5;" width="15" x="1772.8079" y="739.1094"/><rect fill="#F1F1F1" height="2" style="stroke:#181818;stroke-width:0.5;" width="4" x="1770.8079" y="741.1094"/><rect fill="#F1F1F1" height="2" style="stroke:#181818;stroke-width:0.5;" width="4" x="1770.8079" y="745.1094"/><text fill="#000000" font-family="sans-serif" font-size="14" lengthAdjust="spacing" textLength="112.0479" x="1655.76" y="768.6426">createRoomPoller</text><text fill="#000000" font-family="sans-serif" font-size="14" lengthAdjust="spacing" textLength="56" x="1655.76" y="786.252">&#24037;&#21378;&#20989;&#25968;</text></g><!--entity updateUI--><g id="elem_updateUI"><rect fill="#F1F1F1" height="65.2188" rx="2.5" ry="2.5" style="stroke:#181818;stroke-width:0.5;" width="155.8896" x="1640.76" y="506.1094"/><rect fill="#F1F1F1" height="10" style="stroke:#181818;stroke-width:0.5;" width="15" x="1776.6496" y="511.1094"/><rect fill="#F1F1F1" height="2" style="stroke:#181818;stroke-width:0.5;" width="4" x="1774.6496" y="513.1094"/><rect fill="#F1F1F1" height="2" style="stroke:#181818;stroke-width:0.5;" width="4" x="1774.6496" y="517.1094"/><text fill="#000000" font-family="sans-serif" font-size="14" lengthAdjust="spacing" textLength="89.5029" x="1655.76" y="540.6426">updatePlayers</text><text fill="#000000" font-family="sans-serif" font-size="14" lengthAdjust="spacing" textLength="115.8896" x="1655.76" y="558.252">&#28210;&#26579;&#22312;&#32447;/&#26029;&#32447;&#26631;&#35760;</text></g><!--entity apiRoom--><g id="elem_apiRoom"><rect fill="#F1F1F1" height="100.4375" rx="2.5" ry="2.5" style="stroke:#181818;stroke-width:0.5;" width="160.6064" x="1212.26" y="280.6094"/><rect fill="#F1F1F1" height="10" style="stroke:#181818;stroke-width:0.5;" width="15" x="1352.8664" y="285.6094"/><rect fill="#F1F1F1" height="2" style="stroke:#181818;stroke-width:0.5;" width="4" x="1350.8664" y="287.6094"/><rect fill="#F1F1F1" height="2" style="stroke:#181818;stroke-width:0.5;" width="4" x="1350.8664" y="291.6094"/><text fill="#000000" font-family="sans-serif" font-size="14" lengthAdjust="spacing" textLength="91.0273" x="1227.26" y="315.1426">GET /api/room</text><text fill="#000000" font-family="sans-serif" font-size="14" lengthAdjust="spacing" textLength="120.6064" x="1227.26" y="332.752">apiGetRoomState()</text><text fill="#000000" font-family="sans-serif" font-size="14" lengthAdjust="spacing" textLength="98.0137" x="1227.26" y="350.3613">&#26356;&#26032; lastActivity</text><text fill="#000000" font-family="sans-serif" font-size="14" lengthAdjust="spacing" textLength="101.1445" x="1227.26" y="367.9707">&#36820;&#22238; online &#29366;&#24577;</text></g><!--entity otherAPI--><g id="elem_otherAPI"><rect fill="#F1F1F1" height="100.4375" rx="2.5" ry="2.5" style="stroke:#181818;stroke-width:0.5;" width="123.2549" x="1231.26" y="80.6094"/><rect fill="#F1F1F1" height="10" style="stroke:#181818;stroke-width:0.5;" width="15" x="1334.5149" y="85.6094"/><rect fill="#F1F1F1" height="2" style="stroke:#181818;stroke-width:0.5;" width="4" x="1332.5149" y="87.6094"/><rect fill="#F1F1F1" height="2" style="stroke:#181818;stroke-width:0.5;" width="4" x="1332.5149" y="91.6094"/><text fill="#000000" font-family="sans-serif" font-size="14" lengthAdjust="spacing" textLength="71.5791" x="1246.26" y="115.1426">GET /game</text><text fill="#000000" font-family="sans-serif" font-size="14" lengthAdjust="spacing" textLength="67.6895" x="1246.26" y="132.752">POST /join</text><text fill="#000000" font-family="sans-serif" font-size="14" lengthAdjust="spacing" textLength="83.2549" x="1246.26" y="150.3613">POST /guess</text><text fill="#000000" font-family="sans-serif" font-size="14" lengthAdjust="spacing" textLength="83.2549" x="1246.26" y="167.9707">POST /action</text></g><!--entity onlineCheck--><g id="elem_onlineCheck"><rect fill="#F1F1F1" height="82.8281" rx="2.5" ry="2.5" style="stroke:#181818;stroke-width:0.5;" width="139.5859" x="967.76" y="497.1094"/><rect fill="#F1F1F1" height="10" style="stroke:#181818;stroke-width:0.5;" width="15" x="1087.3459" y="502.1094"/><rect fill="#F1F1F1" height="2" style="stroke:#181818;stroke-width:0.5;" width="4" x="1085.3459" y="504.1094"/><rect fill="#F1F1F1" height="2" style="stroke:#181818;stroke-width:0.5;" width="4" x="1085.3459" y="508.1094"/><text fill="#000000" font-family="sans-serif" font-size="14" lengthAdjust="spacing" textLength="99.5859" x="982.76" y="531.6426">isPlayerOnline()</text><text fill="#000000" font-family="sans-serif" font-size="14" lengthAdjust="spacing" textLength="56" x="982.76" y="549.252">&#22312;&#32447;&#21028;&#23450;</text><text fill="#000000" font-family="sans-serif" font-size="14" lengthAdjust="spacing" textLength="57.5654" x="982.76" y="566.8613">&#38408;&#20540;: 5&#31186;</text></g><!--entity joinRoom--><g id="elem_joinRoom"><rect fill="#F1F1F1" height="82.8281" rx="2.5" ry="2.5" style="stroke:#181818;stroke-width:0.5;" width="138.0137" x="1010.76" y="289.1094"/><rect fill="#F1F1F1" height="10" style="stroke:#181818;stroke-width:0.5;" width="15" x="1128.7737" y="294.1094"/><rect fill="#F1F1F1" height="2" style="stroke:#181818;stroke-width:0.5;" width="4" x="1126.7737" y="296.1094"/><rect fill="#F1F1F1" height="2" style="stroke:#181818;stroke-width:0.5;" width="4" x="1126.7737" y="300.1094"/><text fill="#000000" font-family="sans-serif" font-size="14" lengthAdjust="spacing" textLength="68.4619" x="1025.76" y="323.6426">joinRoom()</text><text fill="#000000" font-family="sans-serif" font-size="14" lengthAdjust="spacing" textLength="56" x="1025.76" y="341.252">&#37325;&#36830;&#22788;&#29702;</text><text fill="#000000" font-family="sans-serif" font-size="14" lengthAdjust="spacing" textLength="98.0137" x="1025.76" y="358.8613">&#26356;&#26032; lastActivity</text></g><!--entity cleanupTask--><g id="elem_cleanupTask"><rect fill="#F1F1F1" height="100.4375" rx="2.5" ry="2.5" style="stroke:#181818;stroke-width:0.5;" width="190.958" x="784.26" y="280.6094"/><rect fill="#F1F1F1" height="10" style="stroke:#181818;stroke-width:0.5;" width="15" x="955.218" y="285.6094"/><rect fill="#F1F1F1" height="2" style="stroke:#181818;stroke-width:0.5;" width="4" x="953.218" y="287.6094"/><rect fill="#F1F1F1" height="2" style="stroke:#181818;stroke-width:0.5;" width="4" x="953.218" y="291.6094"/><text fill="#000000" font-family="sans-serif" font-size="14" lengthAdjust="spacing" textLength="150.958" x="799.26" y="315.1426">cleanupInactiveRooms()</text><text fill="#000000" font-family="sans-serif" font-size="14" lengthAdjust="spacing" textLength="104.4873" x="799.26" y="332.752">@Scheduled(5s)</text><text fill="#000000" font-family="sans-serif" font-size="14" lengthAdjust="spacing" textLength="129.5205" x="799.26" y="350.3613">&#26029;&#32447;: 5&#31186; + &#26085;&#24535;&#21435;&#37325;</text><text fill="#000000" font-family="sans-serif" font-size="14" lengthAdjust="spacing" textLength="129.1377" x="799.26" y="367.9707">&#28165;&#29702;: 120&#31186;&#20840;&#19981;&#27963;&#36291;</text></g><!--entity h2db--><g id="elem_h2db"><path d="M298.76,895.6094 C298.76,885.6094 391.6355,885.6094 391.6355,885.6094 C391.6355,885.6094 484.511,885.6094 484.511,895.6094 L484.511,939.8281 C484.511,949.8281 391.6355,949.8281 391.6355,949.8281 C391.6355,949.8281 298.76,949.8281 298.76,939.8281 L298.76,895.6094 " fill="#F1F1F1" style="stroke:#181818;stroke-width:0.5;"/><path d="M298.76,895.6094 C298.76,905.6094 391.6355,905.6094 391.6355,905.6094 C391.6355,905.6094 484.511,905.6094 484.511,895.6094 " fill="none" style="stroke:#181818;stroke-width:0.5;"/><text fill="#000000" font-family="sans-serif" font-size="14" lengthAdjust="spacing" textLength="81.7168" x="308.76" y="924.1426">H2 Database</text><text fill="#000000" font-family="sans-serif" font-size="14" lengthAdjust="spacing" textLength="165.751" x="308.76" y="941.752">tables: player, game_room</text></g><!--entity playerEntity--><g id="elem_playerEntity"><rect fill="#F1F1F1" height="100.4375" rx="2.5" ry="2.5" style="stroke:#181818;stroke-width:0.5;" width="183.1377" x="579.26" y="716.6094"/><rect fill="#F1F1F1" height="10" style="stroke:#181818;stroke-width:0.5;" width="15" x="742.3977" y="721.6094"/><rect fill="#F1F1F1" height="2" style="stroke:#181818;stroke-width:0.5;" width="4" x="740.3977" y="723.6094"/><rect fill="#F1F1F1" height="2" style="stroke:#181818;stroke-width:0.5;" width="4" x="740.3977" y="727.6094"/><text fill="#000000" font-family="sans-serif" font-size="14" lengthAdjust="spacing" textLength="69.2549" x="594.26" y="751.1426">Player.java</text><text fill="#000000" font-family="sans-serif" font-size="14" lengthAdjust="spacing" textLength="143.1377" x="594.26" y="768.752">lastActivity: Timestamp</text><text fill="#000000" font-family="sans-serif" font-size="14" lengthAdjust="spacing" textLength="98.4033" x="594.26" y="786.3613">&#8595; SQL &#23454;&#26102;&#22238;&#35835;</text><text fill="#000000" font-family="sans-serif" font-size="14" lengthAdjust="spacing" textLength="112" x="594.26" y="803.9707">&#36991;&#20813;&#36807;&#26399;&#20869;&#23384;&#35823;&#21028;</text></g><!--entity roomEntity--><g id="elem_roomEntity"><rect fill="#F1F1F1" height="100.4375" rx="2.5" ry="2.5" style="stroke:#181818;stroke-width:0.5;" width="198.0127" x="26.76" y="716.6094"/><rect fill="#F1F1F1" height="10" style="stroke:#181818;stroke-width:0.5;" width="15" x="204.7727" y="721.6094"/><rect fill="#F1F1F1" height="2" style="stroke:#181818;stroke-width:0.5;" width="4" x="202.7727" y="723.6094"/><rect fill="#F1F1F1" height="2" style="stroke:#181818;stroke-width:0.5;" width="4" x="202.7727" y="727.6094"/><text fill="#000000" font-family="sans-serif" font-size="14" lengthAdjust="spacing" textLength="105.041" x="41.76" y="751.1426">GameRoom.java</text><text fill="#000000" font-family="sans-serif" font-size="14" lengthAdjust="spacing" textLength="158.0127" x="41.76" y="768.752">disconnectedLogged: Set</text><text fill="#000000" font-family="sans-serif" font-size="14" lengthAdjust="spacing" textLength="94.5" x="41.76" y="786.3613">&#8595; &#26029;&#32447;&#26085;&#24535;&#21435;&#37325;</text><text fill="#000000" font-family="sans-serif" font-size="14" lengthAdjust="spacing" textLength="150.5" x="41.76" y="803.9707">&#8595; &#36991;&#20813;&#23450;&#26102;&#20219;&#21153;&#37325;&#22797;&#21047;&#23631;</text></g><!--entity playerDao--><g id="elem_playerDao"><rect fill="#F1F1F1" height="65.2188" rx="2.5" ry="2.5" style="stroke:#181818;stroke-width:0.5;" width="145.0752" x="399.26" y="734.1094"/><rect fill="#F1F1F1" height="10" style="stroke:#181818;stroke-width:0.5;" width="15" x="524.3352" y="739.1094"/><rect fill="#F1F1F1" height="2" style="stroke:#181818;stroke-width:0.5;" width="4" x="522.3352" y="741.1094"/><rect fill="#F1F1F1" height="2" style="stroke:#181818;stroke-width:0.5;" width="4" x="522.3352" y="745.1094"/><text fill="#000000" font-family="sans-serif" font-size="14" lengthAdjust="spacing" textLength="65.3652" x="414.26" y="768.6426">PlayerDao</text><text fill="#000000" font-family="sans-serif" font-size="14" lengthAdjust="spacing" textLength="105.0752" x="414.26" y="786.252">findById / update</text></g><!--entity gameDao--><g id="elem_gameDao"><rect fill="#F1F1F1" height="47.6094" rx="2.5" ry="2.5" style="stroke:#181818;stroke-width:0.5;" width="103.8066" x="259.76" y="742.6094"/><rect fill="#F1F1F1" height="10" style="stroke:#181818;stroke-width:0.5;" width="15" x="343.5666" y="747.6094"/><rect fill="#F1F1F1" height="2" style="stroke:#181818;stroke-width:0.5;" width="4" x="341.5666" y="749.6094"/><rect fill="#F1F1F1" height="2" style="stroke:#181818;stroke-width:0.5;" width="4" x="341.5666" y="753.6094"/><text fill="#000000" font-family="sans-serif" font-size="14" lengthAdjust="spacing" textLength="63.8066" x="274.76" y="777.1426">GameDao</text></g><g id="elem_GMN54"><path d="M921.76,708.6094 L921.76,824.7188 A0,0 0 0 0 921.76,824.7188 L1153.9592,824.7188 A0,0 0 0 0 1153.9592,824.7188 L1153.9592,718.6094 L1143.9592,708.6094 L1041.76,708.6094 L1037.76,580.2794 L1033.76,708.6094 L921.76,708.6094 A0,0 0 0 0 921.76,708.6094 " fill="#FEFFDD" style="stroke:#181818;stroke-width:0.5;"/><path d="M1143.9592,708.6094 L1143.9592,718.6094 L1153.9592,718.6094 L1143.9592,708.6094 " fill="#FEFFDD" style="stroke:#181818;stroke-width:0.5;"/><text fill="#000000" font-family="sans-serif" font-size="13" lengthAdjust="spacing" textLength="55.6118" x="927.76" y="727.1045">&#21028;&#23450;&#35268;&#21017;:</text><text fill="#000000" font-family="sans-serif" font-size="13" lengthAdjust="spacing" textLength="157.3774" x="927.76" y="743.4561">&#8226; lastActivity == null &#8594; &#31163;&#32447;</text><text fill="#000000" font-family="sans-serif" font-size="13" lengthAdjust="spacing" textLength="211.1992" x="927.76" y="759.8076">&#8226; now - lastActivity &gt; 5000ms &#8594; &#31163;&#32447;</text><text fill="#000000" font-family="sans-serif" font-size="13" lengthAdjust="spacing" textLength="124.4458" x="927.76" y="776.1592">&#8226; &#20174; DB &#35835;&#21462; (&#38750;&#20869;&#23384;)</text><line style="stroke:#181818;stroke-width:1;" x1="922.76" x2="1152.9592" y1="779.0156" y2="779.0156"/><line style="stroke:#181818;stroke-width:1;" x1="922.76" x2="1152.9592" y1="781.0156" y2="781.0156"/><text fill="#000000" font-family="sans-serif" font-size="13" lengthAdjust="spacing" textLength="163.2236" x="927.76" y="796.5107">&#24515;&#36339;&#26469;&#28304;: &#21069;&#31471;&#20219;&#20309;&#35831;&#27714;&#37117;&#20250;</text><text fill="#000000" font-family="sans-serif" font-size="13" lengthAdjust="spacing" textLength="193.5908" x="927.76" y="812.8623">&#35302;&#21457; Controller &#23618;&#26356;&#26032; lastActivity</text></g><g id="elem_GMN57"><path d="M517.76,476.6094 L517.76,601.0703 A0,0 0 0 0 517.76,601.0703 L752.2317,601.0703 A0,0 0 0 0 752.2317,601.0703 L752.2317,486.6094 L742.2317,476.6094 L711.6,476.6094 L821.39,380.6894 L703.6,476.6094 L517.76,476.6094 A0,0 0 0 0 517.76,476.6094 " fill="#FEFFDD" style="stroke:#181818;stroke-width:0.5;"/><path d="M742.2317,476.6094 L742.2317,486.6094 L752.2317,486.6094 L742.2317,476.6094 " fill="#FEFFDD" style="stroke:#181818;stroke-width:0.5;"/><text fill="#000000" font-family="sans-serif" font-size="13" lengthAdjust="spacing" textLength="159.3135" x="523.76" y="495.1045">&#23450;&#26102;&#20219;&#21153; (fixedRate=5000):</text><text fill="#000000" font-family="sans-serif" font-size="13" lengthAdjust="spacing" textLength="177.6963" x="523.76" y="511.4561">1. &#36941;&#21382; rooms map &#20013;&#27599;&#20010;&#25151;&#38388;</text><text fill="#000000" font-family="sans-serif" font-size="13" lengthAdjust="spacing" textLength="208.749" x="523.76" y="527.8076">2. &#20174; DB &#22238;&#35835;&#27599;&#20010;&#29609;&#23478;&#30340; lastActivity</text><text fill="#000000" font-family="sans-serif" font-size="13" lengthAdjust="spacing" textLength="213.4717" x="523.76" y="544.1592">3. &#21333;&#29609;&#23478;&#26029;&#32447; (PLAYING &#20013;, idle&gt;5s)</text><text fill="#000000" font-family="sans-serif" font-size="13" lengthAdjust="spacing" textLength="187.2939" x="534.5954" y="560.5107">&#8594; &#26085;&#24535;&#21435;&#37325;&#21518;&#20889; "XXX &#24322;&#24120;&#26029;&#24320;"</text><text fill="#000000" font-family="sans-serif" font-size="13" lengthAdjust="spacing" textLength="177.3599" x="523.76" y="576.8623">4. &#20840;&#25151;&#38388;&#19981;&#27963;&#36291; (all idle&gt;120s)</text><text fill="#000000" font-family="sans-serif" font-size="13" lengthAdjust="spacing" textLength="129.3145" x="534.5954" y="593.2139">&#8594; &#32423;&#32852;&#21024;&#38500; DB + &#20869;&#23384;</text></g><!--link actionPage to smartPoll--><g id="link_actionPage_smartPoll"><path d="M2087.68,363.1794 C2087.62,387.9894 2083.9,422.2994 2066.76,446.6094 C2044.34,478.4094 2012.6307,497.9861 1979.3107,512.3361 " fill="none" id="actionPage-to-smartPoll" style="stroke:#181818;stroke-width:1;"/><polygon fill="#181818" points="1973.8,514.7094,1983.6482,514.8232,1978.3922,512.7316,1980.4838,507.4757,1973.8,514.7094" style="stroke:#181818;stroke-width:1;"/></g><!--link guessPage to smartPoll--><g id="link_guessPage_smartPoll"><path d="M2224.6,363.3394 C2219.61,389.0894 2208.81,424.6094 2185.76,446.6094 C2128.17,501.5694 2043.1849,522.5284 1979.9949,531.1484 " fill="none" id="guessPage-to-smartPoll" style="stroke:#181818;stroke-width:1;"/><polygon fill="#181818" points="1974.05,531.9594,1983.5081,534.7062,1979.0041,531.2836,1982.4268,526.7796,1974.05,531.9594" style="stroke:#181818;stroke-width:1;"/></g><!--link waitingPage to smartPoll--><g id="link_waitingPage_smartPoll"><path d="M1524.77,363.2294 C1538.06,378.3494 1555.9,395.1694 1575.76,404.6094 C1603.64,417.8594 1614.72,405.4794 1644.76,412.6094 C1687.58,422.7694 1695.4,434.6794 1737.76,446.6094 C1771.36,456.0694 1783.39,446.7994 1814.76,462.1094 C1836.83,472.8794 1853.5498,486.3451 1869.5098,501.8751 " fill="none" id="waitingPage-to-smartPoll" style="stroke:#181818;stroke-width:1;"/><polygon fill="#181818" points="1873.81,506.0594,1870.1493,496.9161,1870.2265,502.5724,1864.5702,502.6497,1873.81,506.0594" style="stroke:#181818;stroke-width:1;"/></g><!--link lobbyPage to smartPoll--><g id="link_lobbyPage_smartPoll"><path d="M1819.01,363.3494 C1837.62,402.0594 1866.2814,461.7013 1884.8914,500.4313 " fill="none" id="lobbyPage-to-smartPoll" style="stroke:#181818;stroke-width:1;"/><polygon fill="#181818" points="1887.49,505.8394,1887.1975,495.9949,1885.3245,501.3326,1879.9867,499.4597,1887.49,505.8394" style="stroke:#181818;stroke-width:1;"/></g><!--link spectatePage to smartPoll--><g id="link_spectatePage_smartPoll"><path d="M1687.86,363.4094 C1701.98,376.5494 1718.84,391.6994 1734.76,404.6094 C1768.77,432.1894 1780.33,435.0494 1814.76,462.1094 C1832.49,476.0394 1847.0273,488.2966 1862.8573,502.0966 " fill="none" id="spectatePage-to-smartPoll" style="stroke:#181818;stroke-width:1;"/><polygon fill="#181818" points="1867.38,506.0394,1863.2244,497.1101,1863.6111,502.7538,1857.9675,503.1404,1867.38,506.0394" style="stroke:#181818;stroke-width:1;"/></g><!--link resultPage to smartPoll--><g id="link_resultPage_smartPoll"><path d="M1937.44,363.3494 C1929.74,402.0594 1917.9614,461.2248 1910.2514,499.9548 " fill="none" id="resultPage-to-smartPoll" style="stroke:#181818;stroke-width:1;"/><polygon fill="#181818" points="1909.08,505.8394,1914.7602,497.7935,1910.0562,500.9356,1906.9141,496.2316,1909.08,505.8394" style="stroke:#181818;stroke-width:1;"/></g><!--link smartPoll to visibility--><g id="link_smartPoll_visibility"><path d="M1901.63,571.5094 C1900.11,614.5794 1897.6234,684.8832 1896.0934,727.8732 " fill="none" id="smartPoll-to-visibility" style="stroke:#181818;stroke-width:1;"/><polygon fill="#181818" points="1895.88,733.8694,1900.1976,725.0173,1896.0578,728.8725,1892.2026,724.7328,1895.88,733.8694" style="stroke:#181818;stroke-width:1;"/><text fill="#000000" font-family="sans-serif" font-size="13" lengthAdjust="spacing" textLength="26" x="1927.5659" y="645.1045">&#30417;&#21548;</text><text fill="#000000" font-family="sans-serif" font-size="13" lengthAdjust="spacing" textLength="81.6118" x="1899.76" y="661.4561">&#39029;&#38754;&#38544;&#34255;/&#24674;&#22797;</text></g><!--link smartPoll to createPoller--><g id="link_smartPoll_createPoller"><path d="M1861.54,571.2294 C1841.58,587.6894 1818.04,608.8794 1799.76,630.6094 C1772.49,663.0394 1750.809,700.0028 1735.619,728.5428 " fill="none" id="smartPoll-to-createPoller" style="stroke:#181818;stroke-width:1;"/><polygon fill="#181818" points="1732.8,733.8394,1740.5595,727.7739,1735.1492,729.4256,1733.4975,724.0152,1732.8,733.8394" style="stroke:#181818;stroke-width:1;"/><text fill="#000000" font-family="sans-serif" font-size="13" lengthAdjust="spacing" textLength="88.8481" x="1800.76" y="645.1045">&#27599;&#38548; intervalMs</text><text fill="#000000" font-family="sans-serif" font-size="13" lengthAdjust="spacing" textLength="78" x="1806.1841" y="661.4561">&#35843;&#29992;&#36718;&#35810;&#20989;&#25968;</text></g><!--link createPoller to apiRoom--><g id="link_createPoller_apiRoom"><path d="M1658.61,733.9094 C1608.58,704.7094 1536.49,657.8494 1484.76,604.1094 C1432.78,550.0994 1436.96,523.3694 1393.76,462.1094 C1374.36,434.5994 1355.2103,409.5568 1336.1403,385.4268 " fill="none" id="createPoller-to-apiRoom" style="stroke:#181818;stroke-width:1;"/><polygon fill="#181818" points="1332.42,380.7194,1334.8621,390.2607,1335.5202,384.6422,1341.1387,385.3003,1332.42,380.7194" style="stroke:#181818;stroke-width:1;"/><text fill="#000000" font-family="sans-serif" font-size="13" lengthAdjust="spacing" textLength="137.2808" x="1485.76" y="536.1045">GET /api/room/{roomId}</text><text fill="#000000" font-family="sans-serif" font-size="13" lengthAdjust="spacing" textLength="116.0034" x="1496.3987" y="552.4561">?playerId={playerId}</text></g><!--link otherAPI to apiRoom--><g id="link_otherAPI_apiRoom"><path d="M1292.76,180.8094 C1292.76,211.1594 1292.76,243.9494 1292.76,274.3194 " fill="none" id="otherAPI-to-apiRoom" style="stroke:#181818;stroke-width:1;"/><polygon fill="#181818" points="1292.76,280.3194,1296.76,271.3194,1292.76,275.3194,1288.76,271.3194,1292.76,280.3194" style="stroke:#181818;stroke-width:1;"/><text fill="#000000" font-family="sans-serif" font-size="13" lengthAdjust="spacing" textLength="78" x="1293.76" y="225.1045">&#22797;&#29992;&#29366;&#24577;&#26597;&#35810;</text></g><!--link apiRoom to onlineCheck--><g id="link_apiRoom_onlineCheck"><path d="M1215.83,380.7194 C1199.44,389.6794 1181.89,398.1994 1164.76,404.6094 C1147.78,410.9594 1139.92,402.6694 1124.76,412.6094 C1108.12,423.5094 1084.0953,459.6715 1064.5453,491.8515 " fill="none" id="apiRoom-to-onlineCheck" style="stroke:#181818;stroke-width:1;"/><polygon fill="#181818" points="1061.43,496.9794,1069.5215,491.3644,1064.0261,492.7062,1062.6843,487.2107,1061.43,496.9794" style="stroke:#181818;stroke-width:1;"/><text fill="#000000" font-family="sans-serif" font-size="13" lengthAdjust="spacing" textLength="122.0845" x="1125.76" y="427.1045">&#35843;&#29992; isPlayerOnline()</text><text fill="#000000" font-family="sans-serif" font-size="13" lengthAdjust="spacing" textLength="78" x="1147.8022" y="443.4561">&#21028;&#23450;&#20854;&#20182;&#29609;&#23478;</text></g><!--link apiRoom to playerDao--><g id="link_apiRoom_playerDao"><path d="M1281.27,380.7894 C1264.91,440.8394 1229.44,542.0494 1164.76,604.1094 C1114.67,652.1694 1088.69,650.2994 1020.76,664.6094 C995.8,669.8694 585.15,662.4494 561.76,672.6094 C532.7,685.2294 511.9175,707.3352 495.9075,728.9852 " fill="none" id="apiRoom-to-playerDao" style="stroke:#181818;stroke-width:1;"/><polygon fill="#181818" points="492.34,733.8094,500.9074,728.9514,495.3129,729.7892,494.4751,724.1947,492.34,733.8094" style="stroke:#181818;stroke-width:1;"/><text fill="#000000" font-family="sans-serif" font-size="13" lengthAdjust="spacing" textLength="109.8208" x="1253.76" y="536.1045">update(lastActivity)</text><text fill="#000000" font-family="sans-serif" font-size="13" lengthAdjust="spacing" textLength="67.9009" x="1274.72" y="552.4561">&#20889;&#20837; H2 DB</text></g><!--link onlineCheck to playerDao--><g id="link_onlineCheck_playerDao"><path d="M992.4,580.1194 C956.11,609.7194 902.42,647.5594 847.76,664.6094 C817.41,674.0794 590.85,659.7994 561.76,672.6094 C532.77,685.3794 511.9857,707.4812 495.9557,729.0812 " fill="none" id="onlineCheck-to-playerDao" style="stroke:#181818;stroke-width:1;"/><polygon fill="#181818" points="492.38,733.8994,500.9556,729.056,495.3597,729.8843,494.5314,724.2884,492.38,733.8994" style="stroke:#181818;stroke-width:1;"/><text fill="#000000" font-family="sans-serif" font-size="13" lengthAdjust="spacing" textLength="55.6309" x="939.0859" y="645.1045">findById()</text><text fill="#000000" font-family="sans-serif" font-size="13" lengthAdjust="spacing" textLength="90.2827" x="921.76" y="661.4561">&#22238;&#35835; DB &#26368;&#26032;&#20540;</text></g><!--link joinRoom to onlineCheck--><g id="link_joinRoom_onlineCheck"><path d="M1049.17,372.4794 C1041.65,384.7494 1034.65,398.6794 1030.76,412.6094 C1023.11,440.0394 1024.2132,466.1983 1028.0032,490.9883 " fill="none" id="joinRoom-to-onlineCheck" style="stroke:#181818;stroke-width:1;"/><polygon fill="#181818" points="1028.91,496.9194,1031.5039,487.4182,1028.1544,491.9768,1023.5958,488.6273,1028.91,496.9194" style="stroke:#181818;stroke-width:1;"/><text fill="#000000" font-family="sans-serif" font-size="13" lengthAdjust="spacing" textLength="52" x="1031.76" y="435.1045">&#37325;&#36830;&#21028;&#23450;</text></g><!--link joinRoom to playerDao--><g id="link_joinRoom_playerDao"><path d="M1037.23,372.2094 C1023.72,383.7194 1008.25,395.5594 992.76,404.6094 C930.04,441.2594 893.59,413.3294 839.76,462.1094 C787.62,509.3494 822.87,557.9494 769.76,604.1094 C696.3,667.9494 644.22,620.9094 561.76,672.6094 C536.06,688.7194 516.2684,709.0795 499.6784,729.0995 " fill="none" id="joinRoom-to-playerDao" style="stroke:#181818;stroke-width:1;"/><polygon fill="#181818" points="495.85,733.7194,504.6725,729.3418,499.0403,729.8695,498.5126,724.2373,495.85,733.7194" style="stroke:#181818;stroke-width:1;"/><text fill="#000000" font-family="sans-serif" font-size="13" lengthAdjust="spacing" textLength="109.8208" x="840.76" y="544.1045">update(lastActivity)</text></g><!--link cleanupTask to playerDao--><g id="link_cleanupTask_playerDao"><path d="M784.25,341.5294 C648.09,357.8694 408.82,395.4594 356.76,462.1094 C290.34,547.1494 383.617,670.338 436.867,729.258 " fill="none" id="cleanupTask-to-playerDao" style="stroke:#181818;stroke-width:1;"/><polygon fill="#181818" points="440.89,733.7094,437.823,724.3502,437.5375,729.9999,431.8878,729.7143,440.89,733.7094" style="stroke:#181818;stroke-width:1;"/><text fill="#000000" font-family="sans-serif" font-size="13" lengthAdjust="spacing" textLength="55.6309" x="401.0923" y="536.1045">findById()</text><text fill="#000000" font-family="sans-serif" font-size="13" lengthAdjust="spacing" textLength="142.2954" x="357.76" y="552.4561">&#22238;&#35835; DB &#26368;&#26032; lastActivity</text></g><!--link cleanupTask to roomEntity--><g id="link_cleanupTask_roomEntity"><path d="M784.24,331.3894 C587.95,333.2694 150.36,350.2094 63.76,462.1094 C6,536.7494 53.567,646.495 91.087,711.395 " fill="none" id="cleanupTask-to-roomEntity" style="stroke:#181818;stroke-width:1;"/><polygon fill="#181818" points="94.09,716.5894,93.0484,706.7957,91.5875,712.2607,86.1226,710.7997,94.09,716.5894" style="stroke:#181818;stroke-width:1;"/><text fill="#000000" font-family="sans-serif" font-size="13" lengthAdjust="spacing" textLength="149.6016" x="64.76" y="544.1045">&#35835;&#20889; disconnectedLogged</text></g><!--link cleanupTask to gameDao--><g id="link_cleanupTask_gameDao"><path d="M784.08,335.6694 C621.96,344.9094 305.04,374.0794 245.76,462.1094 C185.07,552.2294 257.5441,683.4761 292.5441,737.4161 " fill="none" id="cleanupTask-to-gameDao" style="stroke:#181818;stroke-width:1;"/><polygon fill="#181818" points="295.81,742.4494,294.2666,732.7222,293.0884,738.255,287.5556,737.0768,295.81,742.4494" style="stroke:#181818;stroke-width:1;"/><text fill="#000000" font-family="sans-serif" font-size="13" lengthAdjust="spacing" textLength="78" x="246.76" y="544.1045">&#32423;&#32852;&#21024;&#38500;&#25151;&#38388;</text></g><!--link playerDao to h2db--><g id="link_playerDao_h2db"><path d="M454.79,799.2094 C441.13,824.6694 424.8584,854.9732 411.2684,880.2832 " fill="none" id="playerDao-to-h2db" style="stroke:#181818;stroke-width:1;"/><polygon fill="#181818" points="408.43,885.5694,416.2117,879.5324,410.7953,881.1642,409.1634,875.7479,408.43,885.5694" style="stroke:#181818;stroke-width:1;"/></g><!--link gameDao to h2db--><g id="link_gameDao_h2db"><path d="M324.26,790.8894 C337.93,816.3494 357.0627,851.9726 372.2027,880.1826 " fill="none" id="gameDao-to-h2db" style="stroke:#181818;stroke-width:1;"/><polygon fill="#181818" points="375.04,885.4694,374.3085,875.6477,372.6756,881.0638,367.2595,879.4308,375.04,885.4694" style="stroke:#181818;stroke-width:1;"/></g><!--link apiRoom to updateUI--><g id="link_apiRoom_updateUI"><path d="M1373.26,380.6494 C1390.75,389.7194 1409.5,398.3094 1427.76,404.6094 C1447.79,411.5194 1456.09,402.5994 1474.76,412.6094 C1493.05,422.4194 1488.43,436.8794 1506.76,446.6094 C1544.94,466.8694 1562.44,446.5394 1602.76,462.1094 C1630.22,472.7094 1653.1082,486.9295 1674.5782,502.5495 " fill="none" id="apiRoom-to-updateUI" style="stroke:#181818;stroke-width:1;"/><polygon fill="#181818" points="1679.43,506.0794,1674.5055,497.5501,1675.3868,503.1378,1669.799,504.0192,1679.43,506.0794" style="stroke:#181818;stroke-width:1;"/><text fill="#000000" font-family="sans-serif" font-size="13" lengthAdjust="spacing" textLength="64.2827" x="1519.3381" y="427.1045">&#36820;&#22238; JSON</text><text fill="#000000" font-family="sans-serif" font-size="13" lengthAdjust="spacing" textLength="87.439" x="1507.76" y="443.4561">players[].online</text></g><!--link updateUI to actionPage--><g id="link_updateUI_actionPage"><path d="M1752.03,506.0494 C1769.54,490.8994 1792.05,473.5894 1814.76,462.1094 C1837.81,450.4594 1846.17,454.4894 1870.76,446.6094 C1912.67,433.1694 1921.17,423.6894 1963.76,412.6094 C1985.54,406.9394 1993.75,414.9094 2013.76,404.6094 C2032.75,394.8294 2045.8706,382.7481 2058.5806,367.8181 " fill="none" id="updateUI-to-actionPage" style="stroke:#181818;stroke-width:1;"/><polygon fill="#181818" points="2062.47,363.2494,2053.5902,367.5095,2059.2289,367.0566,2059.6818,372.6953,2062.47,363.2494" style="stroke:#181818;stroke-width:1;"/><text fill="#000000" font-family="sans-serif" font-size="13" lengthAdjust="spacing" textLength="93.8818" x="1964.76" y="435.1045">&#28210;&#26579; (&#26029;&#32447;) &#26631;&#35760;</text></g><!--link updateUI to guessPage--><g id="link_updateUI_guessPage"><path d="M1748.99,505.9394 C1766.52,489.7694 1789.99,471.5394 1814.76,462.1094 C1867.19,442.1394 2012.36,460.3194 2066.76,446.6094 C2109.95,435.7194 2121.4,430.3394 2157.76,404.6094 C2174.21,392.9694 2186.0675,381.6713 2198.6175,367.7813 " fill="none" id="updateUI-to-guessPage" style="stroke:#181818;stroke-width:1;"/><polygon fill="#181818" points="2202.64,363.3294,2193.6383,367.3257,2199.288,367.0393,2199.5743,372.6889,2202.64,363.3294" style="stroke:#181818;stroke-width:1;"/></g><!--link updateUI to waitingPage--><g id="link_updateUI_waitingPage"><path d="M1697.55,506.0694 C1676.83,477.6294 1642.79,436.6794 1603.76,412.6094 C1592.74,405.8194 1586.96,411.0994 1575.76,404.6094 C1557.36,393.9494 1544.1911,382.1969 1530.8811,367.7869 " fill="none" id="updateUI-to-waitingPage" style="stroke:#181818;stroke-width:1;"/><polygon fill="#181818" points="1526.81,363.3794,1529.9783,372.7047,1530.2026,367.0523,1535.855,367.2766,1526.81,363.3794" style="stroke:#181818;stroke-width:1;"/></g><!--link updateUI to lobbyPage--><g id="link_updateUI_lobbyPage"><path d="M1731.87,505.8394 C1747.85,467.1094 1772.4005,407.6054 1788.3805,368.8954 " fill="none" id="updateUI-to-lobbyPage" style="stroke:#181818;stroke-width:1;"/><polygon fill="#181818" points="1790.67,363.3494,1783.5384,370.1421,1788.7621,367.9711,1790.9331,373.1947,1790.67,363.3494" style="stroke:#181818;stroke-width:1;"/></g><!--link updateUI to spectatePage--><g id="link_updateUI_spectatePage"><path d="M1708.89,505.8394 C1696.86,467.1094 1678.4306,407.7891 1666.4006,369.0791 " fill="none" id="updateUI-to-spectatePage" style="stroke:#181818;stroke-width:1;"/><polygon fill="#181818" points="1664.62,363.3494,1663.4712,373.131,1666.1039,368.1241,1671.1107,370.7568,1664.62,363.3494" style="stroke:#181818;stroke-width:1;"/></g><!--link updateUI to resultPage--><g id="link_updateUI_resultPage"><path d="M1757.57,506.0894 C1789.48,479.7594 1835.51,440.7994 1873.76,404.6094 C1887.66,391.4594 1898.3024,380.6335 1910.6624,367.5335 " fill="none" id="updateUI-to-resultPage" style="stroke:#181818;stroke-width:1;"/><polygon fill="#181818" points="1914.78,363.1694,1905.6942,366.9705,1911.3487,366.8061,1911.513,372.4606,1914.78,363.1694" style="stroke:#181818;stroke-width:1;"/></g><!--SRC=[hLTjKnD94Fw-lsAA-s0evKNKBwdIEq6Bm-AKCrwLbh6kbcG8gvlPL7R1eooh4Y6GKo6elCYBe0Y2TqBq58W4vBzmcStca_SJhcScc-nkKdLrLUO3xFPqztG_q_tqx35qzXlzf6E8Bdmv-NL_dXuEMxiVpSKzcjv1HuafP2xjc4iZPY9lhQUHhqEBnZI2YO4kA78aBaSRcUc7wUBg7lrzlFXdrZhOih8hzCE3lnF93eqOSKrLSHm9jq8SmF519OIH-JfXRZyICdFwlJc-1S-5puzAiv-AyoF5_4WXlqDJ7uiVyx37DyjKCXH3nQZqzXrD9ynSpandU9xEn9qvIr9C3jsH8nWr_BCyiuRCxGn8wTm618jyT7Aaz6gxz695v0sXb-Qd6XkGhAFsk7PNn_5kUGZo_wvRYVGRDx2gQdVHFGd1BrI1ygOSCXIDDFSRKJL8V6rwuotcG4XxO6klVcG0wxfNdGlhQT-L5KCX4Ll_L5c_BAvdeMgzlKDUVIwifwt7SCYG3MmRd2uRsF9wDd6i3wY6RN6cR26aNF- -2_TdYqYKrwK0XnqyHG6msxg0-bB0YNAxEe1hCTQZSjpeWMhqzP4JKRqnICovFMluG1oS2DXMyTeEAhhIgwYACHJgbqa41qbnuGcTV0TLm0shwrxBK1m30bSrBTh36o58wEuQdNX0nmwWvBcnK17BNlE1M9YjgImx7IBE_MKkFwEB6yMzmnPpPXF-cI_7h2tXI2Z_qkN1xl4aSZOYhrhHZQarcdaj4AngE97iZ6DCQg7il7WDjSWnfIKEUGK9F7LYW-KOOCVjOz0kV39dtYDLretpKCM3W4oGM8TJT649QKHL24R5Xpjc8YaAFQOmwxhRHEGemDrp9G3FjpM5sC-yskqNqIdSbsRqu_Zv7ZS8H_DpNtCPP1CFnq2mZ_ao1s083ChBJW0wjBYirWAWwE98hl1KMCBYJ6XwbMxD1qdfUPeczlteJ77zgOYAAtRquz0Tho-M5CkUUIcDZLk7ItHrf3WvMXT4xiosgAar5Sja8DP561o3lEXqvlM7GAWVXmTK76QD1dvvuOZeq75apgxHmrawaOVTMOcbO7C_EjdM2iiqjL78ZPkVyjRki2XMiSSrMR_ZAREdNr25n07Tnyd2vnHzF2EWlI0RieshF8X969u4gb2oSg-iWuiVsxWQUmaI-AzYtOzY7ESJY9N1hwpSkBl-jd2lDtjn8istvK4vI9oO-T4r9OfrGux6WkHez1aA_DoDwDQIERi3vMXbyu1xyf2c0FenSt6PZgRevdChcuN3v2cB42uIeqvxTq9O3EVojc553sc40EtXSBSMYU2m7whA4DkM-zM5DfEBpQ5k8A12FayVle8bkZfEqxlqGqRm8cnHFm2HzGLP2v8-XOJRXxh2gANC18xeGQ5Uw20MeqCyinCzXfgQcbY7m2WJvsbk9vbCgeuZU3td8ClAuF787GF6ir8P9HwvSs9ubggZmRCWLHxvGfMAaHy9beRpvIEwD3zfpMPQpEGAeEinSv8m69hP3Cnnf103E45MVmAciTuF5wSsojSRpjwIouXvAHCPE71HPCizzhShV3z8lXVdqHK-Uyz-kY_PdENn0L72Ze8dpUKrs5UIx5McwI0Lq1RneJhKn4c9fg2uPeeJR-dMZijBfK30XwWRdxDxc8FHEHWLYFLdk-JSr6jkLo3VbRSMM21pCG4q1dmeIJPprGc_J7qyLhVUVmKeIGvI-bynkQYrnakrwHYwsJp0W6eRlCQit4ki-lRMhUGKJRyipQsQwKDeA23CIcXCb_EORL0Hk8x77kei1Z4_BmMkN0uIuKY_UQjPu2XL57aHLNiLYfdV6e2JEG4r8d5bS1jKBuykiVEEw5geNWPTOjULpxNYkDf9H3CmwjKC0tBK-Zp3KPI0jJv2qtD-U3zAhBZE2Ru441c0jZqQVOgAR_AGKbcBmDMwoQrx3frfRMsDwhNAXVm4AmHshfaPv2kzM1B4tmZhy9M0xE-15slctgI_VFi4UYuSJ5lPNHFuSVYWi3yFYjRw6vfvuhbZrPdT4emzn5Al0S0vL65ZnoH0lZxbDno-2ZYUPPaqCaHEDiFC6ASJexn4THILOwYGsmJEAkJ-A1SQGctDTewYxCMo803ul7A7Xj2fPaJ7fyMoA1Jaw-a-VwFhSYTpVW8fOHMVW_i3doCSJ-SeevCJh3yQhb-_ZkZ-0mhVLJERT3_H0EgdmNLgGmHMkKqWdmndo9t2LSFfrjasBFpZI9nC5Rz_0G00]--></g></svg>