<svg xmlns="http://www.w3.org/2000/svg" xmlns:xlink="http://www.w3.org/1999/xlink" contentStyleType="text/css" height="1228px" preserveAspectRatio="none" style="width:897px;height:1228px;background:#FFFFFF;" version="1.1" viewBox="0 0 897 1228" width="897px" zoomAndPan="magnify"><title>&#25151;&#38388;&#29983;&#21629;&#21608;&#26399;&#29366;&#24577;&#26426;</title><defs/><g><text fill="#000000" font-family="Microsoft YaHei" font-size="14" font-weight="bold" lengthAdjust="spacing" textLength="126" x="378.9637" y="24.8135">&#25151;&#38388;&#29983;&#21629;&#21608;&#26399;&#29366;&#24577;&#26426;</text><g id="WAITING"><rect fill="#F1F1F1" height="50" rx="12.5" ry="12.5" style="stroke:#181818;stroke-width:0.5;" width="142.2881" x="151.84" y="185.4775"/><line style="stroke:#181818;stroke-width:0.5;" x1="151.84" x2="294.1281" y1="213.9551" y2="213.9551"/><text fill="#000000" font-family="Microsoft YaHei" font-size="14" lengthAdjust="spacing" textLength="122.2881" x="161.84" y="205.291">WAITING &#31561;&#24453;&#29609;&#23478;</text></g><g id="GUESS"><rect fill="#F1F1F1" height="50" rx="12.5" ry="12.5" style="stroke:#181818;stroke-width:0.5;" width="124.8633" x="160.34" y="371.4775"/><line style="stroke:#181818;stroke-width:0.5;" x1="160.34" x2="285.2033" y1="399.9551" y2="399.9551"/><text fill="#000000" font-family="Microsoft YaHei" font-size="14" lengthAdjust="spacing" textLength="104.8633" x="170.34" y="391.291">GUESS &#29468;&#25331;&#38454;&#27573;</text></g><g id="ACTION"><rect fill="#F1F1F1" height="50" rx="12.5" ry="12.5" style="stroke:#181818;stroke-width:0.5;" width="134.29" x="155.84" y="683.4775"/><line style="stroke:#181818;stroke-width:0.5;" x1="155.84" x2="290.13" y1="711.9551" y2="711.9551"/><text fill="#000000" font-family="Microsoft YaHei" font-size="14" lengthAdjust="spacing" textLength="114.29" x="165.84" y="703.291">ACTION &#34892;&#21160;&#38454;&#27573;</text></g><g id="FINISHED"><rect fill="#F1F1F1" height="50" rx="12.5" ry="12.5" style="stroke:#181818;stroke-width:0.5;" width="144.4619" x="150.84" y="938.4775"/><line style="stroke:#181818;stroke-width:0.5;" x1="150.84" x2="295.3019" y1="966.9551" y2="966.9551"/><text fill="#000000" font-family="Microsoft YaHei" font-size="14" lengthAdjust="spacing" textLength="124.4619" x="160.84" y="958.291">FINISHED &#28216;&#25103;&#32467;&#26463;</text></g><ellipse cx="140.84" cy="75.9775" fill="#222222" rx="10" ry="10" style="stroke:#222222;stroke-width:1;"/><ellipse cx="222.84" cy="1078.4775" fill="none" rx="11" ry="11" style="stroke:#222222;stroke-width:1;"/><ellipse cx="222.84" cy="1078.4775" fill="#222222" rx="6" ry="6" style="stroke:#222222;stroke-width:1;"/><g id="elem_GMN2"><path d="M222.84,45.4775 L222.84,106.9507 L387.2399,106.9507 L387.2399,55.4775 L377.2399,45.4775 L222.84,45.4775 " fill="#FEFFDD" style="stroke:#181818;stroke-width:0.5;"/><path d="M377.2399,45.4775 L377.2399,55.4775 L387.2399,55.4775 L377.2399,45.4775 " fill="#FEFFDD" style="stroke:#181818;stroke-width:1;"/><text fill="#000000" font-family="Microsoft YaHei" font-size="13" lengthAdjust="spacing" textLength="143.3999" x="228.84" y="64.2329">&#29609;&#23478;&#21487;&#22312; WAITING &#29366;&#24577;</text><text fill="#000000" font-family="Microsoft YaHei" font-size="13" lengthAdjust="spacing" textLength="109.5542" x="228.84" y="81.3906">&#33258;&#30001;&#21152;&#20837;/&#31163;&#24320;&#25151;&#38388;</text><text fill="#000000" font-family="Microsoft YaHei" font-size="13" lengthAdjust="spacing" textLength="139.6421" x="228.84" y="98.5483">&#22823;&#21381;&#26174;&#31034;&#29609;&#23478;&#21015;&#34920;+&#32842;&#22825;</text></g><g id="elem_GMN5"><path d="M662.34,314.4775 L662.34,392.4775 L285.6,396.4775 L662.34,400.4775 L662.34,478.897 A0,0 0 0 0 662.34,478.897 L890.9274,478.897 A0,0 0 0 0 890.9274,478.897 L890.9274,324.4775 L880.9274,314.4775 L662.34,314.4775 A0,0 0 0 0 662.34,314.4775 " fill="#FEFFDD" style="stroke:#181818;stroke-width:0.5;"/><path d="M880.9274,314.4775 L880.9274,324.4775 L890.9274,324.4775 L880.9274,314.4775 " fill="#FEFFDD" style="stroke:#181818;stroke-width:0.5;"/><text fill="#000000" font-family="Microsoft YaHei" font-size="13" font-weight="bold" lengthAdjust="spacing" textLength="52" x="668.34" y="333.2329">&#20986;&#25331;&#35268;&#21017;</text><text fill="#000000" font-family="Microsoft YaHei" font-size="13" lengthAdjust="spacing" textLength="85.6934" x="668.34" y="350.3906">&#30707;&#22836; &#8594; &#20811;&#21098;&#20992;</text><text fill="#000000" font-family="Microsoft YaHei" font-size="13" lengthAdjust="spacing" textLength="72.6934" x="668.34" y="367.5483">&#21098;&#20992; &#8594; &#20811;&#24067;</text><text fill="#000000" font-family="Microsoft YaHei" font-size="13" lengthAdjust="spacing" textLength="80.3867" x="668.34" y="384.7061">&#24067;   &#8594; &#20811;&#30707;&#22836;</text><text fill="#000000" font-family="Microsoft YaHei" font-size="13" lengthAdjust="spacing" textLength="3.8467" x="668.34" y="401.8638">&#160;</text><text fill="#000000" font-family="Microsoft YaHei" font-size="13" font-weight="bold" lengthAdjust="spacing" textLength="195.3174" x="668.34" y="419.0215">&#21028;&#23450;&#31639;&#27861; (processGuessResult)</text><text fill="#000000" font-family="Microsoft YaHei" font-size="13" lengthAdjust="spacing" textLength="118.5996" x="668.34" y="436.1792">1. &#21435;&#37325;&#32479;&#35745;&#25163;&#21183;&#31181;&#31867;</text><text fill="#000000" font-family="Microsoft YaHei" font-size="13" lengthAdjust="spacing" textLength="116.3145" x="668.34" y="453.3369">2. &#31181;&#31867; != 2 &#8594; &#24179;&#23616;</text><text fill="#000000" font-family="Microsoft YaHei" font-size="13" lengthAdjust="spacing" textLength="207.5874" x="668.34" y="470.4946">3. &#31181;&#31867; = 2 &#8594; &#32988;&#26041;&#27493;&#25968; = &#36133;&#26041;&#20154;&#25968;</text></g><g id="elem_GMN8"><path d="M635.84,557.4775 L635.84,704.4775 L289.87,708.4775 L635.84,712.4775 L635.84,859.1587 A0,0 0 0 0 635.84,859.1587 L865.424,859.1587 A0,0 0 0 0 865.424,859.1587 L865.424,567.4775 L855.424,557.4775 L635.84,557.4775 A0,0 0 0 0 635.84,557.4775 " fill="#FEFFDD" style="stroke:#181818;stroke-width:0.5;"/><path d="M855.424,557.4775 L855.424,567.4775 L865.424,567.4775 L855.424,557.4775 " fill="#FEFFDD" style="stroke:#181818;stroke-width:0.5;"/><text fill="#000000" font-family="Microsoft YaHei" font-size="13" font-weight="bold" lengthAdjust="spacing" textLength="178.9595" x="641.84" y="576.2329">8&#31181;&#34892;&#21160; (switch actionType)</text><text fill="#000000" font-family="Microsoft YaHei" font-size="13" lengthAdjust="spacing" textLength="97.4111" x="641.84" y="593.3906">0 &#25918;&#24323; - &#28040;&#32791;1&#27493;</text><text fill="#000000" font-family="Microsoft YaHei" font-size="13" lengthAdjust="spacing" textLength="111.8521" x="641.84" y="610.5483">1 &#31227;&#21160; - &#22478;&#20869;&#8596;&#22478;&#22806;</text><text fill="#000000" font-family="Microsoft YaHei" font-size="13" lengthAdjust="spacing" textLength="120.25" x="641.84" y="627.7061">2 &#20080;&#39532; - horse=true</text><text fill="#000000" font-family="Microsoft YaHei" font-size="13" lengthAdjust="spacing" textLength="116.0542" x="641.84" y="644.8638">3 &#20080;&#20992; - knife=true</text><text fill="#000000" font-family="Microsoft YaHei" font-size="13" lengthAdjust="spacing" textLength="143.9204" x="641.84" y="662.0215">4 &#36386;   - &#20260;&#23475;3(buff*2=6)</text><text fill="#000000" font-family="Microsoft YaHei" font-size="13" lengthAdjust="spacing" textLength="143.9204" x="641.84" y="679.1792">5 &#21050;   - &#20260;&#23475;1(buff*2=2)</text><text fill="#000000" font-family="Microsoft YaHei" font-size="13" lengthAdjust="spacing" textLength="158.0884" x="641.84" y="696.3369">6 &#34880;&#31085; - HP&#20943;&#21322;,buff=true</text><text fill="#000000" font-family="Microsoft YaHei" font-size="13" lengthAdjust="spacing" textLength="128.7876" x="641.84" y="713.4946">7 &#25781;&#20837; - &#30446;&#26631;&#25512;&#20837;&#22478;&#24066;</text><text fill="#000000" font-family="Microsoft YaHei" font-size="13" lengthAdjust="spacing" textLength="3.8467" x="641.84" y="730.6523">&#160;</text><text fill="#000000" font-family="Microsoft YaHei" font-size="13" font-weight="bold" lengthAdjust="spacing" textLength="208.584" x="641.84" y="747.8101">&#26657;&#39564;&#35268;&#21017; (buildAvailableActions)</text><text fill="#000000" font-family="Microsoft YaHei" font-size="13" lengthAdjust="spacing" textLength="79.7773" x="641.84" y="764.9678">&#22987;&#32456;&#21487;&#29992;: 0/1</text><text fill="#000000" font-family="Microsoft YaHei" font-size="13" lengthAdjust="spacing" textLength="168.6191" x="641.84" y="782.1255">&#26465;&#20214;&#21487;&#29992;: 2(!horse) 3(!knife)</text><text fill="#000000" font-family="Microsoft YaHei" font-size="13" lengthAdjust="spacing" textLength="139.5913" x="676.4601" y="799.2832">4(&#22478;&#20869;+&#26377;&#39532;+&#21516;&#22478;&#20182;&#20154;)</text><text fill="#000000" font-family="Microsoft YaHei" font-size="13" lengthAdjust="spacing" textLength="116.9492" x="676.4601" y="816.4409">5(&#26377;&#20992;+&#21516;&#20301;&#32622;&#20182;&#20154;)</text><text fill="#000000" font-family="Microsoft YaHei" font-size="13" lengthAdjust="spacing" textLength="90.6128" x="676.4601" y="833.5986">6(!buff+HP&gt;1)</text><text fill="#000000" font-family="Microsoft YaHei" font-size="13" lengthAdjust="spacing" textLength="116.9492" x="676.4601" y="850.7563">7(&#22478;&#22806;+&#21516;&#20301;&#32622;&#20182;&#20154;)</text></g><!--link *start* to WAITING--><g id="link_*start*_WAITING"><path d="M137.7,85.8975 C132.9,101.2075 125.49,133.0075 137.84,155.4775 C144.57,167.7375 150.4038,174.2853 162.1038,182.0653 " fill="none" id="*start*-to-WAITING" style="stroke:#181818;stroke-width:1;"/><polygon fill="#181818" points="167.1,185.3875,161.8205,177.0733,162.9365,182.619,157.3908,183.7349,167.1,185.3875" style="stroke:#181818;stroke-width:1;"/><text fill="#000000" font-family="Microsoft YaHei" font-size="13" lengthAdjust="spacing" textLength="139.9912" x="138.84" y="151.2329">&#21019;&#24314;&#25151;&#38388; createRoom()</text></g><!--link WAITING to GUESS--><g id="link_WAITING_GUESS"><path d="M222.84,235.5275 C222.84,270.7975 222.84,330.1475 222.84,365.4175 " fill="none" id="WAITING-to-GUESS" style="stroke:#181818;stroke-width:1;"/><polygon fill="#181818" points="222.84,371.4175,226.84,362.4175,222.84,366.4175,218.84,362.4175,222.84,371.4175" style="stroke:#181818;stroke-width:1;"/><text fill="#000000" font-family="Microsoft YaHei" font-size="13" lengthAdjust="spacing" textLength="300.333" x="223.84" y="280.2329">&#20154;&#28385;/&#25151;&#20027;&#24378;&#21046;&#24320;&#22987; forceStart() | HP=10 | &#20998;&#37197;&#22478;&#24066;</text></g><!--link GUESS to ACTION--><g id="link_GUESS_ACTION"><path d="M160.13,418.5675 C119.61,435.8475 70.07,464.6775 45.84,508.4775 C6,580.4975 101.8344,645.7467 167.1644,680.5467 " fill="none" id="GUESS-to-ACTION" style="stroke:#181818;stroke-width:1;"/><polygon fill="#181818" points="172.46,683.3675,166.3972,675.6059,168.047,681.0168,162.6361,682.6667,172.46,683.3675" style="stroke:#181818;stroke-width:1;"/><text fill="#000000" font-family="Microsoft YaHei" font-size="13" lengthAdjust="spacing" textLength="306.7822" x="46.84" y="523.2329">&#20840;&#37096;&#20986;&#25331;+&#26377;&#32988;&#36127;(&#24688;&#22909;2&#31181;&#25163;&#21183;) | &#32988;&#26041;&#27493;&#25968;=&#36133;&#26041;&#20154;&#25968;</text></g><!--link ACTION to GUESS--><g id="link_ACTION_GUESS"><path d="M249.19,683.4775 C282.02,651.5975 336.41,591.7775 357.84,527.4775 C373.37,480.8675 328.943,446.7669 285.513,424.3769 " fill="none" id="ACTION-to-GUESS" style="stroke:#181818;stroke-width:1;"/><polygon fill="#181818" points="280.18,421.6275,286.3466,429.307,284.6242,423.9187,290.0124,422.1963,280.18,421.6275" style="stroke:#181818;stroke-width:1;"/><text fill="#000000" font-family="Microsoft YaHei" font-size="13" lengthAdjust="spacing" textLength="338.2031" x="360.84" y="523.2329">actionQueue&#31354;+&#22810;&#20154;&#23384;&#27963; | endRound() | phase=GUESS</text></g><!--link GUESS to GUESS--><g id="link_GUESS_GUESS"><path d="M285.67,373.9975 C305.09,374.4575 320.34,381.9475 320.34,396.4775 C320.34,411.0075 311.0883,418.3555 291.6683,418.8155 " fill="none" id="GUESS-to-GUESS" style="stroke:#181818;stroke-width:1;"/><polygon fill="#181818" points="285.67,418.9575,294.7622,422.7433,290.6686,418.8391,294.5728,414.7455,285.67,418.9575" style="stroke:#181818;stroke-width:1;"/><text fill="#000000" font-family="Microsoft YaHei" font-size="13" lengthAdjust="spacing" textLength="312.6475" x="326.34" y="401.7329">&#24179;&#23616;(1&#25110;3&#31181;&#25163;&#21183;) | &#28165;&#31354;guess | steps&#28165;&#38646; | round++</text></g><!--link ACTION to ACTION--><g id="link_ACTION_ACTION"><path d="M250.26,683.3575 C284.37,663.4575 324.84,671.8275 324.84,708.4775 C324.84,745.1275 289.5525,756.521 255.4425,736.621 " fill="none" id="ACTION-to-ACTION" style="stroke:#181818;stroke-width:1;"/><polygon fill="#181818" points="250.26,733.5975,256.0181,741.5878,254.5788,736.1171,260.0494,734.6778,250.26,733.5975" style="stroke:#181818;stroke-width:1;"/><text fill="#000000" font-family="Microsoft YaHei" font-size="13" lengthAdjust="spacing" textLength="281.1631" x="330.84" y="713.7329">&#24403;&#21069;&#29609;&#23478;&#34892;&#21160;&#21518;&#20173;&#26377;actionQueue | nextPlayer()</text></g><!--link ACTION to FINISHED--><g id="link_ACTION_FINISHED"><path d="M222.84,733.7375 C222.84,782.0975 222.84,883.9975 222.84,932.2875 " fill="none" id="ACTION-to-FINISHED" style="stroke:#181818;stroke-width:1;"/><polygon fill="#181818" points="222.84,938.2875,226.84,929.2875,222.84,933.2875,218.84,929.2875,222.84,938.2875" style="stroke:#181818;stroke-width:1;"/><text fill="#000000" font-family="Microsoft YaHei" font-size="13" lengthAdjust="spacing" textLength="289.7959" x="223.84" y="904.2329">&#20165;&#21097;1&#20154;&#23384;&#27963; | checkGameEnd() | winner=&#23384;&#27963;&#32773;</text></g><!--link FINISHED to *end*--><g id="link_FINISHED_*end*"><path d="M222.84,988.7175 C222.84,1013.2275 222.84,1043.9275 222.84,1061.4575 " fill="none" id="FINISHED-to-*end*" style="stroke:#181818;stroke-width:1;"/><polygon fill="#181818" points="222.84,1067.4575,226.84,1058.4575,222.84,1062.4575,218.84,1058.4575,222.84,1067.4575" style="stroke:#181818;stroke-width:1;"/><text fill="#000000" font-family="Microsoft YaHei" font-size="13" lengthAdjust="spacing" textLength="232.6162" x="223.84" y="1033.2329">2&#20998;&#38047;&#26080;&#27963;&#21160; | cleanupInactiveRooms()</text></g><!--link GMN2 to WAITING--><g id="link_GMN2_WAITING"><path d="M300.63,106.5475 C297.46,121.9875 292.02,140.6875 282.84,155.4775 C275.89,166.6675 265.95,176.9275 256.16,185.4175 " fill="none" id="GMN2-WAITING" style="stroke:#181818;stroke-width:1;stroke-dasharray:7.0,7.0;"/></g><rect fill="#DDDDDD" height="102.3877" id="_legend" rx="7.5" ry="7.5" style="stroke:#000000;stroke-width:1;" width="370.9307" x="256.4984" y="1106.4775"/><text fill="#000000" font-family="Microsoft YaHei" font-size="14" font-weight="bold" lengthAdjust="spacing" textLength="262.7939" x="261.4984" y="1126.291">3&#31181;&#25151;&#38388;&#29366;&#24577; x 2&#31181;&#23376;&#38454;&#27573; = &#23436;&#25972;&#29983;&#21629;&#21608;&#26399;</text><text fill="#000000" font-family="Microsoft YaHei" font-size="14" lengthAdjust="spacing" textLength="360.9307" x="261.4984" y="1144.7686">WAITING: &#31561;&#24453;&#29609;&#23478; &#8594; &#20154;&#28385;&#33258;&#21160;/&#25151;&#20027;&#24378;&#21046; &#8594; GUESS&#38454;&#27573;</text><text fill="#000000" font-family="Microsoft YaHei" font-size="14" lengthAdjust="spacing" textLength="255.2676" x="261.4984" y="1163.2461">GUESS &#8644; ACTION &#24490;&#29615;&#30452;&#21040;&#21482;&#21097;1&#20154;&#29983;&#23384;</text><text fill="#000000" font-family="Microsoft YaHei" font-size="14" lengthAdjust="spacing" textLength="214.3271" x="261.4984" y="1181.7236">FINISHED: &#28216;&#25103;&#32467;&#26463; &#8594; 2&#20998;&#38047;&#28165;&#29702;</text><text fill="#000000" font-family="Microsoft YaHei" font-size="14" lengthAdjust="spacing" textLength="291.5186" x="261.4984" y="1200.2012">&#25152;&#26377;&#29366;&#24577;&#21464;&#26356;&#22312; rooms.compute() &#20013;&#21407;&#23376;&#23436;&#25104;</text><!--SRC=[fLLRJnj757xVNt78InPSGcmIKbbo9DGcm4Cf1Qggglgmc7MmC5vhlSv5weCfCQm16qAuDH0PAbCCgXqYYELuWVmNv3Dh_ukUsV4wjje-nI_UET-PxrpccpEt8V05F-asZ0sEJuBF3ypyrDYvi9VBB3dFzgkuTqtW5t5ByTbmDAReoXnCgo4b4J4UQr5ZL9bJuRjmKDVYMiY0dvLXDIn9HjY8g6uEcpbyTOMl2cm_ryg7s0p5KE7MJuCZaoEZGs0NqtYTihCdM2hV0YKEJS3r6_hnqSG4sAlxREMyiLjcfG-EbsDsVGQ_cHpvVXJgXwkuN6Xp4dRNw_78wCZ4yADlWLKgp5ophTViRSxnSn59-gNdL-ZjVUWc0Nv0Sm-jggW8WhfALEEQDYTtIvBhn3U8DFrGgrQPTTX7_hMAXPTLDCjucSJZ5GXfUb2TC1JTaBlXDnWU2tZlqZ-QYurK1dDPhFmkIOA64pPheWHIXSP20PUgr00Fsq_N5_Rh5pcPpP_XqPNFFiwmz0ekV-AS1B7jZwnunBRE0lMB8rhmVBREsedTJF7ZERvFobvcRlTtiB1AoZwfFaceyJYjueOQYvEfiLUcbQubejCUZoGrqsidL896M8l-a50JAkttOFuD1SVYBhkmQASQdHxdcvtYOpDAN0s8Csod-bpqrMjCPuGgnB7YUhPcPQZ-jZ3455MV6sCHvOMgynDfesgTDfs9bSBqYRSzc-2C6fmT8Wa_QcRqB1oDgdf0EDIJAKbg4N0shWi_-FXXRUJOpW4vKKwSAA8gqKHi9ChJUkf88yupYMeaEKEBWHPgAHf058Hhxt2_qDAOk1k4rfTExSttk7o0gQC- -o-IJrBeZZ3C7sCsnNQlxNoroMBkr0yBdlhyCkPF96ely9ZDo7huoOp1OuiU0_Jq20NLZr-Y-KTF3qycTuxv2xXPt22DhM3w5CqaZ-HyjCoL1MwhB02u9h5F4gHc7ajlxD8EEzy2EQPhGLBD49VEk1gdIT7jHFBU0SnQZQMCRUNgfKCXDTAS_TuYr7S7n3Tq1S0deZZQ9Ao_XRbGkyR9sA7o_sj2SmxmXBycEY4eaEFFmaPmfgdRoHSnLMHx5zZcDLukG2-mibbFxdWf6g-2Kd5ElHVuTLrCtInkye_yDYy2QX_F6YT_4pYZwIHkGq-el01kv_tiXTbeEDIotuDwvK_gQI_KBgc5v_toL28Kwl451he9lKzZeTg6UbtKnz41cdH9-wX8yF0OBgrXPlahZhlS3u1jV20D4MxlbTZ14iiMQEdE6Du6Td3OE5qLOW0Y3qUc1vyguOWo5L47dNx4HJDeSjcMIOgrDmj-kDld9HjxUrYpogxD9tSv5NT3lzpbrCXpRFtkoQ9PV7HHVpoulag6chLDPzRXU5yc3-eKzwXTPUohqdyu3SXTl5BFyDX3RmVmG1P7yU_TdqKHKP_mnPHc6DgSqmPdyBKzcF0S-4J5uhfuHKXWM5fbMnrlcTENvkNrTxnVZa352q1tcQJIyGuug7CV1JcnYD5vi_JIdNnuVMfdtzbx5sYUuTffSspnwCLTydTdah_Z3NE8tTb4mtjzaHzIEadz56NXsYuZIfevEfzFTuBQN2nXg3JuQfKYPebydPTfhlDcYIxz0m00]--></g></svg>