<svg xmlns="http://www.w3.org/2000/svg" xmlns:xlink="http://www.w3.org/1999/xlink" contentStyleType="text/css" height="2007px" preserveAspectRatio="none" style="width:1994px;height:2007px;background:#FFFFFF;" version="1.1" viewBox="0 0 1994 2007" width="1994px" zoomAndPan="magnify"><title>&#37096;&#32626;&#25299;&#25169;&#22270;&#65306;&#36816;&#34892;&#26102;&#26550;&#26500;</title><defs/><g><text fill="#000000" font-family="Microsoft YaHei" font-size="14" font-weight="bold" lengthAdjust="spacing" textLength="154" x="913.25" y="24.8135">&#37096;&#32626;&#25299;&#25169;&#22270;&#65306;&#36816;&#34892;&#26102;&#26550;&#26500;</text><!--cluster JVM--><g id="cluster_JVM"><polygon fill="#FFFFE0" points="343.5,310.4775,353.5,300.4775,1259.5,300.4775,1259.5,1623.4775,1249.5,1633.4775,343.5,1633.4775,343.5,310.4775" style="stroke:#181818;stroke-width:1;"/><line style="stroke:#181818;stroke-width:1;" x1="1249.5" x2="1259.5" y1="310.4775" y2="300.4775"/><line style="stroke:#181818;stroke-width:1;" x1="343.5" x2="1249.5" y1="310.4775" y2="310.4775"/><line style="stroke:#181818;stroke-width:1;" x1="1249.5" x2="1249.5" y1="310.4775" y2="1633.4775"/><text fill="#000000" font-family="Microsoft YaHei" font-size="14" font-weight="bold" lengthAdjust="spacing" textLength="135.2422" x="729.8789" y="328.291">JVM &#36827;&#31243; (java -jar)</text></g><!--cluster Tomcat--><g id="cluster_Tomcat"><polygon fill="none" points="673.5,382.4775,683.5,372.4775,950.5,372.4775,950.5,630.9775,940.5,640.9775,673.5,640.9775,673.5,382.4775" style="stroke:#181818;stroke-width:1;"/><line style="stroke:#181818;stroke-width:1;" x1="940.5" x2="950.5" y1="382.4775" y2="372.4775"/><line style="stroke:#181818;stroke-width:1;" x1="673.5" x2="940.5" y1="382.4775" y2="382.4775"/><line style="stroke:#181818;stroke-width:1;" x1="940.5" x2="940.5" y1="382.4775" y2="640.9775"/><text fill="#000000" font-family="Microsoft YaHei" font-size="14" font-weight="bold" lengthAdjust="spacing" textLength="84.9912" x="765.5044" y="400.291">&#20869;&#23884; Tomcat</text><text fill="#000000" font-family="Microsoft YaHei" font-size="14" font-weight="bold" lengthAdjust="spacing" textLength="183.4561" x="716.272" y="418.7686">(spring-boot-starter-web)</text></g><!--cluster SpringCtx--><g id="cluster_SpringCtx"><polygon fill="none" points="572.5,815.4775,582.5,805.4775,967.5,805.4775,967.5,1583.4775,957.5,1593.4775,572.5,1593.4775,572.5,815.4775" style="stroke:#181818;stroke-width:1;"/><line style="stroke:#181818;stroke-width:1;" x1="957.5" x2="967.5" y1="815.4775" y2="805.4775"/><line style="stroke:#181818;stroke-width:1;" x1="572.5" x2="957.5" y1="815.4775" y2="815.4775"/><line style="stroke:#181818;stroke-width:1;" x1="957.5" x2="957.5" y1="815.4775" y2="1593.4775"/><text fill="#000000" font-family="Microsoft YaHei" font-size="14" font-weight="bold" lengthAdjust="spacing" textLength="186.9902" x="672.5049" y="833.291">Spring ApplicationContext</text></g><!--cluster Thymeleaf--><g id="cluster_Thymeleaf"><polygon fill="none" points="1007.5,1039.6175,1017.5,1029.6175,1219.5,1029.6175,1219.5,1250.9775,1209.5,1260.9775,1007.5,1260.9775,1007.5,1039.6175" style="stroke:#181818;stroke-width:1;"/><line style="stroke:#181818;stroke-width:1;" x1="1209.5" x2="1219.5" y1="1039.6175" y2="1029.6175"/><line style="stroke:#181818;stroke-width:1;" x1="1007.5" x2="1209.5" y1="1039.6175" y2="1039.6175"/><line style="stroke:#181818;stroke-width:1;" x1="1209.5" x2="1209.5" y1="1039.6175" y2="1260.9775"/><text fill="#000000" font-family="Microsoft YaHei" font-size="14" font-weight="bold" lengthAdjust="spacing" textLength="133.9502" x="1042.5249" y="1057.431">Thymeleaf &#27169;&#26495;&#24341;&#25806;</text></g><!--cluster StaticRes--><g id="cluster_StaticRes"><path d="M1458,72.4775 L1595.6094,72.4775 A3.75,3.75 0 0 1 1598.1094,74.9775 L1605.1094,96.9551 L1985,96.9551 A2.5,2.5 0 0 1 1987.5,99.4551 L1987.5,378.3375 A2.5,2.5 0 0 1 1985,380.8375 L1458,380.8375 A2.5,2.5 0 0 1 1455.5,378.3375 L1455.5,74.9775 A2.5,2.5 0 0 1 1458,72.4775 " fill="#E0FFFF" style="stroke:#000000;stroke-width:1.5;"/><line style="stroke:#000000;stroke-width:1.5;" x1="1455.5" x2="1605.1094" y1="96.9551" y2="96.9551"/><text fill="#000000" font-family="Microsoft YaHei" font-size="14" font-weight="bold" lengthAdjust="spacing" textLength="136.6094" x="1459.5" y="89.291">&#38745;&#24577;&#36164;&#28304; (classpath)</text></g><!--cluster H2Db--><g id="cluster_H2Db"><path d="M248.5,1727.4775 C248.5,1717.4775 350,1717.4775 350,1717.4775 C350,1717.4775 451.5,1717.4775 451.5,1727.4775 L451.5,1847.4775 C451.5,1857.4775 350,1857.4775 350,1857.4775 C350,1857.4775 248.5,1857.4775 248.5,1847.4775 L248.5,1727.4775 " fill="#90EE90" style="stroke:#181818;stroke-width:1;"/><path d="M248.5,1727.4775 C248.5,1737.4775 350,1737.4775 350,1737.4775 C350,1737.4775 451.5,1737.4775 451.5,1727.4775 " fill="none" style="stroke:#181818;stroke-width:1;"/><text fill="#000000" font-family="Microsoft YaHei" font-size="14" font-weight="bold" lengthAdjust="spacing" textLength="94.3018" x="302.8491" y="1754.291">H2 &#25991;&#20214;&#25968;&#25454;&#24211;</text><text fill="#000000" font-family="Microsoft YaHei" font-size="14" font-weight="bold" lengthAdjust="spacing" textLength="80.9102" x="309.5449" y="1772.7686">(&#39033;&#30446;&#26681;&#30446;&#24405;)</text></g><text fill="#000000" font-family="Microsoft YaHei" font-size="14" lengthAdjust="spacing" textLength="36.21" x="916.4663" y="350.8135">:8080</text><rect fill="#F1F1F1" height="12" style="stroke:#181818;stroke-width:1.5;" width="12" x="926.5" y="366.4775"/><!--entity CtrlDep--><g id="elem_CtrlDep"><path d="M790,855.4775 L831,855.4775 A3.75,3.75 0 0 1 833.5,857.9775 L840.5,876.4775 L921.3057,876.4775 A2.5,2.5 0 0 1 923.8057,878.9775 L923.8057,927.9326 A2.5,2.5 0 0 1 921.3057,930.4326 L790,930.4326 A2.5,2.5 0 0 1 787.5,927.9326 L787.5,857.9775 A2.5,2.5 0 0 1 790,855.4775 " fill="#F1F1F1" style="stroke:#181818;stroke-width:0.5;"/><line style="stroke:#181818;stroke-width:0.5;" x1="787.5" x2="840.5" y1="876.4775" y2="876.4775"/><text fill="#000000" font-family="Microsoft YaHei" font-size="14" lengthAdjust="spacing" textLength="67.0947" x="797.5" y="898.291">Controller</text><text fill="#000000" font-family="Microsoft YaHei" font-size="14" lengthAdjust="spacing" textLength="106.3057" x="797.5" y="916.7686">GameController</text></g><!--entity SrvDep--><g id="elem_SrvDep"><path d="M722.5,1026.4775 L763.5,1026.4775 A3.75,3.75 0 0 1 766,1028.9775 L773,1047.4775 L834.1182,1047.4775 A2.5,2.5 0 0 1 836.6182,1049.9775 L836.6182,1098.9326 A2.5,2.5 0 0 1 834.1182,1101.4326 L722.5,1101.4326 A2.5,2.5 0 0 1 720,1098.9326 L720,1028.9775 A2.5,2.5 0 0 1 722.5,1026.4775 " fill="#F1F1F1" style="stroke:#181818;stroke-width:0.5;"/><line style="stroke:#181818;stroke-width:0.5;" x1="720" x2="773" y1="1047.4775" y2="1047.4775"/><text fill="#000000" font-family="Microsoft YaHei" font-size="14" lengthAdjust="spacing" textLength="47.4072" x="730" y="1069.291">Service</text><text fill="#000000" font-family="Microsoft YaHei" font-size="14" lengthAdjust="spacing" textLength="86.6182" x="730" y="1087.7686">GameService</text></g><!--entity DaoDep--><g id="elem_DaoDep"><path d="M607.5,1180.4775 L648.5,1180.4775 A3.75,3.75 0 0 1 651,1182.9775 L658,1201.4775 L781.3115,1201.4775 A2.5,2.5 0 0 1 783.8115,1203.9775 L783.8115,1252.9326 A2.5,2.5 0 0 1 781.3115,1255.4326 L607.5,1255.4326 A2.5,2.5 0 0 1 605,1252.9326 L605,1182.9775 A2.5,2.5 0 0 1 607.5,1180.4775 " fill="#F1F1F1" style="stroke:#181818;stroke-width:0.5;"/><line style="stroke:#181818;stroke-width:0.5;" x1="605" x2="658" y1="1201.4775" y2="1201.4775"/><text fill="#000000" font-family="Microsoft YaHei" font-size="14" lengthAdjust="spacing" textLength="27.3027" x="615" y="1223.291">Dao</text><text fill="#000000" font-family="Microsoft YaHei" font-size="14" lengthAdjust="spacing" textLength="148.8115" x="615" y="1241.7686">GameDao / PlayerDao</text></g><!--entity UtilDep--><g id="elem_UtilDep"><path d="M660.5,1334.4775 L701.5,1334.4775 A3.75,3.75 0 0 1 704,1336.9775 L711,1355.4775 L728.0674,1355.4775 A2.5,2.5 0 0 1 730.5674,1357.9775 L730.5674,1406.9326 A2.5,2.5 0 0 1 728.0674,1409.4326 L660.5,1409.4326 A2.5,2.5 0 0 1 658,1406.9326 L658,1336.9775 A2.5,2.5 0 0 1 660.5,1334.4775 " fill="#F1F1F1" style="stroke:#181818;stroke-width:0.5;"/><line style="stroke:#181818;stroke-width:0.5;" x1="658" x2="711" y1="1355.4775" y2="1355.4775"/><text fill="#000000" font-family="Microsoft YaHei" font-size="14" lengthAdjust="spacing" textLength="23.1191" x="668" y="1377.291">Util</text><text fill="#000000" font-family="Microsoft YaHei" font-size="14" lengthAdjust="spacing" textLength="42.5674" x="668" y="1395.7686">DBUtil</text></g><!--entity HikariDep--><g id="elem_HikariDep"><path d="M615.5,1513.4775 C615.5,1503.4775 683.3423,1503.4775 683.3423,1503.4775 C683.3423,1503.4775 751.1846,1503.4775 751.1846,1513.4775 L751.1846,1559.4326 C751.1846,1569.4326 683.3423,1569.4326 683.3423,1569.4326 C683.3423,1569.4326 615.5,1569.4326 615.5,1559.4326 L615.5,1513.4775 " fill="#F1F1F1" style="stroke:#181818;stroke-width:0.5;"/><path d="M615.5,1513.4775 C615.5,1523.4775 683.3423,1523.4775 683.3423,1523.4775 C683.3423,1523.4775 751.1846,1523.4775 751.1846,1513.4775 " fill="none" style="stroke:#181818;stroke-width:0.5;"/><text fill="#000000" font-family="Microsoft YaHei" font-size="14" lengthAdjust="spacing" textLength="103.0586" x="625.5" y="1542.291">HikariCP &#36830;&#25509;&#27744;</text><text fill="#000000" font-family="Microsoft YaHei" font-size="14" lengthAdjust="spacing" textLength="115.6846" x="625.5" y="1560.7686">(min=2, max=10)</text></g><!--entity TmplDir--><g id="elem_TmplDir"><path d="M1031.5,1201.4775 L1031.5,1234.9551 A2.5,2.5 0 0 0 1034,1237.4551 L1192.6162,1237.4551 A2.5,2.5 0 0 0 1195.1162,1234.9551 L1195.1162,1208.9775 L1185.1162,1198.9775 L1034,1198.9775 A2.5,2.5 0 0 0 1031.5,1201.4775 " fill="#F1F1F1" style="stroke:#181818;stroke-width:0.5;"/><path d="M1185.1162,1198.9775 L1185.1162,1206.4775 A2.5,2.5 0 0 0 1187.6162,1208.9775 L1195.1162,1208.9775 " fill="#F1F1F1" style="stroke:#181818;stroke-width:0.5;"/><text fill="#000000" font-family="Microsoft YaHei" font-size="14" lengthAdjust="spacing" textLength="143.6162" x="1041.5" y="1223.791">classpath:/templates/</text></g><!--entity Scheduled--><g id="elem_Scheduled"><polygon fill="#F1F1F1" points="375.5,878.9775,385.5,868.9775,545.9502,868.9775,545.9502,907.4551,535.9502,917.4551,375.5,917.4551,375.5,878.9775" style="stroke:#181818;stroke-width:0.5;"/><line style="stroke:#181818;stroke-width:0.5;" x1="535.9502" x2="545.9502" y1="878.9775" y2="868.9775"/><line style="stroke:#181818;stroke-width:0.5;" x1="375.5" x2="535.9502" y1="878.9775" y2="878.9775"/><line style="stroke:#181818;stroke-width:0.5;" x1="535.9502" x2="535.9502" y1="878.9775" y2="917.4551"/><text fill="#000000" font-family="Microsoft YaHei" font-size="14" lengthAdjust="spacing" textLength="130.4502" x="390.5" y="903.791">@Scheduled &#32447;&#31243;&#27744;</text></g><!--entity CSS--><g id="elem_CSS"><path d="M1793.5,119.9775 L1793.5,153.4551 A2.5,2.5 0 0 0 1796,155.9551 L1961.377,155.9551 A2.5,2.5 0 0 0 1963.877,153.4551 L1963.877,127.4775 L1953.877,117.4775 L1796,117.4775 A2.5,2.5 0 0 0 1793.5,119.9775 " fill="#F1F1F1" style="stroke:#181818;stroke-width:0.5;"/><path d="M1953.877,117.4775 L1953.877,124.9775 A2.5,2.5 0 0 0 1956.377,127.4775 L1963.877,127.4775 " fill="#F1F1F1" style="stroke:#181818;stroke-width:0.5;"/><text fill="#000000" font-family="Microsoft YaHei" font-size="14" lengthAdjust="spacing" textLength="150.377" x="1803.5" y="142.291">static/css/common.css</text></g><!--entity JS--><g id="elem_JS"><path d="M1607,119.9775 L1607,153.4551 A2.5,2.5 0 0 0 1609.5,155.9551 L1755.3535,155.9551 A2.5,2.5 0 0 0 1757.8535,153.4551 L1757.8535,127.4775 L1747.8535,117.4775 L1609.5,117.4775 A2.5,2.5 0 0 0 1607,119.9775 " fill="#F1F1F1" style="stroke:#181818;stroke-width:0.5;"/><path d="M1747.8535,117.4775 L1747.8535,124.9775 A2.5,2.5 0 0 0 1750.3535,127.4775 L1757.8535,127.4775 " fill="#F1F1F1" style="stroke:#181818;stroke-width:0.5;"/><text fill="#000000" font-family="Microsoft YaHei" font-size="14" lengthAdjust="spacing" textLength="130.8535" x="1617" y="142.291">static/js/common.js</text></g><!--entity TmplFiles--><g id="elem_TmplFiles"><path d="M1479.5,119.9775 L1479.5,153.4551 A2.5,2.5 0 0 0 1482,155.9551 L1569.3037,155.9551 A2.5,2.5 0 0 0 1571.8037,153.4551 L1571.8037,127.4775 L1561.8037,117.4775 L1482,117.4775 A2.5,2.5 0 0 0 1479.5,119.9775 " fill="#F1F1F1" style="stroke:#181818;stroke-width:0.5;"/><path d="M1561.8037,117.4775 L1561.8037,124.9775 A2.5,2.5 0 0 0 1564.3037,127.4775 L1571.8037,127.4775 " fill="#F1F1F1" style="stroke:#181818;stroke-width:0.5;"/><text fill="#000000" font-family="Microsoft YaHei" font-size="14" lengthAdjust="spacing" textLength="72.3037" x="1489.5" y="142.291">templates/</text></g><!--entity DBFile--><g id="elem_DBFile"><path d="M291.5,1797.9775 L291.5,1831.4551 A2.5,2.5 0 0 0 294,1833.9551 L424.7256,1833.9551 A2.5,2.5 0 0 0 427.2256,1831.4551 L427.2256,1805.4775 L417.2256,1795.4775 L294,1795.4775 A2.5,2.5 0 0 0 291.5,1797.9775 " fill="#F1F1F1" style="stroke:#181818;stroke-width:0.5;"/><path d="M417.2256,1795.4775 L417.2256,1802.9775 A2.5,2.5 0 0 0 419.7256,1805.4775 L427.2256,1805.4775 " fill="#F1F1F1" style="stroke:#181818;stroke-width:0.5;"/><text fill="#000000" font-family="Microsoft YaHei" font-size="14" lengthAdjust="spacing" textLength="115.7256" x="301.5" y="1820.291">madao_db.mv.db</text></g><!--entity ClientBrowser--><g id="elem_ClientBrowser"><polygon fill="#F1F1F1" points="1283.5,580.9775,1293.5,570.9775,1365.5,570.9775,1365.5,609.4551,1355.5,619.4551,1283.5,619.4551,1283.5,580.9775" style="stroke:#181818;stroke-width:0.5;"/><line style="stroke:#181818;stroke-width:0.5;" x1="1355.5" x2="1365.5" y1="580.9775" y2="570.9775"/><line style="stroke:#181818;stroke-width:0.5;" x1="1283.5" x2="1355.5" y1="580.9775" y2="580.9775"/><line style="stroke:#181818;stroke-width:0.5;" x1="1355.5" x2="1355.5" y1="580.9775" y2="619.4551"/><text fill="#000000" font-family="Microsoft YaHei" font-size="14" lengthAdjust="spacing" textLength="42" x="1298.5" y="605.791">&#27983;&#35272;&#22120;</text></g><g id="elem_GMN33"><path d="M224,45.4775 L224,227.0547 L479.0063,227.0547 L479.0063,55.4775 L469.0063,45.4775 L224,45.4775 " fill="#FEFFDD" style="stroke:#181818;stroke-width:0.5;"/><path d="M469.0063,45.4775 L469.0063,55.4775 L479.0063,55.4775 L469.0063,45.4775 " fill="#FEFFDD" style="stroke:#181818;stroke-width:1;"/><text fill="#000000" font-family="Microsoft YaHei" font-size="13" font-weight="bold" lengthAdjust="spacing" textLength="52" x="230" y="64.2329">&#21551;&#21160;&#21629;&#20196;</text><text fill="#000000" font-family="Microsoft YaHei" font-size="13" lengthAdjust="spacing" textLength="119.2217" x="230" y="81.3906">mvn clean package</text><text fill="#000000" font-family="Microsoft YaHei" font-size="13" lengthAdjust="spacing" textLength="234.0063" x="230" y="98.5483">java -jar target/madao-game-1.0.0.jar</text><text fill="#000000" font-family="Microsoft YaHei" font-size="13" lengthAdjust="spacing" textLength="3.8467" x="230" y="115.7061">&#160;</text><text fill="#000000" font-family="Microsoft YaHei" font-size="13" font-weight="bold" lengthAdjust="spacing" textLength="52" x="230" y="132.8638">&#20027;&#35201;&#20381;&#36182;</text><text fill="#000000" font-family="Microsoft YaHei" font-size="13" lengthAdjust="spacing" textLength="113.8833" x="230" y="150.0215">&#183; Spring Boot 3.4.5</text><text fill="#000000" font-family="Microsoft YaHei" font-size="13" lengthAdjust="spacing" textLength="49.3721" x="230" y="167.1792">&#183; JDK 25</text><text fill="#000000" font-family="Microsoft YaHei" font-size="13" lengthAdjust="spacing" textLength="106.501" x="230" y="184.3369">&#183; H2 &#23884;&#20837;&#24335;&#25968;&#25454;&#24211;</text><text fill="#000000" font-family="Microsoft YaHei" font-size="13" lengthAdjust="spacing" textLength="102.6733" x="230" y="201.4946">&#183; HikariCP &#36830;&#25509;&#27744;</text><text fill="#000000" font-family="Microsoft YaHei" font-size="13" lengthAdjust="spacing" textLength="127.2451" x="230" y="218.6523">&#183; Thymeleaf &#27169;&#26495;&#24341;&#25806;</text></g><g id="elem_GMN36"><path d="M6,1488.4775 L6,1584.2661 L318.9351,1584.2661 L318.9351,1498.4775 L308.9351,1488.4775 L6,1488.4775 " fill="#FEFFDD" style="stroke:#181818;stroke-width:0.5;"/><path d="M308.9351,1488.4775 L308.9351,1498.4775 L318.9351,1498.4775 L308.9351,1488.4775 " fill="#FEFFDD" style="stroke:#181818;stroke-width:1;"/><text fill="#000000" font-family="Microsoft YaHei" font-size="13" font-weight="bold" lengthAdjust="spacing" textLength="65" x="12" y="1507.2329">&#25968;&#25454;&#24211;&#29305;&#24615;</text><text fill="#000000" font-family="Microsoft YaHei" font-size="13" lengthAdjust="spacing" textLength="97.9761" x="12" y="1524.3906">&#183; &#23884;&#20837;&#24335;&#25991;&#20214;&#27169;&#24335;</text><text fill="#000000" font-family="Microsoft YaHei" font-size="13" lengthAdjust="spacing" textLength="217.2295" x="12" y="1541.5483">&#183; AUTO_SERVER=TRUE (&#22810;&#36827;&#31243;&#35775;&#38382;)</text><text fill="#000000" font-family="Microsoft YaHei" font-size="13" lengthAdjust="spacing" textLength="110.5063" x="12" y="1558.7061">&#183; &#31354;&#23494;&#30721; (&#24320;&#21457;&#29615;&#22659;)</text><text fill="#000000" font-family="Microsoft YaHei" font-size="13" lengthAdjust="spacing" textLength="291.9351" x="12" y="1575.8638">&#183; H2-Console: http://localhost:8080/h2-console</text></g><g id="elem_GMN39"><path d="M1400.5,474.4775 L1400.5,715.5278 L1650.0361,715.5278 L1650.0361,484.4775 L1640.0361,474.4775 L1400.5,474.4775 " fill="#FEFFDD" style="stroke:#181818;stroke-width:0.5;"/><path d="M1640.0361,474.4775 L1640.0361,484.4775 L1650.0361,484.4775 L1640.0361,474.4775 " fill="#FEFFDD" style="stroke:#181818;stroke-width:1;"/><text fill="#000000" font-family="Microsoft YaHei" font-size="13" font-weight="bold" lengthAdjust="spacing" textLength="121.0371" x="1406.5" y="493.2329">&#21069;&#31471;&#36164;&#28304; (19&#20010;&#25991;&#20214;)</text><text fill="#000000" font-family="Microsoft YaHei" font-size="13" lengthAdjust="spacing" textLength="190.1567" x="1406.5" y="527.5483">index.html      - &#39318;&#39029;(&#21019;&#24314;/&#21152;&#20837;)</text><text fill="#000000" font-family="Microsoft YaHei" font-size="13" lengthAdjust="spacing" textLength="151.3789" x="1406.5" y="544.7061">lobby.html      - &#31561;&#24453;&#22823;&#21381;</text><text fill="#000000" font-family="Microsoft YaHei" font-size="13" lengthAdjust="spacing" textLength="151.9058" x="1406.5" y="561.8638">guess.html      - &#29468;&#25331;&#30028;&#38754;</text><text fill="#000000" font-family="Microsoft YaHei" font-size="13" lengthAdjust="spacing" textLength="150.6045" x="1406.5" y="579.0215">action.html     - &#34892;&#21160;&#30028;&#38754;</text><text fill="#000000" font-family="Microsoft YaHei" font-size="13" lengthAdjust="spacing" textLength="154.0132" x="1406.5" y="596.1792">waiting.html    - &#31561;&#24453;&#20182;&#20154;</text><text fill="#000000" font-family="Microsoft YaHei" font-size="13" lengthAdjust="spacing" textLength="157.0918" x="1406.5" y="613.3369">spectate.html   - &#35266;&#25112;&#27169;&#24335;</text><text fill="#000000" font-family="Microsoft YaHei" font-size="13" lengthAdjust="spacing" textLength="146.9927" x="1406.5" y="630.4946">result.html     - &#32467;&#26524;&#23637;&#31034;</text><text fill="#000000" font-family="Microsoft YaHei" font-size="13" lengthAdjust="spacing" textLength="195.7173" x="1406.5" y="647.6523">fragments/rules.html - &#35268;&#21017;&#35828;&#26126;</text><line style="stroke:#181818;stroke-width:1;" x1="1401.5" x2="1456.6816" y1="505.2141" y2="505.2141"/><line style="stroke:#181818;stroke-width:1;" x1="1401.5" x2="1456.6816" y1="507.2141" y2="507.2141"/><text fill="#000000" font-family="Microsoft YaHei" font-size="13" lengthAdjust="spacing" textLength="137.1729" x="1456.6816" y="509.8906">templates/ (7&#20010;HTML)</text><line style="stroke:#181818;stroke-width:1;" x1="1593.8545" x2="1649.0361" y1="505.2141" y2="505.2141"/><line style="stroke:#181818;stroke-width:1;" x1="1593.8545" x2="1649.0361" y1="507.2141" y2="507.2141"/><text fill="#000000" font-family="Microsoft YaHei" font-size="13" lengthAdjust="spacing" textLength="170.3774" x="1406.5" y="685.9678">css/common.css  - &#20840;&#23616;&#26679;&#24335;</text><text fill="#000000" font-family="Microsoft YaHei" font-size="13" lengthAdjust="spacing" textLength="222.5361" x="1406.5" y="703.1255">js/common.js    - 2&#31186;&#36718;&#35810;+smartPoll</text><line style="stroke:#181818;stroke-width:1;" x1="1401.5" x2="1506.0569" y1="663.6335" y2="663.6335"/><line style="stroke:#181818;stroke-width:1;" x1="1401.5" x2="1506.0569" y1="665.6335" y2="665.6335"/><text fill="#000000" font-family="Microsoft YaHei" font-size="13" lengthAdjust="spacing" textLength="38.4224" x="1506.0569" y="668.3101">static/</text><line style="stroke:#181818;stroke-width:1;" x1="1544.4792" x2="1649.0361" y1="663.6335" y2="663.6335"/><line style="stroke:#181818;stroke-width:1;" x1="1544.4792" x2="1649.0361" y1="665.6335" y2="665.6335"/></g><!--link Port to ClientBrowser--><g id="link_Port_ClientBrowser"><path d="M938.66,376.9375 C977.72,398.9075 1187.0405,516.656 1278.2405,567.956 " fill="none" id="Port-to-ClientBrowser" style="stroke:#181818;stroke-width:1;"/><polygon fill="#181818" points="1283.47,570.8975,1277.5869,562.9989,1279.1121,568.4462,1273.6648,569.9715,1283.47,570.8975" style="stroke:#181818;stroke-width:1;"/><text fill="#000000" font-family="Microsoft YaHei" font-size="13" lengthAdjust="spacing" textLength="75.1626" x="1048.5" y="423.2329">&#39029;&#38754; + AJAX</text><text fill="#000000" font-family="Microsoft YaHei" font-size="13" lengthAdjust="spacing" textLength="71.7031" x="1050.2297" y="440.3906">(JSON/text)</text></g><!--link Tomcat to SpringCtx--><g id="link_Tomcat_SpringCtx"><path d="M741.5047,641.2822 C741.2342,641.4496 740.9633,641.6174 740.6922,641.7857 C740.1499,642.1222 739.6065,642.4605 739.062,642.8005 C737.973,643.4806 736.8796,644.1676 735.7822,644.8616 C718.2231,655.965 699.6288,668.8438 681.4325,683.3775 C645.04,712.445 610.24,748.1325 588.5,789.4775 C587.1913,791.9663 586.0834,795.3944 585.1469,799.4931 C584.9128,800.5177 584.6894,801.5843 584.4762,802.6886 C584.3696,803.2407 584.2656,803.8023 584.1641,804.3728 C584.1133,804.658 585.0744,799.0313 585.0248,799.3209 " fill="none" id="Tomcat-to-SpringCtx" style="stroke:#181818;stroke-width:1;"/><polygon fill="#181818" points="584.0137,805.2351,589.4732,797.0379,584.8563,800.3066,581.5876,795.6897,584.0137,805.2351" style="stroke:#181818;stroke-width:1;"/><text fill="#000000" font-family="Microsoft YaHei" font-size="13" lengthAdjust="spacing" textLength="108.9194" x="616.5" y="760.2329">DispatcherServlet</text><text fill="#000000" font-family="Microsoft YaHei" font-size="13" lengthAdjust="spacing" textLength="52" x="644.9597" y="777.3906">&#35831;&#27714;&#20998;&#21457;</text></g><!--link CtrlDep to SrvDep--><g id="link_CtrlDep_SrvDep"><path d="M838.79,930.6475 C825.88,958.9975 810.5664,1013.587 797.6664,1041.917 " fill="none" id="CtrlDep-to-SrvDep" style="stroke:#181818;stroke-width:1;"/><polygon fill="#181818" points="795.18,1047.3775,802.55,1040.8443,797.252,1042.8271,795.2693,1037.5291,795.18,1047.3775" style="stroke:#181818;stroke-width:1;"/><text fill="#000000" font-family="Microsoft YaHei" font-size="13" lengthAdjust="spacing" textLength="78.0508" x="824.5" y="983.7329">@Autowired</text></g><!--link SrvDep to DaoDep--><g id="link_SrvDep_DaoDep"><path d="M758.17,1101.7675 C745.01,1125.5875 730.8426,1172.2164 717.6926,1196.0064 " fill="none" id="SrvDep-to-DaoDep" style="stroke:#181818;stroke-width:1;"/><polygon fill="#181818" points="714.79,1201.2575,722.6447,1195.3158,717.2088,1196.8816,715.6431,1191.4457,714.79,1201.2575" style="stroke:#181818;stroke-width:1;"/><text fill="#000000" font-family="Microsoft YaHei" font-size="13" lengthAdjust="spacing" textLength="78.0508" x="742.5" y="1146.2329">@Autowired</text></g><!--link SrvDep to UtilDep--><g id="link_SrvDep_UtilDep"><path d="M813.15,1101.4875 C819.85,1110.6275 825.9,1120.8675 829.5,1131.4775 C843.88,1173.8475 860.37,1177.3875 801.5,1276.9775 C784.26,1306.1375 759.7188,1348.5291 736.0788,1365.3491 " fill="none" id="SrvDep-to-UtilDep" style="stroke:#181818;stroke-width:1;stroke-dasharray:7.0,7.0;"/><polygon fill="#181818" points="731.19,1368.8275,740.8422,1366.8691,735.264,1365.9289,736.2043,1360.3507,731.19,1368.8275" style="stroke:#181818;stroke-width:1;"/><text fill="#000000" font-family="Microsoft YaHei" font-size="13" lengthAdjust="spacing" textLength="87.312" x="843.5" y="1223.2329">@DependsOn</text></g><!--link DaoDep to UtilDep--><g id="link_DaoDep_UtilDep"><path d="M694.5,1255.7675 C694.5,1279.5875 694.5,1304.4675 694.5,1328.2575 " fill="none" id="DaoDep-to-UtilDep" style="stroke:#181818;stroke-width:1;"/><polygon fill="#181818" points="694.5,1334.2575,698.5,1325.2575,694.5,1329.2575,690.5,1325.2575,694.5,1334.2575" style="stroke:#181818;stroke-width:1;"/><text fill="#000000" font-family="Microsoft YaHei" font-size="13" lengthAdjust="spacing" textLength="57.3384" x="695.5" y="1300.2329">static call</text></g><!--link UtilDep to HikariDep--><g id="link_UtilDep_HikariDep"><path d="M692,1409.8475 C690.1,1438.0375 687.8947,1470.5112 686.0747,1497.4312 " fill="none" id="UtilDep-to-HikariDep" style="stroke:#181818;stroke-width:1;"/><polygon fill="#181818" points="685.67,1503.4175,690.268,1494.7079,686.0073,1498.4289,682.2862,1494.1682,685.67,1503.4175" style="stroke:#181818;stroke-width:1;"/><text fill="#000000" font-family="Microsoft YaHei" font-size="13" lengthAdjust="spacing" textLength="71.7539" x="690.5" y="1454.2329">DataSource</text></g><!--link HikariDep to H2Db--><g id="link_HikariDep_H2Db"><path d="M615.29,1556.1175 C511.06,1585.9975 319.57,1646.7875 275.5,1701.4775 C271.6013,1706.315 270.931,1706.2299 268.2694,1711.8804 " fill="none" id="HikariDep-to-H2Db" style="stroke:#181818;stroke-width:1;"/><polygon fill="#181818" points="265.7126,1717.3084,273.1664,1710.8709,267.8433,1712.7851,265.9291,1707.4619,265.7126,1717.3084" style="stroke:#181818;stroke-width:1;"/><text fill="#000000" font-family="Microsoft YaHei" font-size="13" lengthAdjust="spacing" textLength="31.9033" x="462.1606" y="1672.2329">JDBC</text><text fill="#000000" font-family="Microsoft YaHei" font-size="13" lengthAdjust="spacing" textLength="289.2246" x="333.5" y="1689.3906">(jdbc:h2:file:./madao_db;AUTO_SERVER=TRUE)</text></g><!--link Thymeleaf to TmplDir--><g id="link_Thymeleaf_TmplDir"><path d="M1032.56,1065.0875 C1034.47,1068.6875 1079.9782,1154.0725 1101.0282,1193.5725 " fill="none" id="Thymeleaf-to-TmplDir" style="stroke:#181818;stroke-width:1;"/><polygon fill="#181818" points="1103.85,1198.8675,1103.1473,1189.0438,1101.4985,1194.455,1096.0873,1192.8062,1103.85,1198.8675" style="stroke:#181818;stroke-width:1;"/><text fill="#000000" font-family="Microsoft YaHei" font-size="13" lengthAdjust="spacing" textLength="52" x="1078.5" y="1146.2329">&#27169;&#26495;&#28210;&#26579;</text></g><!--link CtrlDep to Thymeleaf--><g id="link_CtrlDep_Thymeleaf"><path d="M893.91,930.6475 C919.53,955.1125 953.5025,987.5525 981.4,1014.19 C988.3744,1020.8494 994.9691,1027.1461 1000.9586,1032.8649 C1002.456,1034.2946 1003.9156,1035.6882 1005.3338,1037.0423 C1006.0429,1037.7193 1002.4021,1034.2432 1003.0901,1034.9 " fill="none" id="CtrlDep-to-Thymeleaf" style="stroke:#181818;stroke-width:1;"/><polygon fill="#181818" points="1007.4297,1039.0434,1003.6825,1029.9353,1003.8134,1035.5906,998.158,1035.7215,1007.4297,1039.0434" style="stroke:#181818;stroke-width:1;"/><text fill="#000000" font-family="Microsoft YaHei" font-size="13" lengthAdjust="spacing" textLength="95.4814" x="960.5" y="983.7329">ModelAndView</text></g><!--link Scheduled to SrvDep--><g id="link_Scheduled_SrvDep"><path d="M503.29,917.1075 C541.96,937.9575 600.46,969.4175 651.5,996.4775 C673.82,1008.3075 693.0822,1018.4389 714.6322,1029.6989 " fill="none" id="Scheduled-to-SrvDep" style="stroke:#181818;stroke-width:1;"/><polygon fill="#181818" points="719.95,1032.4775,713.8256,1024.7644,715.5185,1030.162,710.1208,1031.8549,719.95,1032.4775" style="stroke:#181818;stroke-width:1;"/><text fill="#000000" font-family="Microsoft YaHei" font-size="13" lengthAdjust="spacing" textLength="148.8018" x="652.5" y="975.2329">cleanupInactiveRooms()</text><text fill="#000000" font-family="Microsoft YaHei" font-size="13" lengthAdjust="spacing" textLength="59.6235" x="697.0891" y="992.3906">&#27599;5&#31186;&#35302;&#21457;</text></g><!--link TmplFiles to StaticRes--><g id="link_TmplFiles_StaticRes"><path d="M1525.5,155.8375 C1525.5,210.1375 1525.5,360.4875 1525.5,365.3575 " fill="none" id="TmplFiles-to-StaticRes" style="stroke:#181818;stroke-width:1;"/><polygon fill="#181818" points="1525.5,371.3575,1529.5,362.3575,1525.5,366.3575,1521.5,362.3575,1525.5,371.3575" style="stroke:#181818;stroke-width:1;"/><text fill="#000000" font-family="Microsoft YaHei" font-size="13" lengthAdjust="spacing" textLength="26" x="1526.5" y="272.2329">&#21253;&#21547;</text></g><!--link GMN33 to JVM--><g id="link_GMN33_JVM"><path d="M351.5,227.6175 C351.5,243.8375 351.5,260.7869 351.5,277.1243 C351.5,281.2086 351.5,285.2547 351.5,289.2416 C351.5,291.235 351.5,293.2136 351.5,295.1748 C351.5,296.1554 351.5,297.1317 351.5,298.1033 C351.5,298.589 351.5,299.0736 351.5,299.557 C351.5,299.7987 351.5,300.0401 351.5,300.2812 " fill="none" id="GMN33-JVM" style="stroke:#181818;stroke-width:1;stroke-dasharray:7.0,7.0;"/></g><!--link GMN36 to H2Db--><g id="link_GMN36_H2Db"><path d="M178.55,1584.6075 C191.765,1623.4075 210.855,1679.4575 226.835,1726.3775 C234.825,1749.8375 242.0375,1771.015 247.3494,1786.6125 C247.6814,1787.5874 248.0059,1788.5404 248.3228,1789.4709 " fill="none" id="GMN36-H2Db" style="stroke:#181818;stroke-width:1;stroke-dasharray:7.0,7.0;"/></g><!--link StaticRes to GMN39--><g id="link_StaticRes_GMN39"><path d="M1525.5,380.8893 C1525.5,380.9661 1525.5,381.0435 1525.5,381.1214 C1525.5,381.2772 1525.5,381.4352 1525.5,381.5953 C1525.5,382.2358 1525.5,382.9107 1525.5,383.6188 C1525.5,389.2832 1525.5,397.0675 1525.5,406.32 C1525.5,424.825 1525.5,449.2025 1525.5,474.2375 " fill="none" id="StaticRes-GMN39" style="stroke:#181818;stroke-width:1;stroke-dasharray:7.0,7.0;"/></g><rect fill="#DDDDDD" height="102.3877" id="_legend" rx="7.5" ry="7.5" style="stroke:#000000;stroke-width:1;" width="324.0225" x="828.2388" y="1885.4775"/><text fill="#000000" font-family="Microsoft YaHei" font-size="14" font-weight="bold" lengthAdjust="spacing" textLength="70" x="833.2388" y="1905.291">&#36816;&#34892;&#26102;&#25299;&#25169;</text><text fill="#000000" font-family="Microsoft YaHei" font-size="14" lengthAdjust="spacing" textLength="267.5449" x="833.2388" y="1923.7686">1 JVM&#36827;&#31243; | 1 &#20869;&#23884;Tomcat | 1 Spring&#23481;&#22120;</text><text fill="#000000" font-family="Microsoft YaHei" font-size="14" lengthAdjust="spacing" textLength="293.7266" x="833.2388" y="1942.2461">8080&#31471;&#21475; | HikariCP 2-10&#36830;&#25509; | H2&#25991;&#20214;&#25345;&#20037;&#21270;</text><text fill="#000000" font-family="Microsoft YaHei" font-size="14" lengthAdjust="spacing" textLength="314.0225" x="833.2388" y="1960.7236">@Scheduled &#29420;&#31435;&#32447;&#31243;&#27744; | Thymeleaf &#26381;&#21153;&#31471;&#28210;&#26579;</text><text fill="#000000" font-family="Microsoft YaHei" font-size="14" lengthAdjust="spacing" textLength="275.748" x="833.2388" y="1979.2012">smartPoll 2&#31186;&#36718;&#35810; | XSS&#38450;&#25252;(location.href)</text><!--SRC=[fLPRJnj757xVNp6Y3x59ROFJgAaheW3EfJGa29CeaP2YyNfiBzcBjJlSb4Q294wv1KWHv4988IM1DYqkIKa2XY3rjtXspLF_Gi_ihDSs8KzPa7TspdVEd3ddV6Vc66hvWaSwXhfQktlGYHWwkBlkxBsn9-ViyOTiyID8liYmPDrKz1msiOPI98txLNhEqEabh17KgSYcOHbfYgxZ2qIH9AfGbHnsuB_Tf-NzsVBAbFtedVqS_kz9acwa26hekDg9olkBplea2lJX0On2VTWCDY1i8IxwwgAIoTBhH5MDGNHBaX0IQkn-dcrDeHv3ap7jrGDMpbJqJ2Xf63HaKMnIOeO6IL8O4YXGH_3a39CgEcf0iLDDfvfSUHTCWUnsrNp2DOTQSpbL0LN5qDjXmsI8kdWXRQT3mYE4qeQQ8YPgu23JK5LYzkhd8JhLRrUldPfgdEGyHsxNwoQ8EQ38H2Xw7s8rS-2pId5i20KOe0ZgKl4mCM7iAiBxiufNgABswl4s_dR1VF09EeKfJc8B0d91kObDfRqBSlNSddvfRov3q3L5Rub-ZJGyrDBS948jSBM6wkBQantMY4fm6jdhA_RIFjkTj-UcHP9yaT1CAr163RAABIk7QJOMeKJBgPWIAoBmy1LNpAFNEPEGioJLhv8KSdRseRZ0OH5CV_wMgm4wbP0SB3snHqRBM_VidLaKy1SM-qfGg0AvcrXUHROFOzqr8TmymhTp8B2yLIemoxKIaIqh8XkQPkXX68hII2GEe_fyK9_0T2IukpKvYI9xuUTIyPqz_xVzO8Fjp45E3bQsdSKDUvd_ihrvBolHUD9p_Bn9IAtd6avXuqOg6TO6mgcag9isxZjVImJJtfefhusn9-l2KrKXEcqpZK6ByEW3x1WAXK8UvLd-hVEso2SaJYiOd3wa0jrfPUjWwGKwZbexMg-1pns9ovSYd5r1IVAuojMgD8kXkCAJ0SapEJLK0fml5zxRctVOs7qsyr2IAjno5GLZOkXCQpyr1XMJf2HlZeizNXmb3eTF-qm0ERo8dh8kwvAdmzMhSf4e96DLbIgp754b0JWEwKeO_QPCfEgq2-8vYQ6EU5ixXA0lbPHZsMYC9oKMZbIoydthbPxBDn9dkw-UxMxfwRvobaV89metKw51p6EK_U6D_UjSNJYg2Z7K2HbLM_NKLOKCIbKor4LD1gpUd_j1np9L1aYtOMXM8DYhsuMPayxQB-MrLsx4gqNkQli4YI4sbMUphtdvK8AeaKD6cZTpgBd6HZPRO1FhxE5UgRZQs0XJse0kLaGvBD_46G9p_a60e9Ld21Nn26MWqOMQmqtm1pB9jLVwK2o_6YrzN2flBRZs_dtl5GvgWyC0dGX_4puffZlYFwAeDmRkmFd1yY_PxenF7q_qIQiJyqVtBWaA1F6Drc-NPzVrppVkZ6_R8siL5wkB2mQlhy1OY0wd70NOwbDnH9OtzWyURGG5plbzXnNkEykZ0DWTWPGuqmNsucwmii4Gd3wM0UM4ifJcOf68Qa2bPWsBkYTV91iDoG9nU0z9Wr93uzlmiofoD_x0ULseTCZcxqeV_X3k1zrjjRIWQXz4WMz1VA6dys8G121Lz1GP2cUffYBtWORnQW4wGO2DBRBYJeHDB4D4kFUgaKmEro6TlyRPnpnRNMFJUG1a-ebbrGEcdjcJRvtvAUWh0E252ttJHuGGN3sWx7p085RW4f3n4PKbIiM5qiuE0AmSaM7lf8802sjtxB77Vg9COi4rg7O9fpXdFt_6DkUTLMuXRUAC1ctFYfX0CSzTRkOU6tjIBlnZFvuMCVFQlOXI_T70pRByEjiSiPVVYtLhJmMnRfHpSc-ZN7XntDBWvjC55uwQZAeampz4JjqqLczYxlNCpLqp9wXt3_i9liJzocl6V49mYcrimpa0U5v1K0jivZUG-eo9XfgR16luRDIhxQdHqdQUJIs0MksvFFcdythIFvr1eOPWpnwmYHMmxtKpo4TbPpNR1PLhYSJ1upVsn6g05xT8kadIGRv_iV7_0G00]--></g></svg>