<svg xmlns="http://www.w3.org/2000/svg" xmlns:xlink="http://www.w3.org/1999/xlink" contentStyleType="text/css" height="2132px" preserveAspectRatio="none" style="width:1632px;height:2132px;background:#FEFEFE;" version="1.1" viewBox="0 0 1632 2132" width="1632px" zoomAndPan="magnify"><title>&#32452;&#20214;&#24635;&#35272;&#22270;&#65306;MaDaoGame-Web &#20116;&#23618;&#26550;&#26500;</title><defs/><g><rect fill="#FEFEFE" height="2132" style="stroke:none;stroke-width:1;" width="1632" x="0" y="0"/><text fill="#000000" font-family="Microsoft YaHei" font-size="14" font-weight="bold" lengthAdjust="spacing" textLength="274.3672" x="671.8164" y="24.8135">&#32452;&#20214;&#24635;&#35272;&#22270;&#65306;MaDaoGame-Web &#20116;&#23618;&#26550;&#26500;</text><!--cluster BootLayer--><g id="cluster_BootLayer"><path d="M908.5,45.6416 L1000.3496,45.6416 A3.75,3.75 0 0 1 1002.8496,48.1416 L1009.8496,70.1191 L1193.5,70.1191 A2.5,2.5 0 0 1 1196,72.6191 L1196,458.6416 A2.5,2.5 0 0 1 1193.5,461.1416 L908.5,461.1416 A2.5,2.5 0 0 1 906,458.6416 L906,48.1416 A2.5,2.5 0 0 1 908.5,45.6416 " fill="#FFFFE0" style="stroke:#000000;stroke-width:1.5;"/><line style="stroke:#000000;stroke-width:1.5;" x1="906" x2="1009.8496" y1="70.1191" y2="70.1191"/><text fill="#000000" font-family="Microsoft YaHei" font-size="14" font-weight="bold" lengthAdjust="spacing" textLength="90.8496" x="910" y="62.4551">&#21551;&#21160;&#23618; (Boot)</text></g><!--cluster CtrlLayer--><g id="cluster_CtrlLayer"><path d="M41.5,222.6416 L170.5781,222.6416 A3.75,3.75 0 0 1 173.0781,225.1416 L180.0781,247.1191 L483.5,247.1191 A2.5,2.5 0 0 1 486,249.6191 L486,583.1416 A2.5,2.5 0 0 1 483.5,585.6416 L41.5,585.6416 A2.5,2.5 0 0 1 39,583.1416 L39,225.1416 A2.5,2.5 0 0 1 41.5,222.6416 " fill="#ADD8E6" style="stroke:#000000;stroke-width:1.5;"/><line style="stroke:#000000;stroke-width:1.5;" x1="39" x2="180.0781" y1="247.1191" y2="247.1191"/><text fill="#000000" font-family="Microsoft YaHei" font-size="14" font-weight="bold" lengthAdjust="spacing" textLength="128.0781" x="43" y="239.4551">&#25511;&#21046;&#23618; (Controller)</text></g><!--cluster SrvLayer--><g id="cluster_SrvLayer"><path d="M8.5,653.6416 L116.6875,653.6416 A3.75,3.75 0 0 1 119.1875,656.1416 L126.1875,678.1191 L285.5,678.1191 A2.5,2.5 0 0 1 288,680.6191 L288,1165.1416 A2.5,2.5 0 0 1 285.5,1167.6416 L8.5,1167.6416 A2.5,2.5 0 0 1 6,1165.1416 L6,656.1416 A2.5,2.5 0 0 1 8.5,653.6416 " fill="#90EE90" style="stroke:#000000;stroke-width:1.5;"/><line style="stroke:#000000;stroke-width:1.5;" x1="6" x2="126.1875" y1="678.1191" y2="678.1191"/><text fill="#000000" font-family="Microsoft YaHei" font-size="14" font-weight="bold" lengthAdjust="spacing" textLength="107.1875" x="10" y="670.4551">&#26381;&#21153;&#23618; (Service)</text></g><!--cluster DaoLayer--><g id="cluster_DaoLayer"><path d="M546.5,932.1416 L660.9492,932.1416 A3.75,3.75 0 0 1 663.4492,934.6416 L670.4492,956.6191 L1174.5,956.6191 A2.5,2.5 0 0 1 1177,959.1191 L1177,1416.1416 A2.5,2.5 0 0 1 1174.5,1418.6416 L546.5,1418.6416 A2.5,2.5 0 0 1 544,1416.1416 L544,934.6416 A2.5,2.5 0 0 1 546.5,932.1416 " fill="#FFA07A" style="stroke:#000000;stroke-width:1.5;"/><line style="stroke:#000000;stroke-width:1.5;" x1="544" x2="670.4492" y1="956.6191" y2="956.6191"/><text fill="#000000" font-family="Microsoft YaHei" font-size="14" font-weight="bold" lengthAdjust="spacing" textLength="113.4492" x="548" y="948.9551">&#25968;&#25454;&#35775;&#38382;&#23618; (Dao)</text></g><!--cluster InfraLayer--><g id="cluster_InfraLayer"><path d="M1203.5,1235.6416 L1357.6592,1235.6416 A3.75,3.75 0 0 1 1360.1592,1238.1416 L1367.1592,1260.1191 L1622.5,1260.1191 A2.5,2.5 0 0 1 1625,1262.6191 L1625,1916.1416 A2.5,2.5 0 0 1 1622.5,1918.6416 L1203.5,1918.6416 A2.5,2.5 0 0 1 1201,1916.1416 L1201,1238.1416 A2.5,2.5 0 0 1 1203.5,1235.6416 " fill="#D8BFD8" style="stroke:#000000;stroke-width:1.5;"/><line style="stroke:#000000;stroke-width:1.5;" x1="1201" x2="1367.1592" y1="1260.1191" y2="1260.1191"/><text fill="#000000" font-family="Microsoft YaHei" font-size="14" font-weight="bold" lengthAdjust="spacing" textLength="153.1592" x="1205" y="1252.4551">&#24037;&#20855;/&#22522;&#30784;&#35774;&#26045;&#23618; (Infra)</text></g><!--cluster MemoryCache--><g id="cluster_MemoryCache"><path d="M327.8231,943.0483 C334.2369,926.6138 350.7282,922.5707 361.9487,937.8811 C367.9482,924.6103 375.0911,920.8292 386.6118,932.3994 C392.7991,915.3086 404.2691,915.2102 416.7073,925.5383 C431.4293,909.0241 441.7183,913.2083 451.2402,930.8031 C461.8545,917.2387 473.7606,918.3005 480.4685,934.6235 C495.9822,923.7282 505.6733,926.6211 512,944.6416 C514.1532,945.4889 514.7799,946.6835 513.2512,948.6734 C526.599,957.1198 527.109,970.2276 513.9988,979.3194 C528.901,987.4524 528.1263,996.3031 515.3223,1005.8199 C530.3529,1013.1459 534.3392,1024.4187 520.1732,1036.3794 C535.6578,1047.1908 532.8893,1057.5214 518.699,1066.8995 C534.2285,1072.3543 534.6016,1085.0175 523.0733,1094.7258 C536.2237,1105.4378 537.3054,1115.6835 521.3473,1124.7205 C537.9183,1132.5628 537.3191,1147.0856 524.4779,1157.7183 C534.9156,1166.5604 535.4565,1175.1 523.2132,1182.7984 C538.6581,1194.527 537.8782,1205.8881 522.9262,1217.3643 C536.1178,1227.7115 534.4447,1238.0586 520.536,1246.156 C532.7299,1256.1485 530.3904,1268.1595 517.2425,1275.287 C533.3389,1285.9479 532.3046,1295.3249 517.4877,1306.2307 C530.9599,1315.6846 530.5215,1325.3942 518.6012,1335.8042 C529.6888,1350.1497 521.7095,1365.1712 505,1367.6416 C506.3103,1367.7772 506.5365,1368.3744 505.9046,1369.4706 C500.1043,1382.6708 488.7132,1386.451 478.1312,1374.8187 C470.0598,1390.1728 458.6919,1390.0013 449.5926,1375.8116 C438.8192,1392.4017 428.9263,1393.4365 416.7179,1377.2509 C407.8817,1386.4486 397.2366,1385.4556 391.4702,1373.5741 C381.7598,1389.4865 372.5527,1387.8396 361.4929,1374.9802 C343.6821,1392.4071 323.8189,1383.7041 320,1360.6416 C321.2756,1358.8725 323.1998,1358.5527 324.3391,1360.7892 C309.9977,1354.9192 309.958,1344.7039 320.8156,1335.3444 C306.8429,1326.8228 305.1795,1310.9685 321.5373,1303.1263 C306.8871,1296.6691 308.4796,1283.1045 320.8539,1275.9674 C306.1772,1267.7405 306.3376,1254.4843 318.8247,1244.5054 C305.7203,1235.0238 305.7567,1225.4696 318.3866,1215.598 C304.4507,1209.9026 301.3177,1196.7197 314.3063,1187.161 C302.448,1174.704 304.3523,1164.4245 318.7347,1155.6558 C302.7076,1148.9178 300.128,1133.0255 315.8513,1123.4453 C305.0811,1115.5022 304.9473,1105.5974 316.2753,1098.0229 C302.5786,1084.7676 305.3914,1074.9505 321.0181,1066.0441 C308.3022,1057.7461 307.1615,1043.5878 321.4003,1035.6285 C306.2986,1026.6416 307.1015,1013.9966 322.9964,1006.721 C308.8664,997.9042 309.2149,988.1376 321.8357,978.231 C302.4124,961.8301 306.3359,948.942 327,937.6416 C329.9043,938.803 329.7717,941.148 327.8231,943.0483 " fill="#E0FFFF" style="stroke:#181818;stroke-width:1;"/><text fill="#000000" font-family="Microsoft YaHei" font-size="14" font-weight="bold" lengthAdjust="spacing" textLength="56" x="388" y="957.4551">&#20869;&#23384;&#23384;&#20648;</text></g><g id="elem_GMN5"><path d="M922,384.1416 L922,445.6147 A0,0 0 0 0 922,445.6147 L1180.4976,445.6147 A0,0 0 0 0 1180.4976,445.6147 L1180.4976,394.1416 L1170.4976,384.1416 L1051.44,384.1416 L1016.15,120.7016 L1043.44,384.1416 L922,384.1416 A0,0 0 0 0 922,384.1416 " fill="#FEFFDD" style="stroke:#181818;stroke-width:0.5;"/><path d="M1170.4976,384.1416 L1170.4976,394.1416 L1180.4976,394.1416 L1170.4976,384.1416 " fill="#FEFFDD" style="stroke:#181818;stroke-width:0.5;"/><text fill="#000000" font-family="Microsoft YaHei" font-size="13" lengthAdjust="spacing" textLength="154.4448" x="928" y="402.897">@SpringBootApplication</text><text fill="#000000" font-family="Microsoft YaHei" font-size="13" lengthAdjust="spacing" textLength="123.8618" x="928" y="420.0547">@EnableScheduling</text><text fill="#000000" font-family="Microsoft YaHei" font-size="13" lengthAdjust="spacing" textLength="237.4976" x="928" y="437.2124">&#20837;&#21475;: main() &#8594; SpringApplication.run()</text></g><!--entity App--><g id="elem_App"><rect fill="#F1F1F1" height="38.4775" rx="2.5" ry="2.5" style="stroke:#181818;stroke-width:0.5;" width="182.6338" x="922.5" y="82.6416"/><text fill="#000000" font-family="Microsoft YaHei" font-size="14" lengthAdjust="spacing" textLength="162.6338" x="932.5" y="107.4551">MadaoGameApplication</text></g><g id="elem_GMN10"><path d="M216.5,259.6416 L216.5,410.6416 L181.28,414.6416 L216.5,418.6416 L216.5,569.3228 A0,0 0 0 0 216.5,569.3228 L469.4575,569.3228 A0,0 0 0 0 469.4575,569.3228 L469.4575,269.6416 L459.4575,259.6416 L216.5,259.6416 A0,0 0 0 0 216.5,259.6416 " fill="#FEFFDD" style="stroke:#181818;stroke-width:0.5;"/><path d="M459.4575,259.6416 L459.4575,269.6416 L469.4575,269.6416 L459.4575,259.6416 " fill="#FEFFDD" style="stroke:#181818;stroke-width:0.5;"/><text fill="#000000" font-family="Microsoft YaHei" font-size="13" lengthAdjust="spacing" textLength="75.7085" x="222.5" y="278.397">@Controller</text><text fill="#000000" font-family="Microsoft YaHei" font-size="13" lengthAdjust="spacing" textLength="177.4297" x="222.5" y="312.7124">GET  /               &#8594; index.html</text><text fill="#000000" font-family="Microsoft YaHei" font-size="13" lengthAdjust="spacing" textLength="184.6343" x="222.5" y="329.8701">POST /create         &#8594; &#21019;&#24314;&#25151;&#38388;</text><text fill="#000000" font-family="Microsoft YaHei" font-size="13" lengthAdjust="spacing" textLength="177.271" x="222.5" y="347.0278">POST /join           &#8594; &#21152;&#20837;&#25151;&#38388;</text><text fill="#000000" font-family="Microsoft YaHei" font-size="13" lengthAdjust="spacing" textLength="205.8354" x="222.5" y="364.1855">GET  /lobby/{r}/{p}  &#8594; lobby.html</text><text fill="#000000" font-family="Microsoft YaHei" font-size="13" lengthAdjust="spacing" textLength="194.7017" x="222.5" y="381.3433">GET  /game/{r}/{p}   &#8594; &#27169;&#26495;&#20998;&#21457;</text><text fill="#000000" font-family="Microsoft YaHei" font-size="13" lengthAdjust="spacing" textLength="185.9546" x="222.5" y="398.501">POST /guess          &#8594; &#29468;&#25331;&#25552;&#20132;</text><text fill="#000000" font-family="Microsoft YaHei" font-size="13" lengthAdjust="spacing" textLength="184.6533" x="222.5" y="415.6587">POST /action         &#8594; &#34892;&#21160;&#25552;&#20132;</text><text fill="#000000" font-family="Microsoft YaHei" font-size="13" lengthAdjust="spacing" textLength="151.0488" x="222.5" y="432.8164">GET  /leave          &#8594; &#31163;&#24320;</text><text fill="#000000" font-family="Microsoft YaHei" font-size="13" lengthAdjust="spacing" textLength="154.6162" x="222.5" y="449.9741">POST /chat           &#8594; &#32842;&#22825;</text><line style="stroke:#181818;stroke-width:1;" x1="217.5" x2="278.5024" y1="290.3782" y2="290.3782"/><line style="stroke:#181818;stroke-width:1;" x1="217.5" x2="278.5024" y1="292.3782" y2="292.3782"/><text fill="#000000" font-family="Microsoft YaHei" font-size="13" lengthAdjust="spacing" textLength="128.9526" x="278.5024" y="295.0547">&#39029;&#38754;&#36335;&#30001; (Thymeleaf)</text><line style="stroke:#181818;stroke-width:1;" x1="407.4551" x2="468.4575" y1="290.3782" y2="290.3782"/><line style="stroke:#181818;stroke-width:1;" x1="407.4551" x2="468.4575" y1="292.3782" y2="292.3782"/><text fill="#000000" font-family="Microsoft YaHei" font-size="13" lengthAdjust="spacing" textLength="195.2793" x="222.5" y="488.2896">GET  /api/room/{r}   &#8594; &#25151;&#38388;&#29366;&#24577;</text><text fill="#000000" font-family="Microsoft YaHei" font-size="13" lengthAdjust="spacing" textLength="169.0698" x="222.5" y="505.4473">POST /api/guess      &#8594; &#29468;&#25331;</text><text fill="#000000" font-family="Microsoft YaHei" font-size="13" lengthAdjust="spacing" textLength="167.7686" x="222.5" y="522.605">POST /api/action     &#8594; &#34892;&#21160;</text><text fill="#000000" font-family="Microsoft YaHei" font-size="13" lengthAdjust="spacing" textLength="163.7314" x="222.5" y="539.7627">POST /api/chat       &#8594; &#32842;&#22825;</text><text fill="#000000" font-family="Microsoft YaHei" font-size="13" lengthAdjust="spacing" textLength="225.9575" x="222.5" y="556.9204">POST /lobby/{r}/{p}/start &#8594; &#24378;&#21046;&#24320;&#22987;</text><line style="stroke:#181818;stroke-width:1;" x1="217.5" x2="291.5088" y1="465.9553" y2="465.9553"/><line style="stroke:#181818;stroke-width:1;" x1="217.5" x2="291.5088" y1="467.9553" y2="467.9553"/><text fill="#000000" font-family="Microsoft YaHei" font-size="13" lengthAdjust="spacing" textLength="102.9399" x="291.5088" y="470.6318">AJAX API (JSON)</text><line style="stroke:#181818;stroke-width:1;" x1="394.4487" x2="468.4575" y1="465.9553" y2="465.9553"/><line style="stroke:#181818;stroke-width:1;" x1="394.4487" x2="468.4575" y1="467.9553" y2="467.9553"/></g><!--entity Ctrl--><g id="elem_Ctrl"><rect fill="#F1F1F1" height="38.4775" rx="2.5" ry="2.5" style="stroke:#181818;stroke-width:0.5;" width="126.3057" x="55" y="395.6416"/><text fill="#000000" font-family="Microsoft YaHei" font-size="14" lengthAdjust="spacing" textLength="106.3057" x="65" y="420.4551">GameController</text></g><g id="elem_GMN15"><path d="M22.5,824.6416 L22.5,1151.4805 A0,0 0 0 0 22.5,1151.4805 L271.1094,1151.4805 A0,0 0 0 0 271.1094,1151.4805 L271.1094,834.6416 L261.1094,824.6416 L192.8,824.6416 L213.34,728.7816 L184.8,824.6416 L22.5,824.6416 A0,0 0 0 0 22.5,824.6416 " fill="#FEFFDD" style="stroke:#181818;stroke-width:0.5;"/><path d="M261.1094,824.6416 L261.1094,834.6416 L271.1094,834.6416 L261.1094,824.6416 " fill="#FEFFDD" style="stroke:#181818;stroke-width:0.5;"/><text fill="#000000" font-family="Microsoft YaHei" font-size="13" lengthAdjust="spacing" textLength="57.4272" x="28.5" y="843.397">@Service</text><text fill="#000000" font-family="Microsoft YaHei" font-size="13" lengthAdjust="spacing" textLength="146.8467" x="28.5" y="860.5547">@DependsOn("DBUtil")</text><text fill="#000000" font-family="Microsoft YaHei" font-size="13" lengthAdjust="spacing" textLength="3.8467" x="28.5" y="877.7124">&#160;</text><text fill="#000000" font-family="Microsoft YaHei" font-size="13" lengthAdjust="spacing" textLength="221.6094" x="28.5" y="912.0278">createRoom()      &#21019;&#24314;&#25151;&#38388;(&#20869;&#23384;+DB)</text><text fill="#000000" font-family="Microsoft YaHei" font-size="13" lengthAdjust="spacing" textLength="157.4155" x="28.5" y="929.1855">joinRoom()        &#21152;&#20837;/&#37325;&#36830;</text><text fill="#000000" font-family="Microsoft YaHei" font-size="13" lengthAdjust="spacing" textLength="170.7329" x="28.5" y="946.3433">forceStart()      &#25151;&#20027;&#24378;&#21046;&#24320;&#22987;</text><text fill="#000000" font-family="Microsoft YaHei" font-size="13" lengthAdjust="spacing" textLength="195.4634" x="28.5" y="963.501">submitGuess()     &#25910;&#38598;&#29468;&#25331;+&#21028;&#23450;</text><text fill="#000000" font-family="Microsoft YaHei" font-size="13" lengthAdjust="spacing" textLength="181.1812" x="28.5" y="980.6587">executeAction()   &#25191;&#34892;8&#31181;&#34892;&#21160;</text><text fill="#000000" font-family="Microsoft YaHei" font-size="13" lengthAdjust="spacing" textLength="171.4502" x="28.5" y="997.8164">checkGameEnd()    &#32988;&#36127;&#21028;&#23450;</text><text fill="#000000" font-family="Microsoft YaHei" font-size="13" lengthAdjust="spacing" textLength="156.2476" x="28.5" y="1014.9741">endRound()        &#22238;&#21512;&#32467;&#26463;</text><text fill="#000000" font-family="Microsoft YaHei" font-size="13" lengthAdjust="spacing" textLength="3.8467" x="28.5" y="1032.1318">&#160;</text><line style="stroke:#181818;stroke-width:1;" x1="23.5" x2="120.8047" y1="889.6936" y2="889.6936"/><line style="stroke:#181818;stroke-width:1;" x1="23.5" x2="120.8047" y1="891.6936" y2="891.6936"/><text fill="#000000" font-family="Microsoft YaHei" font-size="13" lengthAdjust="spacing" textLength="52" x="120.8047" y="894.3701">&#26680;&#24515;&#32844;&#36131;</text><line style="stroke:#181818;stroke-width:1;" x1="172.8047" x2="270.1094" y1="889.6936" y2="889.6936"/><line style="stroke:#181818;stroke-width:1;" x1="172.8047" x2="270.1094" y1="891.6936" y2="891.6936"/><text fill="#000000" font-family="Microsoft YaHei" font-size="13" lengthAdjust="spacing" textLength="183.9995" x="28.5" y="1070.4473">@PostConstruct initCleanup()</text><text fill="#000000" font-family="Microsoft YaHei" font-size="13" lengthAdjust="spacing" textLength="202.7568" x="36.1934" y="1087.605">&#21551;&#21160;&#28165;&#31354; player + game_room &#34920;</text><text fill="#000000" font-family="Microsoft YaHei" font-size="13" lengthAdjust="spacing" textLength="185.2437" x="28.5" y="1104.7627">@Scheduled(fixedRate=5000)</text><text fill="#000000" font-family="Microsoft YaHei" font-size="13" lengthAdjust="spacing" textLength="148.8018" x="36.1934" y="1121.9204">cleanupInactiveRooms()</text><text fill="#000000" font-family="Microsoft YaHei" font-size="13" lengthAdjust="spacing" textLength="124.6235" x="36.1934" y="1139.0781">&#28165;&#29702;2&#20998;&#38047;&#26080;&#27963;&#21160;&#25151;&#38388;</text><line style="stroke:#181818;stroke-width:1;" x1="23.5" x2="120.8047" y1="1048.113" y2="1048.113"/><line style="stroke:#181818;stroke-width:1;" x1="23.5" x2="120.8047" y1="1050.113" y2="1050.113"/><text fill="#000000" font-family="Microsoft YaHei" font-size="13" lengthAdjust="spacing" textLength="52" x="120.8047" y="1052.7896">&#23450;&#26102;&#20219;&#21153;</text><line style="stroke:#181818;stroke-width:1;" x1="172.8047" x2="270.1094" y1="1048.113" y2="1048.113"/><line style="stroke:#181818;stroke-width:1;" x1="172.8047" x2="270.1094" y1="1050.113" y2="1050.113"/></g><!--entity Srv--><g id="elem_Srv"><rect fill="#F1F1F1" height="38.4775" rx="2.5" ry="2.5" style="stroke:#181818;stroke-width:0.5;" width="106.6182" x="164.5" y="690.6416"/><text fill="#000000" font-family="Microsoft YaHei" font-size="14" lengthAdjust="spacing" textLength="86.6182" x="174.5" y="715.4551">GameService</text></g><g id="elem_GMN20"><path d="M560.5,1264.1416 L560.5,1394.2456 A0,0 0 0 0 560.5,1394.2456 L861.0508,1394.2456 A0,0 0 0 0 861.0508,1394.2456 L861.0508,1274.1416 L851.0508,1264.1416 L715,1264.1416 L711,1007.3716 L707,1264.1416 L560.5,1264.1416 A0,0 0 0 0 560.5,1264.1416 " fill="#FEFFDD" style="stroke:#181818;stroke-width:0.5;"/><path d="M851.0508,1264.1416 L851.0508,1274.1416 L861.0508,1274.1416 L851.0508,1264.1416 " fill="#FEFFDD" style="stroke:#181818;stroke-width:0.5;"/><text fill="#000000" font-family="Microsoft YaHei" font-size="13" lengthAdjust="spacing" textLength="80.2661" x="566.5" y="1282.897">@Repository</text><text fill="#000000" font-family="Microsoft YaHei" font-size="13" lengthAdjust="spacing" textLength="279.5508" x="566.5" y="1300.0547">insert(method=init, sql=INSERT game_room)</text><text fill="#000000" font-family="Microsoft YaHei" font-size="13" lengthAdjust="spacing" textLength="166.2261" x="566.5" y="1317.2124">findById(id) &#8594; GameRoom</text><text fill="#000000" font-family="Microsoft YaHei" font-size="13" lengthAdjust="spacing" textLength="146.7896" x="566.5" y="1334.3701">updateStatus(id, status)</text><text fill="#000000" font-family="Microsoft YaHei" font-size="13" lengthAdjust="spacing" textLength="189.4331" x="566.5" y="1351.5278">updatePhase(id, phase, round)</text><text fill="#000000" font-family="Microsoft YaHei" font-size="13" lengthAdjust="spacing" textLength="86.3789" x="566.5" y="1368.6855">deleteById(id)</text><text fill="#000000" font-family="Microsoft YaHei" font-size="13" lengthAdjust="spacing" textLength="63.4956" x="566.5" y="1385.8433">deleteAll()</text></g><g id="elem_GMN24"><path d="M897,1255.6416 L897,1402.9033 L1161.1597,1402.9033 L1161.1597,1265.6416 L1151.1597,1255.6416 L897,1255.6416 " fill="#FEFFDD" style="stroke:#181818;stroke-width:0.5;"/><path d="M1151.1597,1255.6416 L1151.1597,1265.6416 L1161.1597,1265.6416 L1151.1597,1255.6416 " fill="#FEFFDD" style="stroke:#181818;stroke-width:1;"/><text fill="#000000" font-family="Microsoft YaHei" font-size="13" lengthAdjust="spacing" textLength="80.2661" x="903" y="1274.397">@Repository</text><text fill="#000000" font-family="Microsoft YaHei" font-size="13" lengthAdjust="spacing" textLength="243.1597" x="903" y="1291.5547">insert(method=init, sql=INSERT player)</text><text fill="#000000" font-family="Microsoft YaHei" font-size="13" lengthAdjust="spacing" textLength="130.438" x="903" y="1308.7124">findById(id) &#8594; Player</text><text fill="#000000" font-family="Microsoft YaHei" font-size="13" lengthAdjust="spacing" textLength="241.9473" x="903" y="1325.8701">findByRoomId(roomId) &#8594; List&lt;Player&gt;</text><text fill="#000000" font-family="Microsoft YaHei" font-size="13" lengthAdjust="spacing" textLength="90.8857" x="903" y="1343.0278">update(player)</text><text fill="#000000" font-family="Microsoft YaHei" font-size="13" lengthAdjust="spacing" textLength="86.3789" x="903" y="1360.1855">deleteById(id)</text><text fill="#000000" font-family="Microsoft YaHei" font-size="13" lengthAdjust="spacing" textLength="157.6123" x="903" y="1377.3433">deleteByRoomId(roomId)</text><text fill="#000000" font-family="Microsoft YaHei" font-size="13" lengthAdjust="spacing" textLength="63.4956" x="903" y="1394.501">deleteAll()</text></g><!--entity GD--><g id="elem_GD"><rect fill="#F1F1F1" height="38.4775" rx="2.5" ry="2.5" style="stroke:#181818;stroke-width:0.5;" width="86.5137" x="667.5" y="969.1416"/><text fill="#000000" font-family="Microsoft YaHei" font-size="14" lengthAdjust="spacing" textLength="66.5137" x="677.5" y="993.9551">GameDao</text></g><!--entity PD--><g id="elem_PD"><rect fill="#F1F1F1" height="38.4775" rx="2.5" ry="2.5" style="stroke:#181818;stroke-width:0.5;" width="88.0313" x="808" y="969.1416"/><text fill="#000000" font-family="Microsoft YaHei" font-size="14" lengthAdjust="spacing" textLength="68.0313" x="818" y="993.9551">PlayerDao</text></g><g id="elem_GMN29"><path d="M1315.5,1272.6416 L1315.5,1325.1416 L1280.62,1329.1416 L1315.5,1333.1416 L1315.5,1385.5879 A0,0 0 0 0 1315.5,1385.5879 L1608.5605,1385.5879 A0,0 0 0 0 1608.5605,1385.5879 L1608.5605,1282.6416 L1598.5605,1272.6416 L1315.5,1272.6416 A0,0 0 0 0 1315.5,1272.6416 " fill="#FEFFDD" style="stroke:#181818;stroke-width:0.5;"/><path d="M1598.5605,1272.6416 L1598.5605,1282.6416 L1608.5605,1282.6416 L1598.5605,1272.6416 " fill="#FEFFDD" style="stroke:#181818;stroke-width:0.5;"/><text fill="#000000" font-family="Microsoft YaHei" font-size="13" lengthAdjust="spacing" textLength="87.3564" x="1321.5" y="1291.397">@Component</text><text fill="#000000" font-family="Microsoft YaHei" font-size="13" lengthAdjust="spacing" textLength="182.4824" x="1321.5" y="1308.5547">static DataSource dataSource</text><text fill="#000000" font-family="Microsoft YaHei" font-size="13" lengthAdjust="spacing" textLength="272.0605" x="1321.5" y="1325.7124">@Autowired setDataSource() &#27880;&#20837;+&#38745;&#24577;&#36171;&#20540;</text><text fill="#000000" font-family="Microsoft YaHei" font-size="13" lengthAdjust="spacing" textLength="188.8047" x="1321.5" y="1342.8701">@PostConstruct init() &#33258;&#21160;&#24314;&#34920;</text><text fill="#000000" font-family="Microsoft YaHei" font-size="13" lengthAdjust="spacing" textLength="206.4512" x="1321.5" y="1360.0278">queryForList/Maps(sql)   &#38745;&#24577;&#26597;&#35810;</text><text fill="#000000" font-family="Microsoft YaHei" font-size="13" lengthAdjust="spacing" textLength="176.5728" x="1321.5" y="1377.1855">execute(sql)             &#38745;&#24577;&#25191;&#34892;</text></g><g id="elem_GMN33"><path d="M1217,1665.1416 L1217,1726.6147 A0,0 0 0 0 1217,1726.6147 L1387.4619,1726.6147 A0,0 0 0 0 1387.4619,1726.6147 L1387.4619,1675.1416 L1377.4619,1665.1416 L1306,1665.1416 L1302,1567.0216 L1298,1665.1416 L1217,1665.1416 A0,0 0 0 0 1217,1665.1416 " fill="#FEFFDD" style="stroke:#181818;stroke-width:0.5;"/><path d="M1377.4619,1665.1416 L1377.4619,1675.1416 L1387.4619,1675.1416 L1377.4619,1665.1416 " fill="#FEFFDD" style="stroke:#181818;stroke-width:0.5;"/><text fill="#000000" font-family="Microsoft YaHei" font-size="13" lengthAdjust="spacing" textLength="104.9839" x="1223" y="1683.897">minimum-idle=2</text><text fill="#000000" font-family="Microsoft YaHei" font-size="13" lengthAdjust="spacing" textLength="149.4619" x="1223" y="1701.0547">maximum-pool-size=10</text><text fill="#000000" font-family="Microsoft YaHei" font-size="13" lengthAdjust="spacing" textLength="143.1714" x="1223" y="1718.2124">idle-timeout=30000ms</text></g><g id="elem_GMN37"><path d="M1375.5,1789.6416 L1375.5,1902.5879 A0,0 0 0 0 1375.5,1902.5879 L1608.3721,1902.5879 A0,0 0 0 0 1608.3721,1902.5879 L1608.3721,1799.6416 L1598.3721,1789.6416 L1497.12,1789.6416 L1494.35,1728.8616 L1489.12,1789.6416 L1375.5,1789.6416 A0,0 0 0 0 1375.5,1789.6416 " fill="#FEFFDD" style="stroke:#181818;stroke-width:0.5;"/><path d="M1598.3721,1789.6416 L1598.3721,1799.6416 L1608.3721,1799.6416 L1598.3721,1789.6416 " fill="#FEFFDD" style="stroke:#181818;stroke-width:0.5;"/><text fill="#000000" font-family="Microsoft YaHei" font-size="13" lengthAdjust="spacing" textLength="211.8721" x="1381.5" y="1808.397">&#34920;1: game_room (id, player_count,</text><text fill="#000000" font-family="Microsoft YaHei" font-size="13" lengthAdjust="spacing" textLength="178.7246" x="1400.7334" y="1825.5547">status, round, phase, winner)</text><text fill="#000000" font-family="Microsoft YaHei" font-size="13" lengthAdjust="spacing" textLength="207.8477" x="1381.5" y="1842.7124">&#34920;2: player (id, room_id FK, name,</text><text fill="#000000" font-family="Microsoft YaHei" font-size="13" lengthAdjust="spacing" textLength="170.2822" x="1400.7334" y="1859.8701">hp, steps, horse, knife, buff,</text><text fill="#000000" font-family="Microsoft YaHei" font-size="13" lengthAdjust="spacing" textLength="131.1299" x="1400.7334" y="1877.0278">location, alive, guess,</text><text fill="#000000" font-family="Microsoft YaHei" font-size="13" lengthAdjust="spacing" textLength="75.6895" x="1400.7334" y="1894.1855">last_activity)</text></g><!--entity DBU--><g id="elem_DBU"><rect fill="#F1F1F1" height="38.4775" rx="2.5" ry="2.5" style="stroke:#181818;stroke-width:0.5;" width="62.5674" x="1217.5" y="1310.1416"/><text fill="#000000" font-family="Microsoft YaHei" font-size="14" lengthAdjust="spacing" textLength="42.5674" x="1227.5" y="1334.9551">DBUtil</text></g><!--entity Hikari--><g id="elem_Hikari"><path d="M1263.5,1510.6416 C1263.5,1500.6416 1301.958,1500.6416 1301.958,1500.6416 C1301.958,1500.6416 1340.416,1500.6416 1340.416,1510.6416 L1340.416,1556.5967 C1340.416,1566.5967 1301.958,1566.5967 1301.958,1566.5967 C1301.958,1566.5967 1263.5,1566.5967 1263.5,1556.5967 L1263.5,1510.6416 " fill="#F1F1F1" style="stroke:#181818;stroke-width:0.5;"/><path d="M1263.5,1510.6416 C1263.5,1520.6416 1301.958,1520.6416 1301.958,1520.6416 C1301.958,1520.6416 1340.416,1520.6416 1340.416,1510.6416 " fill="none" style="stroke:#181818;stroke-width:0.5;"/><text fill="#000000" font-family="Microsoft YaHei" font-size="14" lengthAdjust="spacing" textLength="56.916" x="1273.5" y="1539.4551">HikariCP</text><text fill="#000000" font-family="Microsoft YaHei" font-size="14" lengthAdjust="spacing" textLength="42" x="1273.5" y="1557.9326">&#36830;&#25509;&#27744;</text></g><!--entity H2--><g id="elem_H2"><path d="M1422.5,1672.6416 C1422.5,1662.6416 1495.0386,1662.6416 1495.0386,1662.6416 C1495.0386,1662.6416 1567.5771,1662.6416 1567.5771,1672.6416 L1567.5771,1718.5967 C1567.5771,1728.5967 1495.0386,1728.5967 1495.0386,1728.5967 C1495.0386,1728.5967 1422.5,1728.5967 1422.5,1718.5967 L1422.5,1672.6416 " fill="#F1F1F1" style="stroke:#181818;stroke-width:0.5;"/><path d="M1422.5,1672.6416 C1422.5,1682.6416 1495.0386,1682.6416 1495.0386,1682.6416 C1495.0386,1682.6416 1567.5771,1682.6416 1567.5771,1672.6416 " fill="none" style="stroke:#181818;stroke-width:0.5;"/><text fill="#000000" font-family="Microsoft YaHei" font-size="14" lengthAdjust="spacing" textLength="93.1807" x="1432.5" y="1701.4551">H2 &#25991;&#20214;&#25968;&#25454;&#24211;</text><text fill="#000000" font-family="Microsoft YaHei" font-size="14" lengthAdjust="spacing" textLength="125.0771" x="1432.5" y="1719.9326">(madao_db.mv.db)</text></g><g id="elem_GMN42"><path d="M328,1298.6416 L328,1360.1147 A0,0 0 0 0 328,1360.1147 L504.0352,1360.1147 A0,0 0 0 0 504.0352,1360.1147 L504.0352,1308.6416 L494.0352,1298.6416 L419.83,1298.6416 L414.12,1009.8416 L411.83,1298.6416 L328,1298.6416 A0,0 0 0 0 328,1298.6416 " fill="#FEFFDD" style="stroke:#181818;stroke-width:0.5;"/><path d="M494.0352,1298.6416 L494.0352,1308.6416 L504.0352,1308.6416 L494.0352,1298.6416 " fill="#FEFFDD" style="stroke:#181818;stroke-width:0.5;"/><text fill="#000000" font-family="Microsoft YaHei" font-size="13" lengthAdjust="spacing" textLength="65" x="334" y="1317.397">&#24182;&#21457;&#23433;&#20840;&#35835;</text><text fill="#000000" font-family="Microsoft YaHei" font-size="13" lengthAdjust="spacing" textLength="136.8491" x="334" y="1334.5547">rooms.compute() &#20889;&#38145;</text><text fill="#000000" font-family="Microsoft YaHei" font-size="13" lengthAdjust="spacing" textLength="155.0352" x="334" y="1351.7124">&#21452;&#21103;&#26412;: DB&#20248;&#20808;&#8594;&#20869;&#23384;&#21516;&#27493;</text></g><!--entity CHM--><g id="elem_CHM"><rect fill="#F1F1F1" height="42.9551" rx="2.5" ry="2.5" style="stroke:#181818;stroke-width:0.5;" width="167.499" x="330.5" y="966.6416"/><text fill="#000000" font-family="Microsoft YaHei" font-size="14" lengthAdjust="spacing" textLength="139.043" x="340.5" y="984.4551">ConcurrentHashMap</text><text fill="#000000" font-family="Microsoft YaHei" font-size="14" lengthAdjust="spacing" textLength="147.499" x="340.5" y="1002.9326">&lt;String, GameRoom&gt;</text></g><!--entity Browser--><g id="elem_Browser"><ellipse cx="118" cy="71.1416" fill="#F1F1F1" rx="8" ry="8" style="stroke:#181818;stroke-width:0.5;"/><path d="M118,79.1416 L118,106.1416 M105,87.1416 L131,87.1416 M118,106.1416 L105,121.1416 M118,106.1416 L131,121.1416 " fill="none" style="stroke:#181818;stroke-width:0.5;"/><text fill="#000000" font-family="Microsoft YaHei" font-size="14" lengthAdjust="spacing" textLength="42" x="97" y="137.4551">&#27983;&#35272;&#22120;</text></g><!--link PD to GMN24--><g id="link_PD_GMN24"><path d="M843.14,1007.4116 C820.1,1056.1916 762.04,1187.9316 791,1219.6416 C804.24,1234.1416 860.49,1221.0816 879,1227.6416 C898.35,1234.5016 917.62,1244.4216 935.58,1255.4016 " fill="none" id="PD-GMN24" style="stroke:#181818;stroke-width:1;stroke-dasharray:7.0,7.0;"/></g><!--link Browser to Ctrl--><g id="link_Browser_Ctrl"><path d="M118,140.7716 C118,208.2516 118,340.2116 118,389.5816 " fill="none" id="Browser-to-Ctrl" style="stroke:#181818;stroke-width:1;"/><polygon fill="#181818" points="118,395.5816,122,386.5816,118,390.5816,114,386.5816,118,395.5816" style="stroke:#181818;stroke-width:1;"/><text fill="#000000" font-family="Microsoft YaHei" font-size="13" lengthAdjust="spacing" textLength="108.7671" x="127.582" y="185.397">HTTP (GET/POST)</text><text fill="#000000" font-family="Microsoft YaHei" font-size="13" lengthAdjust="spacing" textLength="125.9312" x="119" y="202.5547">&#39029;&#38754;&#35831;&#27714; + AJAX API</text></g><!--link Ctrl to Srv--><g id="link_Ctrl_Srv"><path d="M124.26,433.9716 C142.21,486.5916 191.8516,632.0334 209.8116,684.6434 " fill="none" id="Ctrl-to-Srv" style="stroke:#181818;stroke-width:1;"/><polygon fill="#181818" points="211.75,690.3216,212.6278,680.5119,210.1346,685.5897,205.0568,683.0965,211.75,690.3216" style="stroke:#181818;stroke-width:1;"/><text fill="#000000" font-family="Microsoft YaHei" font-size="13" lengthAdjust="spacing" textLength="78.0508" x="208.1135" y="616.397">@Autowired</text><text fill="#000000" font-family="Microsoft YaHei" font-size="13" lengthAdjust="spacing" textLength="110.2778" x="192" y="633.5547">&#27880;&#20837; GameService</text></g><!--link Srv to CHM--><g id="link_Srv_CHM"><path d="M230.35,728.7316 C242.03,745.7816 260.09,772.0316 276,794.6416 C320.25,857.5316 369.9698,926.4027 395.4498,961.5727 " fill="none" id="Srv-to-CHM" style="stroke:#181818;stroke-width:1;"/><polygon fill="#181818" points="398.97,966.4316,396.929,956.7965,396.0365,962.3826,390.4505,961.4901,398.97,966.4316" style="stroke:#181818;stroke-width:1;"/><text fill="#000000" font-family="Microsoft YaHei" font-size="13" lengthAdjust="spacing" textLength="107.0024" x="277" y="773.397">rooms.compute()</text><text fill="#000000" font-family="Microsoft YaHei" font-size="13" lengthAdjust="spacing" textLength="78" x="291.5012" y="790.5547">&#32454;&#31890;&#24230;&#25151;&#38388;&#38145;</text></g><!--link Srv to GD--><g id="link_Srv_GD"><path d="M271.63,722.8616 C305.77,731.3316 350.62,743.7516 389,758.6416 C404.19,764.5416 506.42,815.6316 520,824.6416 C588.56,870.1316 655.7051,932.8418 688.3951,964.7318 " fill="none" id="Srv-to-GD" style="stroke:#181818;stroke-width:1;"/><polygon fill="#181818" points="692.69,968.9216,689.0409,959.7737,689.1109,965.4301,683.4545,965.5002,692.69,968.9216" style="stroke:#181818;stroke-width:1;"/><text fill="#000000" font-family="Microsoft YaHei" font-size="13" lengthAdjust="spacing" textLength="78.0508" x="463" y="773.397">@Autowired</text><text fill="#000000" font-family="Microsoft YaHei" font-size="13" lengthAdjust="spacing" textLength="78" x="463.0254" y="790.5547">&#35835;&#20889;&#25151;&#38388;&#29366;&#24577;</text></g><!--link Srv to PD--><g id="link_Srv_PD"><path d="M271.89,715.2316 C395.83,726.7716 696.27,760.7916 772,824.6416 C818.16,863.5616 838.6764,929.6781 846.7464,963.2181 " fill="none" id="Srv-to-PD" style="stroke:#181818;stroke-width:1;"/><polygon fill="#181818" points="848.15,969.0516,849.9336,959.3656,846.9803,964.1903,842.1556,961.2371,848.15,969.0516" style="stroke:#181818;stroke-width:1;"/><text fill="#000000" font-family="Microsoft YaHei" font-size="13" lengthAdjust="spacing" textLength="78.0508" x="713" y="773.397">@Autowired</text><text fill="#000000" font-family="Microsoft YaHei" font-size="13" lengthAdjust="spacing" textLength="78" x="713.0254" y="790.5547">&#35835;&#20889;&#29609;&#23478;&#29366;&#24577;</text></g><!--link GD to DBU--><g id="link_GD_DBU"><path d="M712.8,1007.4316 C718.52,1053.9616 740.92,1176.1616 821,1219.6416 C855.77,1238.5216 1142.01,1209.1716 1177,1227.6416 C1210.41,1245.2816 1229.5529,1280.654 1239.7329,1304.484 " fill="none" id="GD-to-DBU" style="stroke:#181818;stroke-width:1;"/><polygon fill="#181818" points="1242.09,1310.0016,1242.2328,1300.1538,1240.1258,1305.4036,1234.876,1303.2966,1242.09,1310.0016" style="stroke:#181818;stroke-width:1;"/><text fill="#000000" font-family="Microsoft YaHei" font-size="13" lengthAdjust="spacing" textLength="57.3384" x="879.8176" y="1198.397">static call</text><text fill="#000000" font-family="Microsoft YaHei" font-size="13" lengthAdjust="spacing" textLength="172.9736" x="822" y="1215.5547">DBUtil.execute/queryForList</text></g><!--link PD to DBU--><g id="link_PD_DBU"><path d="M865.26,1007.2216 C903.69,1059.4016 1013.93,1207.2716 1038,1219.6416 C1065.52,1233.7816 1149.9,1212.7216 1177,1227.6416 C1209.9,1245.7616 1229.0679,1280.5734 1239.4179,1304.2634 " fill="none" id="PD-to-DBU" style="stroke:#181818;stroke-width:1;"/><polygon fill="#181818" points="1241.82,1309.7616,1241.8823,1299.9129,1239.8182,1305.1798,1234.5514,1303.1158,1241.82,1309.7616" style="stroke:#181818;stroke-width:1;"/><text fill="#000000" font-family="Microsoft YaHei" font-size="13" lengthAdjust="spacing" textLength="57.3384" x="1096.8176" y="1198.397">static call</text><text fill="#000000" font-family="Microsoft YaHei" font-size="13" lengthAdjust="spacing" textLength="172.9736" x="1039" y="1215.5547">DBUtil.execute/queryForList</text></g><!--link DBU to Hikari--><g id="link_DBU_Hikari"><path d="M1253.8,1348.4716 C1262.79,1382.8316 1280.7816,1451.5569 1292.0216,1494.5269 " fill="none" id="DBU-to-Hikari" style="stroke:#181818;stroke-width:1;"/><polygon fill="#181818" points="1293.54,1500.3316,1295.1322,1490.6123,1292.2747,1495.4944,1287.3926,1492.6368,1293.54,1500.3316" style="stroke:#181818;stroke-width:1;"/><text fill="#000000" font-family="Microsoft YaHei" font-size="13" lengthAdjust="spacing" textLength="71.7539" x="1285" y="1449.397">DataSource</text><text fill="#000000" font-family="Microsoft YaHei" font-size="13" lengthAdjust="spacing" textLength="52" x="1294.877" y="1466.5547">&#31649;&#29702;&#36830;&#25509;</text></g><!--link Hikari to H2--><g id="link_Hikari_H2"><path d="M1340.59,1566.6316 C1374.14,1594.4516 1417.9015,1630.7216 1451.5215,1658.6016 " fill="none" id="Hikari-to-H2" style="stroke:#181818;stroke-width:1;"/><polygon fill="#181818" points="1456.14,1662.4316,1451.7655,1653.6075,1452.2912,1659.2399,1446.6588,1659.7656,1456.14,1662.4316" style="stroke:#181818;stroke-width:1;"/><text fill="#000000" font-family="Microsoft YaHei" font-size="13" lengthAdjust="spacing" textLength="31.9033" x="1428.8254" y="1611.397">JDBC</text><text fill="#000000" font-family="Microsoft YaHei" font-size="13" lengthAdjust="spacing" textLength="57.5542" x="1416" y="1628.5547">&#26597;&#35810;/&#26356;&#26032;</text></g><!--link Srv to DBU--><g id="link_Srv_DBU"><path d="M271.58,713.1216 C464.18,722.5816 1113.48,759.1016 1177,824.6416 C1245.91,895.7416 1249.3555,1222.6316 1249.1455,1304.1116 " fill="none" id="Srv-to-DBU" style="stroke:#181818;stroke-width:1;stroke-dasharray:7.0,7.0;"/><polygon fill="#181818" points="1249.13,1310.1116,1253.1532,1301.1219,1249.1429,1305.1116,1245.1532,1301.1013,1249.13,1310.1116" style="stroke:#181818;stroke-width:1;"/><text fill="#000000" font-family="Microsoft YaHei" font-size="13" lengthAdjust="spacing" textLength="87.312" x="1290.6179" y="984.897">@DependsOn</text><text fill="#000000" font-family="Microsoft YaHei" font-size="13" lengthAdjust="spacing" textLength="174.5479" x="1247" y="1002.0547">&#30830;&#20445;DBUtil&#20808;&#20110;Service&#21021;&#22987;&#21270;</text></g><!--link App to Ctrl--><g id="link_App_Ctrl"><path d="M922.34,108.7816 C801.18,117.8016 581.37,137.2716 396,170.6416 C331.5,182.2516 317.27,193.8216 253,206.6416 C229.21,211.3916 218.08,199.6616 199,214.6416 C140.47,260.6016 124.6342,349.8185 120.2042,389.5885 " fill="none" id="App-to-Ctrl" style="stroke:#181818;stroke-width:1;"/><polygon fill="#181818" points="119.54,395.5516,124.5118,387.0497,120.0935,390.5823,116.5609,386.1641,119.54,395.5516" style="stroke:#181818;stroke-width:1;"/><text fill="#000000" font-family="Microsoft YaHei" font-size="13" lengthAdjust="spacing" textLength="116.5747" x="397" y="185.397">@ComponentScan</text><text fill="#000000" font-family="Microsoft YaHei" font-size="13" lengthAdjust="spacing" textLength="78" x="416.2874" y="202.5547">&#33258;&#21160;&#25195;&#25551;&#27880;&#20876;</text></g><!--link App to Srv--><g id="link_App_Srv"><path d="M922.31,113.2016 C805.38,128.6816 612.81,161.5816 567,214.6416 C454.43,345.0216 595.38,460.5816 486,593.6416 C431.83,659.5516 338.7463,687.3491 277.4263,699.4591 " fill="none" id="App-to-Srv" style="stroke:#181818;stroke-width:1;"/><polygon fill="#181818" points="271.54,700.6216,281.1445,702.8021,276.4453,699.6529,279.5945,694.9537,271.54,700.6216" style="stroke:#181818;stroke-width:1;"/><text fill="#000000" font-family="Microsoft YaHei" font-size="13" lengthAdjust="spacing" textLength="116.5747" x="568" y="419.897">@ComponentScan</text></g><!--link App to GD--><g id="link_App_GD"><path d="M969.35,120.7416 C930.67,138.7716 876.31,170.1816 846,214.6416 C672.3,469.4416 699.7145,872.1093 708.4645,962.9093 " fill="none" id="App-to-GD" style="stroke:#181818;stroke-width:1;"/><polygon fill="#181818" points="709.04,968.8816,712.1583,959.5394,708.5604,963.9047,704.1952,960.3068,709.04,968.8816" style="stroke:#181818;stroke-width:1;"/><text fill="#000000" font-family="Microsoft YaHei" font-size="13" lengthAdjust="spacing" textLength="116.5747" x="715" y="624.897">@ComponentScan</text></g><!--link App to PD--><g id="link_App_PD"><path d="M987.47,120.9916 C961.34,140.7416 922.82,174.7616 905,214.6416 C842.01,355.6316 849.2632,859.7529 851.4432,962.8929 " fill="none" id="App-to-PD" style="stroke:#181818;stroke-width:1;"/><polygon fill="#181818" points="851.57,968.8916,855.3789,959.8091,851.4643,963.8927,847.3807,959.9781,851.57,968.8916" style="stroke:#181818;stroke-width:1;"/><text fill="#000000" font-family="Microsoft YaHei" font-size="13" lengthAdjust="spacing" textLength="116.5747" x="854" y="624.897">@ComponentScan</text></g><!--link App to DBU--><g id="link_App_DBU"><path d="M1100.27,120.6816 C1231.71,153.7916 1467,237.6316 1467,413.6416 C1467,413.6416 1467,413.6416 1467,989.1416 C1467,1073.6416 1484.16,1110.7716 1430,1175.6416 C1389.59,1224.0416 1344.3,1184.8316 1298,1227.6416 C1273.48,1250.3116 1261.4363,1282.1119 1255.0963,1304.3319 " fill="none" id="App-to-DBU" style="stroke:#181818;stroke-width:1;"/><polygon fill="#181818" points="1253.45,1310.1016,1259.7659,1302.5445,1254.8219,1305.2935,1252.0729,1300.3495,1253.45,1310.1016" style="stroke:#181818;stroke-width:1;"/><text fill="#000000" font-family="Microsoft YaHei" font-size="13" lengthAdjust="spacing" textLength="116.5747" x="1468" y="714.897">@ComponentScan</text></g><rect fill="none" height="176.2979" id="_legend" rx="7.5" ry="7.5" style="stroke:#000000;stroke-width:1;" width="420.6006" x="1185.3994" y="1936.6416"/><text fill="#000000" font-family="Microsoft YaHei" font-size="14" font-weight="bold" lengthAdjust="spacing" textLength="28" x="1190.3994" y="1956.4551">&#22270;&#20363;</text><text fill="#000000" font-family="Microsoft YaHei" font-size="14" lengthAdjust="spacing" textLength="191.1328" x="1190.3994" y="1974.9326">&#8594;  = @Autowired / &#26041;&#27861;&#35843;&#29992;</text><text fill="#000000" font-family="Microsoft YaHei" font-size="14" lengthAdjust="spacing" textLength="199.3154" x="1190.3994" y="1993.4102">..&gt; = &#20381;&#36182;&#22768;&#26126; (@DependsOn)</text><text fill="#000000" font-family="Microsoft YaHei" font-size="14" font-style="italic" lengthAdjust="spacing" textLength="56" x="1190.3994" y="2011.8877">&#20998;&#23618;&#36793;&#30028;</text><text fill="#000000" font-family="Microsoft YaHei" font-size="14" lengthAdjust="spacing" textLength="4.1426" x="1190.3994" y="2030.3652">&#160;</text><text fill="#000000" font-family="Microsoft YaHei" font-size="14" font-weight="bold" lengthAdjust="spacing" textLength="50.6338" x="1190.3994" y="2048.8428">5&#23618;&#26550;&#26500;</text><text fill="#000000" font-family="Microsoft YaHei" font-size="14" lengthAdjust="spacing" textLength="306.6533" x="1241.0332" y="2048.8428">: &#21551;&#21160;&#23618; &#8594; &#25511;&#21046;&#23618; &#8594; &#26381;&#21153;&#23618; &#8594; &#25968;&#25454;&#23618; &#8594; &#24037;&#20855;&#23618;</text><text fill="#000000" font-family="Microsoft YaHei" font-size="14" font-weight="bold" lengthAdjust="spacing" textLength="50.6338" x="1190.3994" y="2067.3203">3&#20010;&#23384;&#20648;</text><text fill="#000000" font-family="Microsoft YaHei" font-size="14" lengthAdjust="spacing" textLength="347.6348" x="1241.0332" y="2067.3203">: &#20869;&#23384;(ConcurrentHashMap) + &#25968;&#25454;&#24211;(H2) + &#38745;&#24577;&#36164;&#28304;</text><text fill="#000000" font-family="Microsoft YaHei" font-size="14" font-weight="bold" lengthAdjust="spacing" textLength="70" x="1190.3994" y="2085.7979">&#21452;&#21103;&#26412;&#31574;&#30053;</text><text fill="#000000" font-family="Microsoft YaHei" font-size="14" lengthAdjust="spacing" textLength="147.2461" x="1260.3994" y="2085.7979">: &#20889;DB&#20248;&#20808; &#8594; &#21516;&#27493;&#20869;&#23384;</text><text fill="#000000" font-family="Microsoft YaHei" font-size="14" font-weight="bold" lengthAdjust="spacing" textLength="56" x="1190.3994" y="2104.2754">&#24182;&#21457;&#27169;&#22411;</text><text fill="#000000" font-family="Microsoft YaHei" font-size="14" lengthAdjust="spacing" textLength="354.6006" x="1246.3994" y="2104.2754">: ConcurrentHashMap + rooms.compute() &#25151;&#38388;&#31890;&#24230;&#38145;</text><!--SRC=[fLXRJnj95dxlNr5Y7wQvcf2DjBB6qN0Ba0s9XHdjZeI4sjrbt4kxszDT9c6ZIEG28K20pH0IXW1X4WOocq2o49BOBFoNaRjjdlOlxAcgRhjiy3pC613TLTyvLUVsrIb_XI9_u2DzXQBj0uFeGXWLSW_okKDl8bVSddPNZz6l4qleallXdhT-wAq_S2Ttl9KzWF-XrIHdL3VJYgsaK5nHHqTiAsDgdPPXsUXFLxhfZu1GhLJQCh59OcJSmCZ6Ab7C4GCB40qdb8n1hbWckQwaCEhNLTjoh0H1toczM9SaeXCGhJBjVqS_zYjTYjK38ir_mt6KpowL39N0nkRcPdIwUGXZOUHzNA1IApjqL59K0dkjAmtM8SL17RPrqy5s85bu-_O24tKNzzoP7NXaecamM1d1gAuyB7TO5gddEk3fcZAEmH7Nz94a-GuRXdKJtPPGsG-ehb_H-BRRqsb3LnMYMoOJXtU6lGD_faKmYbk4M2ba9UWK32BqJInjw-O8NKYGvbFTfX8tS4nDOYrZ08YDkfDRxiAhC4efkYdNer-ddY2kGX1liJCm1t1iQcnXwOxWXZRkmVbjT_hmZ1lAmt8dnC-s30FRt1cTn3P4PtGO6Lpj2kg5ibn9hD8BDfMcJg1JtDIo37kFH23I7q_NVYf-sYiiVK3oO78yXGsi9EfXZa5wkWSH2g7A3_M6RchuLakIfBZgw8tO80gfDbPWPH7dJg-wkQmtVNBwx410_iFIpIgDxinByBg0v6iRLZm-7hfjtmdTJj_XI3PKNflZHi0dPHZ3UJkRtjg9EptbBlnBM7iaWnsdSkt2t0jlTjzRMCndNmj8o7Y8SmMok3a72ImW_LrYPGnNwVmvvnvDYDv9AgJAvkBT6VVrco0OxLVR_uxQetr8lXgxSRqg1afQ3zcMbQ8s1lOnNnLceBhlYhi6f61ZsRugZ61TsR8gZB3dglroJ4LqGWvHRCA3UPIb2NuquMxFrggGYxn2NZnsPpRFLaXfM8vXUqnNCI-Fc3qcLaUFZR5vNdduGe5CBOA0APyWE9w_TE4qxDYvOSfrNHtV4jsegvU287alFxidzujtvue7hu88yRmVWEW0Lx2FcFQoEpNfldlUsDLHpz0qzqKiybC_TFhmSV5adM4IbgtY67LdW09T-S-vAhyYv6JYAPtqq73xI6_fy7HrYaUyqPr-xUx-o93u5bOp1BUpg3EizsWRWlwNmlPZ8VR0W-eezM2tgN6DnVilYWSReYPJ6w27bs30whgxE5t8_U2jRPGy1N3lsM4-buD01fxw9cev16Z88NP69S0YEkc4sZ4pQPax1_adX_Tvil0cYz862tOZekKzJFCVydJ73ncdRAp92VqMrWOW195BhQsjWIALA-upQQAFiV0ufLMe_iMfDY27qoSRthENta6EhXgmpxa9-sUUi4_VUuztYxk0t3sRjbMJCXorF77XGKpSc6Aah7Cp5u1CeAUhLjBsT7473E2qvUXmA8-pTzs4WvZ8AKoIbXQXhcr2plT6fEzwh1lQd987kGiImE0TutsQh6lyVADhKn-nsKnQ0tT20fAC0mXGn1xhXSbeKd4mcqlJfoR46XgEqE0K8JXGBmor6qRbaLbfVvI5E_10jAO7eh_B0poPQfZFbnRcg2zWtcR_EEQQxf2lEV2ou0bPL5pJz6gDl-KLCUikyNxgqvOx-IdaRcGBcnF5tMDl-RzdcwlpCNAVcR0LdeNiqS_3mIIOOvnfBdp6OpdRyMsDdW9cWfR25-Hi15cYgv3hH8bP6Q0mf9KUERuzGwoRkeqrv61InW6LUFixG8ADfsihS9mLFyww4qUrA0FGnOU_q4OobmteuFiCjiUlM3QDKQXVIJioH9uI55VeRMmLztuIYJ2OBtzy96F5gXobPiGXor5Thpwgs7fdTCW4hlRcjxmFBvcl-7YjXEMpRFaKM93Af9frpS2HDZwat693QSiocXtzdpXoePKdD62QYPx2LeP4BWAtjQQSsZjhGzxoGzhiCn9oipyCcNAATit3MhmbDTQYnNaI0B3MDlb-mATmAIfJBgzobkJ3AbGvQP9AJkF4u5T_YGjkwgOPL0HeQmi7JCvKKQN3keQk_BK9cR2Ae2wPfbo3qw0nQTbKrQYf9-1VF9D823Z3uaru4r8C8FScn3eU4Q0uP9Wnlqx6poykVYxJttlyXgCQLaQ3EXB6cSFwSGeefbE10yUdxyvnnITlnGO9I4yrOzjG1hsAauJi6pA_ZX5wNsWgyUfbtgVtzjToFapnkyUNGsXOtTr7SEyixkNO6FMOqqAhb6PkFMnzvNI9DttkmfpxQCzxyJOCLPa_UkvEJWDN-JOipddljiutVdA_i9-372vaJvZn_aqEdY_psqGOzGuEHf4C_MU8TdlrGwP_NTZxv06lD9OQLabY0bIIzbfXeSo7J5xNI6ZA90fYou0pmjMs3Pc5t5JXFq_SxC_yEAQ61X9mA5Pg1mU1BoewuG0RFHzRc7_ZxXxwM0aKKYnbkd10NwfY64Ccvy4Mdor28hz8qTyb9L4ybVEv8YmG9LYzkmaT2ISLoKSmS1i0htPrT88h6Oc5lDK3R_czn0njQGcsKUvQGTVcRlvaZUy5yY6VdVTTxqwlGUVepYrB4hqs2x4kCtbCLK059rZlqR-zXGKQmgcvaeGVumg1qYIFqFbpqT-Oyused9GCF49JbvqxaCOD3UxgSVvujg51uXSI516Fb10Gu1Tl_sdn_Vt24ZqMg7SYA7-yLlouxBvwxpsVHtBPJvGLw5SpY5uHFzmh7dyfF9sJs3BbBtyQ6iGlCzYrgtHvPs-bYmfxuzJhl_436TwOpelvpxzmKc4wMO7APvYZ7kggHE1oRnjz3yx41rvsaNiXgFd2k-N2qoskRoKeVxusAts-2fTXj09tOdTzbWgSMHaMggOPlwvOCT8o1B_nYFmV]--></g></svg>